<svg xmlns="http://www.w3.org/2000/svg" viewBox="0 0 111.15 93.09"><defs><style>.cls-1{fill:#d52027;}</style></defs><g id="Layer_2" data-name="Layer 2"><g id="Layer_1-2" data-name="Layer 1"><polygon class="cls-1" points="87.76 16.61 75.01 25.94 62.25 16.61 75.01 7.29 87.76 16.61"/><path class="cls-1" d="M111.15,34a51.63,51.63,0,0,0-15.08-.54A41.61,41.61,0,0,0,75.85,41.1L32.71,72.63,19.88,63.25h0l-2.79-2L3.1,71.44l2.79,2L32.71,93.09,67,68l40.22-29.4C108.51,37.06,109.79,35.51,111.15,34Z"/><path class="cls-1" d="M18.87,14.07c0,1.09-.68,1.63-2.11,1.63s-2.14-.54-2.14-1.63V7.53q0-4.62-5.11-4.62a6.83,6.83,0,0,0-3.09.61,4,4,0,0,0-2.2,3.62v.09c0,.16,0,.32,0,.49v6.39c0,1.06-.71,1.59-2.09,1.59S0,15.17,0,14.11V1.66C0,.59.71.06,2.11.06A3.13,3.13,0,0,1,3.65.45a1.12,1.12,0,0,1,.57,1v.5A8.48,8.48,0,0,1,6.42.67a11.2,11.2,0,0,1,4-.67A10.12,10.12,0,0,1,16.5,1.74a6,6,0,0,1,2.35,5.15v7.18Z"/></g></g></svg>