<svg id="f5797293-4767-4b98-be82-dd8b3477ccfb" xmlns="http://www.w3.org/2000/svg" viewBox="0 0 865.4 436"><defs><style>.cls-1{fill:#cacaca;}.cls-2{fill:#fff;}.cls-3{fill:#3f3d56;}.cls-4{fill:#2f2e41;}.cls-5{fill:#3b8bc6;}.cls-6{fill:#e4e4e4;}.cls-7{fill:#ffb8b8;}.cls-8{fill:#e6e6e6;}</style></defs><polygon class="cls-1" points="63.61 164.59 63.61 164.99 63.46 165.17 63.61 164.59"/><path class="cls-2" d="M241,572.85l-9.5,3.22v-3.22Z" transform="translate(0 -348.03)"/><rect class="cls-2" x="479.38" y="97.6" width="30.11" height="30.11"/><rect class="cls-2" x="527.89" y="97.6" width="30.11" height="30.11"/><rect class="cls-2" x="576.41" y="97.6" width="30.11" height="30.11"/><rect class="cls-2" x="480.21" y="166.2" width="30.11" height="30.11"/><rect class="cls-2" x="528.73" y="166.2" width="30.11" height="30.11"/><rect class="cls-2" x="577.25" y="166.2" width="30.11" height="30.11"/><rect class="cls-2" x="481.05" y="234.79" width="30.11" height="30.11"/><rect class="cls-2" x="529.56" y="234.79" width="30.11" height="30.11"/><rect class="cls-2" x="578.08" y="234.79" width="30.11" height="30.11"/><path class="cls-2" d="M512,651.41V667q-7.68-3.16-15.27-6.57t-14.84-7v-2.09Z" transform="translate(0 -348.03)"/><path class="cls-2" d="M560.52,651.41v30.12h-9.14q-8.32-2.7-16.55-5.67c-1.48-.52-3-1.07-4.43-1.61V651.41Z" transform="translate(0 -348.03)"/><rect class="cls-2" x="578.92" y="303.38" width="30.11" height="30.11"/><rect class="cls-2" x="731.16" y="166.2" width="30.11" height="30.11"/><rect class="cls-2" x="779.68" y="166.2" width="30.11" height="30.11"/><rect class="cls-2" x="828.19" y="166.2" width="30.11" height="30.11"/><rect class="cls-2" x="732" y="234.79" width="30.11" height="30.11"/><rect class="cls-2" x="780.51" y="234.79" width="30.11" height="30.11"/><rect class="cls-2" x="829.03" y="234.79" width="30.11" height="30.11"/><rect class="cls-2" x="732.83" y="303.38" width="30.11" height="30.11"/><rect class="cls-2" x="781.35" y="303.38" width="30.11" height="30.11"/><rect class="cls-2" x="829.87" y="303.38" width="30.11" height="30.11"/><path class="cls-3" d="M714.57,717.18s10.72,38.1,55.58,36.37,64.26-37.06,64.26-37.06Z" transform="translate(0 -348.03)"/><polygon class="cls-4" points="96.33 220.57 83.51 244.04 85.59 288.11 392.75 379.37 526.5 395.82 500.36 236.31 408.85 220.11 271.59 224.03 155.21 202.56 96.33 220.57"/><path class="cls-3" d="M139.09,723.07h-7.93a40.14,40.14,0,0,1-36.52-23.18c-12.23-26.68-8.61-63.58-8.55-64.11,2.77-31.89,20.25-52.7,43.5-51.76,25.66,1,47.55,89.82,48.47,93.59a33.1,33.1,0,0,1-1.15,19.2A40,40,0,0,1,139.09,723.07Z" transform="translate(0 -348.03)"/><path class="cls-3" d="M462.43,784a28.92,28.92,0,0,1-4.05-.39,62.73,62.73,0,0,1-47.35-36c-3.21-7-6.3-14.15-9.19-21.27-11.58-28.63-1.87-78.66,13.91-98,13.93-17.1,27.94-17,49.16-16.76,2.18,0,4.44,0,6.78,0,23.56,0,48.47,86.71,56.66,115.19.65,2.27,1.19,4.15,1.6,5.55,1.29,4.33,1.13,9.51-.45,15.39-5,18.55-21.45,32.31-41,34.23C474.53,783.33,465.75,784,462.43,784Z" transform="translate(0 -348.03)"/><path class="cls-3" d="M85.59,636.13s-9-40.17,4.51-67.54l13.61-32.9,51.45,47.8,11.74,74.79,201.32,30.5S355.75,566.17,434,561.32,549.44,688.78,549.44,688.78l39.06,28.4,272.24-20.09s4.8,13.16-2.1,20.09-337.33,28.4-337.33,28.4-16.63-164.17-82.43-148.93S392.75,727.4,392.75,727.4L157.64,686S150,574.48,111.22,574.48,85.59,636.13,85.59,636.13Z" transform="translate(0 -348.03)"/><polygon class="cls-3" points="131.99 148.43 176.34 78.91 365.45 67.83 575.34 70.6 673.01 161.34 370.99 178.66 127.85 165.5 131.99 148.43"/><path class="cls-5" d="M132,496.46s-37.74.79-41.89,72.13c0,0,40.17-72.73,74.81,89.36l206.77,33.6s-7.62-135.08,70.66-124.69,97,134.39,97,134.39,15.24,30.48,99.06,25.63,209.19-12.47,222.36-29.79c0,0,30.48-103.21-64.43-169.71l-123.3-18-279.16,5.54Z" transform="translate(0 -348.03)"/><path class="cls-1" d="M226.56,545H203a4.85,4.85,0,0,1,0-9.7h23.59a4.85,4.85,0,0,1,0,9.7Z" transform="translate(0 -348.03)"/><circle class="cls-2" cx="585.04" cy="332.44" r="15.24"/><path class="cls-2" d="M577.49,605.69c-10.44,0-22.89-4.46-34-13-19.68-15.16-27.94-37.54-18.43-49.89s33.26-10.07,52.94,5.09c9.51,7.32,16.66,16.53,20.15,25.92s2.9,18-1.73,24C592.26,603.08,585.46,605.69,577.49,605.69Z" transform="translate(0 -348.03)"/><path class="cls-2" d="M848.3,586.34c-7.68,0-21.46-7.77-35.12-20.39-8.18-7.56-15-15.66-19.08-22.82s-5.15-12.73-2.69-15.39,8-2.14,15.56,1.46,16.07,9.67,24.25,17.23c17.27,16,26.84,32.74,21.78,38.22A6.15,6.15,0,0,1,848.3,586.34Z" transform="translate(0 -348.03)"/><path class="cls-2" d="M204.53,496.44a4.18,4.18,0,0,1-.5,0l-50.09-4.66a5.38,5.38,0,0,1-4.08-8.2L178.11,438a5.35,5.35,0,0,1,4.34-2.54l37.36-1.65a5.37,5.37,0,0,1,5.39,6.93L209.69,492.6A5.39,5.39,0,0,1,204.53,496.44Z" transform="translate(0 -348.03)"/><path class="cls-2" d="M336.52,507.11A14.86,14.86,0,0,1,335,507l-86.6-8.52A15.12,15.12,0,0,1,234.87,482a14,14,0,0,1,.46-2.49l12.45-45.71a15.06,15.06,0,0,1,14.06-11.14l69.89-2.44a15.19,15.19,0,0,1,15.54,13.37L353,483.33a15.09,15.09,0,0,1-.25,5l-1.51,6.93A15.12,15.12,0,0,1,336.52,507.11Z" transform="translate(0 -348.03)"/><path class="cls-2" d="M404.1,509.52a11.26,11.26,0,0,1-10.93-8.69l-15.28-66a11.22,11.22,0,0,1,8.4-13.46,10.79,10.79,0,0,1,2.53-.29H570a11.23,11.23,0,0,1,8,3.41l59.17,61a11.22,11.22,0,0,1-7.8,19l-225,5Z" transform="translate(0 -348.03)"/><path class="cls-5" d="M174.79,429.36l1.55-2.42s9-24.94,133-29.1,239.68-2.08,266,20.78l-214-.69L180.5,430.4Z" transform="translate(0 -348.03)"/><path class="cls-6" d="M116.07,607c-13,0-23.55,21.71-23.55,48.49S103.07,704,116.07,704s23.56-21.71,23.56-48.49S129.08,607,116.07,607Zm1,10.39c2.87,0,5.2,5.58,5.2,12.47s-2.33,12.47-5.2,12.47-5.19-5.58-5.19-12.47S114.24,617.43,117.11,617.43Zm3.12,38.1c0,2.29-1.55,4.16-3.46,4.16s-3.47-1.87-3.47-4.16,1.55-4.16,3.47-4.16,3.46,1.86,3.46,4.16Zm-18.1,2.67c-4.45.34-8.18-.88-8.32-2.74s3.35-3.64,7.8-4,8.18.88,8.33,2.73-3.35,3.64-7.81,4Zm15,35.43c-2.87,0-5.19-5.58-5.19-12.47s2.32-12.47,5.19-12.47,5.2,5.58,5.2,12.47-2.33,12.47-5.2,12.47Zm13.42-35.43c-4.45.34-8.18-.88-8.32-2.74s3.35-3.64,7.8-4,8.18.88,8.33,2.73-3.35,3.64-7.81,4Z" transform="translate(0 -348.03)"/><path class="cls-6" d="M445.11,639.6c-20.66,0-37.41,27.75-37.41,62s16.75,62,37.41,62,37.41-27.76,37.41-62S465.77,639.6,445.11,639.6Zm-22.35,66.65c-6,.46-11.08-1.2-11.27-3.71s4.54-4.93,10.57-5.4,11.08,1.2,11.28,3.71-4.54,4.93-10.58,5.4Zm22.37,47.3c-3.88,0-7-7.56-7-16.89s3.16-16.89,7-16.89,7,7.56,7,16.89-3.15,16.89-7,16.89Zm-5.56-51.61c0-3.67,2.48-6.65,5.54-6.65s5.54,3,5.54,6.65-2.48,6.65-5.54,6.65-5.54-3-5.54-6.65Zm5.56-17.83c-3.88,0-7-7.56-7-16.89s3.16-16.89,7-16.89,7,7.57,7,16.89-3.15,16.89-7,16.89Zm23.72,20.75c-6,.47-11.08-1.19-11.27-3.71s4.54-4.93,10.57-5.39,11.08,1.19,11.28,3.71S474.89,704.4,468.85,704.86Z" transform="translate(0 -348.03)"/><path class="cls-1" d="M314.19,515.6,322.5,535s13.85,5.54,22.86-13.16l-18.25-18.25Z" transform="translate(0 -348.03)"/><path class="cls-1" d="M302.76,520.1c-14.9,0-27-8.07-27-18s12.12-18,27-18,27,8.08,27,18S317.65,520.1,302.76,520.1Z" transform="translate(0 -348.03)"/><path class="cls-3" d="M823.68,583.49,668.8,588s-33.89,9.51-37.35,36.68c0,0,4.84,22.18,17.29,22.18s203.37-10,203.37-10,12.45-19,2.07-32.6S823.68,583.49,823.68,583.49Z" transform="translate(0 -348.03)"/><rect class="cls-6" x="655.45" y="595.14" width="181.72" height="2.08" transform="translate(-19.29 -323.04) rotate(-1.89)"/><rect class="cls-6" x="646.1" y="603.2" width="197.74" height="2.08" transform="translate(-26.58 -313.69) rotate(-2.59)"/><rect class="cls-6" x="638.67" y="613.36" width="212.14" height="2.08" transform="translate(-31.87 -307.21) rotate(-3.07)"/><g id="fa69add6-ae6a-462f-9f4a-a8964149f7d7"><path id="f4e602e9-d2b5-4192-9853-189e5cc927ef" class="cls-7" d="M115,561.63a9.42,9.42,0,0,1,1.65-13.22,9.28,9.28,0,0,1,1.4-.9l-2-21.44,12.74-4.38L131.14,552A9.47,9.47,0,0,1,115,561.63Z" transform="translate(0 -348.03)"/><path id="e2d38235-adb3-41cf-b4a9-63352e01515a" class="cls-8" d="M128.65,438.57s8.74-18.34,16.51-11.9-10.65,60.7-10.65,60.7L131.71,540l-14.77-1.47-4.17-51.3Z" transform="translate(0 -348.03)"/><path id="eea0d059-1974-4b26-aac7-8a2396c42a8e" class="cls-7" d="M11.39,710l11,8.87L61.78,680.8,45.61,667.71Z" transform="translate(0 -348.03)"/><path id="a9703c69-ade6-4e5d-bca9-6a3d314fecef" class="cls-4" d="M11.49,704.14l21.59,17.47h0a17.69,17.69,0,0,1,2.61,24.88l-.36.45L0,718.34Z" transform="translate(0 -348.03)"/><path id="fb949616-149f-4f99-b6d4-35f2ecdeae65" class="cls-7" d="M163.69,734.6h14.1l6.7-54.38h-20.8Z" transform="translate(0 -348.03)"/><path id="b920e865-38ed-4b06-94ca-a4364bcce1a4" class="cls-4" d="M160.09,730h27.77a17.69,17.69,0,0,1,17.69,17.69v.58H160.09Z" transform="translate(0 -348.03)"/><path id="e64f2ddc-8714-4699-9f4e-cfc1a70d06b3" class="cls-4" d="M188.43,479.66s26.45,32.2,20.7,64.4-10.35,56.35-10.35,56.35l-9.2,72.45s3.45,19.73-1.15,24.82c0,0,6.9,12-5.75,16.58s-19.48-1.59-19.48-1.59-9.27-13.36-3.52-16.8l2.42-142.19L70,674s-1.69,14.63-13.5,14.79l-14.1,10.51-16.1-9.2,8-10.35s-4.6-11.5,5.75-13.8l59.8-78.2,15-40.25s8-31,29.9-43.7V490.35Z" transform="translate(0 -348.03)"/><path id="bce97f6a-e88b-4fe5-bf4a-3ce22a01c084" class="cls-8" d="M143,423.88h0A22,22,0,0,1,172,419.8l1,.64h0a84.79,84.79,0,0,1,19.85,40.85l4.3,23.55L143,496.54l-12.67-43.7A24.69,24.69,0,0,1,143,423.89Z" transform="translate(0 -348.03)"/><path id="b697c87b-19ec-4b06-9e7e-37987317631c" class="cls-7" d="M231.81,566.64a10.78,10.78,0,0,1-6.9-13.6,10,10,0,0,1,.74-1.75l-15.59-19.08,9.29-12.31L241,547.16a10.84,10.84,0,0,1-9.18,19.48Z" transform="translate(0 -348.03)"/><path id="ff802918-ea99-4deb-b868-19882644d1b6" class="cls-8" d="M166,441.13s-3.45-23,8.05-21.85,28.75,64.41,28.75,64.41l31,51.75-14.95,8-36.8-46Z" transform="translate(0 -348.03)"/><path id="b2ad01c3-7822-402f-83d4-81805929538c" class="cls-4" d="M187.06,407.51H132.3a4.26,4.26,0,0,1-4.25-4.25v-23.6a31.63,31.63,0,1,1,63.26,0h0v23.6A4.25,4.25,0,0,1,187.06,407.51Z" transform="translate(0 -348.03)"/><circle id="fe1c8106-5903-484b-8252-f0483d4636a1" class="cls-7" cx="166.18" cy="35.74" r="23.19"/><path id="e2d5a9f4-7ffc-4596-9574-3d578968164c" class="cls-4" d="M198.8,382H169.61l-.3-4.81-1.5,4.81h-4.49l-.59-9.53-3,9.53h-8.69v-.47c0-13.8,9.78-25,21.81-25H177c12,0,21.81,11.23,21.81,25Z" transform="translate(0 -348.03)"/><path id="aa8282a4-b0b8-48ea-8496-97297549be2f" class="cls-4" d="M170.82,411.92a6.44,6.44,0,0,1-1.07-.09L135,406.48V370.3A13.93,13.93,0,0,1,149,356.37h24.31l-.95,1c-13.17,13.41-3.25,35.16,3.84,46.93a4.62,4.62,0,0,1-.47,5.49,6.29,6.29,0,0,1-4.86,2.17Z" transform="translate(0 -348.03)"/></g></svg>