<?xml version="1.0" encoding="UTF-8" standalone="no"?>
<!DOCTYPE svg PUBLIC "-//W3C//DTD SVG 1.1//EN"
 "http://www.w3.org/Graphics/SVG/1.1/DTD/svg11.dtd">
<!-- Generated by graphviz version 2.40.1 (20161225.0304)
 -->
<!-- Title: dependencies Pages: 1 -->
<svg width="2976pt" height="211pt"
 viewBox="0.00 0.00 2976.00 211.00" xmlns="http://www.w3.org/2000/svg" xmlns:xlink="http://www.w3.org/1999/xlink">
<g id="graph0" class="graph" transform="scale(1 1) rotate(0) translate(4 207)">
<title>dependencies</title>
<polygon fill="#ffffff" stroke="transparent" points="-4,4 -4,-207 2972,-207 2972,4 -4,4"/>
<text text-anchor="start" x="1463.0091" y="-42.4" font-family="sans-serif" font-weight="bold" font-size="14.00" fill="#000000">Legend</text>
<polygon fill="#ffffb3" stroke="transparent" points="1250,-10 1250,-30 1270,-30 1270,-10 1250,-10"/>
<text text-anchor="start" x="1273.629" y="-15.4" font-family="sans-serif" font-size="14.00" fill="#000000"> &#160;Declarations</text>
<polygon fill="#8dd3c7" stroke="transparent" points="1363,-10 1363,-30 1383,-30 1383,-10 1363,-10"/>
<text text-anchor="start" x="1386.7251" y="-15.4" font-family="sans-serif" font-size="14.00" fill="#000000"> &#160;Module</text>
<polygon fill="#80b1d3" stroke="transparent" points="1449,-10 1449,-30 1469,-30 1469,-10 1449,-10"/>
<text text-anchor="start" x="1472.7812" y="-15.4" font-family="sans-serif" font-size="14.00" fill="#000000"> &#160;Bootstrap</text>
<polygon fill="#fdb462" stroke="transparent" points="1546,-10 1546,-30 1566,-30 1566,-10 1546,-10"/>
<text text-anchor="start" x="1569.6732" y="-15.4" font-family="sans-serif" font-size="14.00" fill="#000000"> &#160;Providers</text>
<polygon fill="#fb8072" stroke="transparent" points="1642,-10 1642,-30 1662,-30 1662,-10 1642,-10"/>
<text text-anchor="start" x="1665.7258" y="-15.4" font-family="sans-serif" font-size="14.00" fill="#000000"> &#160;Exports</text>
<g id="clust1" class="cluster">
<title>cluster_UserModule</title>
<polygon fill="none" stroke="#000000" stroke-dasharray="1,5" points="8,-70 8,-195 2960,-195 2960,-70 8,-70"/>
</g>
<g id="clust2" class="cluster">
<title>cluster_UserModule_declarations</title>
<polygon fill="none" stroke="#000000" points="285,-78 285,-130 2952,-130 2952,-78 285,-78"/>
</g>
<g id="clust18" class="cluster">
<title>cluster_UserModule_imports</title>
<polygon fill="none" stroke="#000000" points="16,-78 16,-130 277,-130 277,-78 16,-78"/>
</g>
<!-- AccountPanelComponent -->
<g id="node1" class="node">
<title>AccountPanelComponent</title>
<polygon fill="#ffffb3" stroke="#000000" points="2943.8613,-122 2784.1387,-122 2784.1387,-86 2943.8613,-86 2943.8613,-122"/>
<text text-anchor="middle" x="2864" y="-99.8" font-family="Times,serif" font-size="14.00" fill="#000000">AccountPanelComponent</text>
</g>
<!-- UserModule -->
<g id="node16" class="node">
<title>UserModule</title>
<polygon fill="#8dd3c7" stroke="#000000" points="1410.9762,-187 1407.9762,-191 1386.9762,-191 1383.9762,-187 1325.0238,-187 1325.0238,-151 1410.9762,-151 1410.9762,-187"/>
<text text-anchor="middle" x="1368" y="-164.8" font-family="Times,serif" font-size="14.00" fill="#000000">UserModule</text>
</g>
<!-- AccountPanelComponent&#45;&gt;UserModule -->
<g id="edge1" class="edge">
<title>AccountPanelComponent&#45;&gt;UserModule</title>
<path fill="none" stroke="#000000" d="M2864,-122.3228C2864,-145.6602 2864,-183 2864,-183 2864,-183 1421.159,-183 1421.159,-183"/>
<polygon fill="#000000" stroke="#000000" points="1421.159,-179.5001 1411.159,-183 1421.159,-186.5001 1421.159,-179.5001"/>
</g>
<!-- BoughtPoliciesComponent -->
<g id="node2" class="node">
<title>BoughtPoliciesComponent</title>
<polygon fill="#ffffb3" stroke="#000000" points="2766.3878,-122 2599.6122,-122 2599.6122,-86 2766.3878,-86 2766.3878,-122"/>
<text text-anchor="middle" x="2683" y="-99.8" font-family="Times,serif" font-size="14.00" fill="#000000">BoughtPoliciesComponent</text>
</g>
<!-- BoughtPoliciesComponent&#45;&gt;UserModule -->
<g id="edge2" class="edge">
<title>BoughtPoliciesComponent&#45;&gt;UserModule</title>
<path fill="none" stroke="#000000" d="M2683,-122.1554C2683,-144.3519 2683,-179 2683,-179 2683,-179 1421.0048,-179 1421.0048,-179"/>
<polygon fill="#000000" stroke="#000000" points="1421.0048,-175.5001 1411.0048,-179 1421.0047,-182.5001 1421.0048,-175.5001"/>
</g>
<!-- EmailSettingsComponent -->
<g id="node3" class="node">
<title>EmailSettingsComponent</title>
<polygon fill="#ffffb3" stroke="#000000" points="2581.885,-122 2422.115,-122 2422.115,-86 2581.885,-86 2581.885,-122"/>
<text text-anchor="middle" x="2502" y="-99.8" font-family="Times,serif" font-size="14.00" fill="#000000">EmailSettingsComponent</text>
</g>
<!-- EmailSettingsComponent&#45;&gt;UserModule -->
<g id="edge3" class="edge">
<title>EmailSettingsComponent&#45;&gt;UserModule</title>
<path fill="none" stroke="#000000" d="M2502,-122.2843C2502,-143.3211 2502,-175 2502,-175 2502,-175 1421.0694,-175 1421.0694,-175"/>
<polygon fill="#000000" stroke="#000000" points="1421.0694,-171.5001 1411.0694,-175 1421.0694,-178.5001 1421.0694,-171.5001"/>
</g>
<!-- ExpiredPoliciesComponent -->
<g id="node4" class="node">
<title>ExpiredPoliciesComponent</title>
<polygon fill="#ffffb3" stroke="#000000" points="2403.979,-122 2234.021,-122 2234.021,-86 2403.979,-86 2403.979,-122"/>
<text text-anchor="middle" x="2319" y="-99.8" font-family="Times,serif" font-size="14.00" fill="#000000">ExpiredPoliciesComponent</text>
</g>
<!-- ExpiredPoliciesComponent&#45;&gt;UserModule -->
<g id="edge4" class="edge">
<title>ExpiredPoliciesComponent&#45;&gt;UserModule</title>
<path fill="none" stroke="#000000" d="M2319,-122.308C2319,-142.1455 2319,-171 2319,-171 2319,-171 1421.0213,-171 1421.0213,-171"/>
<polygon fill="#000000" stroke="#000000" points="1421.0214,-167.5001 1411.0213,-171 1421.0213,-174.5001 1421.0214,-167.5001"/>
</g>
<!-- ExpiringPoliciesComponent -->
<g id="node5" class="node">
<title>ExpiringPoliciesComponent</title>
<polygon fill="#ffffb3" stroke="#000000" points="2216.1553,-122 2041.8447,-122 2041.8447,-86 2216.1553,-86 2216.1553,-122"/>
<text text-anchor="middle" x="2129" y="-99.8" font-family="Times,serif" font-size="14.00" fill="#000000">ExpiringPoliciesComponent</text>
</g>
<!-- ExpiringPoliciesComponent&#45;&gt;UserModule -->
<g id="edge5" class="edge">
<title>ExpiringPoliciesComponent&#45;&gt;UserModule</title>
<path fill="none" stroke="#000000" d="M2129,-122.2222C2129,-140.8285 2129,-167 2129,-167 2129,-167 1421.0951,-167 1421.0951,-167"/>
<polygon fill="#000000" stroke="#000000" points="1421.0951,-163.5001 1411.0951,-167 1421.095,-170.5001 1421.0951,-163.5001"/>
</g>
<!-- IdentitiesComponent -->
<g id="node6" class="node">
<title>IdentitiesComponent</title>
<polygon fill="#ffffb3" stroke="#000000" points="2023.9299,-122 1890.0701,-122 1890.0701,-86 2023.9299,-86 2023.9299,-122"/>
<text text-anchor="middle" x="1957" y="-99.8" font-family="Times,serif" font-size="14.00" fill="#000000">IdentitiesComponent</text>
</g>
<!-- IdentitiesComponent&#45;&gt;UserModule -->
<g id="edge6" class="edge">
<title>IdentitiesComponent&#45;&gt;UserModule</title>
<path fill="none" stroke="#000000" d="M1957,-122.0225C1957,-139.3734 1957,-163 1957,-163 1957,-163 1421.3106,-163 1421.3106,-163"/>
<polygon fill="#000000" stroke="#000000" points="1421.3106,-159.5001 1411.3106,-163 1421.3105,-166.5001 1421.3106,-159.5001"/>
</g>
<!-- MiscellaneousSettingsComponent -->
<g id="node7" class="node">
<title>MiscellaneousSettingsComponent</title>
<polygon fill="#ffffb3" stroke="#000000" points="1872.8102,-122 1665.1898,-122 1665.1898,-86 1872.8102,-86 1872.8102,-122"/>
<text text-anchor="middle" x="1769" y="-99.8" font-family="Times,serif" font-size="14.00" fill="#000000">MiscellaneousSettingsComponent</text>
</g>
<!-- MiscellaneousSettingsComponent&#45;&gt;UserModule -->
<g id="edge7" class="edge">
<title>MiscellaneousSettingsComponent&#45;&gt;UserModule</title>
<path fill="none" stroke="#000000" d="M1769,-122.0091C1769,-138.0494 1769,-159 1769,-159 1769,-159 1421.295,-159 1421.295,-159"/>
<polygon fill="#000000" stroke="#000000" points="1421.2951,-155.5001 1411.295,-159 1421.295,-162.5001 1421.2951,-155.5001"/>
</g>
<!-- PasswordSettingsComponent -->
<g id="node8" class="node">
<title>PasswordSettingsComponent</title>
<polygon fill="#ffffb3" stroke="#000000" points="1647.0996,-122 1466.9004,-122 1466.9004,-86 1647.0996,-86 1647.0996,-122"/>
<text text-anchor="middle" x="1557" y="-99.8" font-family="Times,serif" font-size="14.00" fill="#000000">PasswordSettingsComponent</text>
</g>
<!-- PasswordSettingsComponent&#45;&gt;UserModule -->
<g id="edge8" class="edge">
<title>PasswordSettingsComponent&#45;&gt;UserModule</title>
<path fill="none" stroke="#000000" d="M1557,-122.1243C1557,-136.7832 1557,-155 1557,-155 1557,-155 1421.3604,-155 1421.3604,-155"/>
<polygon fill="#000000" stroke="#000000" points="1421.3605,-151.5001 1411.3604,-155 1421.3604,-158.5001 1421.3605,-151.5001"/>
</g>
<!-- PhoneSettingsComponent -->
<g id="node9" class="node">
<title>PhoneSettingsComponent</title>
<polygon fill="#ffffb3" stroke="#000000" points="1448.9438,-122 1287.0562,-122 1287.0562,-86 1448.9438,-86 1448.9438,-122"/>
<text text-anchor="middle" x="1368" y="-99.8" font-family="Times,serif" font-size="14.00" fill="#000000">PhoneSettingsComponent</text>
</g>
<!-- PhoneSettingsComponent&#45;&gt;UserModule -->
<g id="edge9" class="edge">
<title>PhoneSettingsComponent&#45;&gt;UserModule</title>
<path fill="none" stroke="#000000" d="M1368,-122.1061C1368,-122.1061 1368,-140.991 1368,-140.991"/>
<polygon fill="#000000" stroke="#000000" points="1364.5001,-140.9909 1368,-150.991 1371.5001,-140.991 1364.5001,-140.9909"/>
</g>
<!-- PoliciesPanelComponent -->
<g id="node10" class="node">
<title>PoliciesPanelComponent</title>
<polygon fill="#ffffb3" stroke="#000000" points="1269.2632,-122 1112.7368,-122 1112.7368,-86 1269.2632,-86 1269.2632,-122"/>
<text text-anchor="middle" x="1191" y="-99.8" font-family="Times,serif" font-size="14.00" fill="#000000">PoliciesPanelComponent</text>
</g>
<!-- PoliciesPanelComponent&#45;&gt;UserModule -->
<g id="edge10" class="edge">
<title>PoliciesPanelComponent&#45;&gt;UserModule</title>
<path fill="none" stroke="#000000" d="M1191,-122.1243C1191,-136.7832 1191,-155 1191,-155 1191,-155 1314.7009,-155 1314.7009,-155"/>
<polygon fill="#000000" stroke="#000000" points="1314.701,-158.5001 1324.7009,-155 1314.7009,-151.5001 1314.701,-158.5001"/>
</g>
<!-- PrevQuotesComponent -->
<g id="node11" class="node">
<title>PrevQuotesComponent</title>
<polygon fill="#ffffb3" stroke="#000000" points="1094.147,-122 947.853,-122 947.853,-86 1094.147,-86 1094.147,-122"/>
<text text-anchor="middle" x="1021" y="-99.8" font-family="Times,serif" font-size="14.00" fill="#000000">PrevQuotesComponent</text>
</g>
<!-- PrevQuotesComponent&#45;&gt;UserModule -->
<g id="edge11" class="edge">
<title>PrevQuotesComponent&#45;&gt;UserModule</title>
<path fill="none" stroke="#000000" d="M1021,-122.0091C1021,-138.0494 1021,-159 1021,-159 1021,-159 1314.7538,-159 1314.7538,-159"/>
<polygon fill="#000000" stroke="#000000" points="1314.7539,-162.5001 1324.7538,-159 1314.7538,-155.5001 1314.7539,-162.5001"/>
</g>
<!-- ProfileComponent -->
<g id="node12" class="node">
<title>ProfileComponent</title>
<polygon fill="#ffffb3" stroke="#000000" points="929.9328,-122 810.0672,-122 810.0672,-86 929.9328,-86 929.9328,-122"/>
<text text-anchor="middle" x="870" y="-99.8" font-family="Times,serif" font-size="14.00" fill="#000000">ProfileComponent</text>
</g>
<!-- ProfileComponent&#45;&gt;UserModule -->
<g id="edge12" class="edge">
<title>ProfileComponent&#45;&gt;UserModule</title>
<path fill="none" stroke="#000000" d="M870,-122.0225C870,-139.3734 870,-163 870,-163 870,-163 1314.6769,-163 1314.6769,-163"/>
<polygon fill="#000000" stroke="#000000" points="1314.677,-166.5001 1324.6769,-163 1314.6769,-159.5001 1314.677,-166.5001"/>
</g>
<!-- TechnicalSupportComponent -->
<g id="node13" class="node">
<title>TechnicalSupportComponent</title>
<polygon fill="#ffffb3" stroke="#000000" points="792.3585,-122 611.6415,-122 611.6415,-86 792.3585,-86 792.3585,-122"/>
<text text-anchor="middle" x="702" y="-99.8" font-family="Times,serif" font-size="14.00" fill="#000000">TechnicalSupportComponent</text>
</g>
<!-- TechnicalSupportComponent&#45;&gt;UserModule -->
<g id="edge13" class="edge">
<title>TechnicalSupportComponent&#45;&gt;UserModule</title>
<path fill="none" stroke="#000000" d="M702,-122.2222C702,-140.8285 702,-167 702,-167 702,-167 1314.815,-167 1314.815,-167"/>
<polygon fill="#000000" stroke="#000000" points="1314.8151,-170.5001 1324.815,-167 1314.815,-163.5001 1314.8151,-170.5001"/>
</g>
<!-- VehiclesComponent -->
<g id="node14" class="node">
<title>VehiclesComponent</title>
<polygon fill="#ffffb3" stroke="#000000" points="593.309,-122 462.691,-122 462.691,-86 593.309,-86 593.309,-122"/>
<text text-anchor="middle" x="528" y="-99.8" font-family="Times,serif" font-size="14.00" fill="#000000">VehiclesComponent</text>
</g>
<!-- VehiclesComponent&#45;&gt;UserModule -->
<g id="edge14" class="edge">
<title>VehiclesComponent&#45;&gt;UserModule</title>
<path fill="none" stroke="#000000" d="M528,-122.308C528,-142.1455 528,-171 528,-171 528,-171 1314.8985,-171 1314.8985,-171"/>
<polygon fill="#000000" stroke="#000000" points="1314.8986,-174.5001 1324.8985,-171 1314.8985,-167.5001 1314.8986,-174.5001"/>
</g>
<!-- VehiclesListComponent -->
<g id="node15" class="node">
<title>VehiclesListComponent</title>
<polygon fill="#ffffb3" stroke="#000000" points="445.087,-122 292.913,-122 292.913,-86 445.087,-86 445.087,-122"/>
<text text-anchor="middle" x="369" y="-99.8" font-family="Times,serif" font-size="14.00" fill="#000000">VehiclesListComponent</text>
</g>
<!-- VehiclesListComponent&#45;&gt;UserModule -->
<g id="edge15" class="edge">
<title>VehiclesListComponent&#45;&gt;UserModule</title>
<path fill="none" stroke="#000000" d="M369,-122.2843C369,-143.3211 369,-175 369,-175 369,-175 1314.7536,-175 1314.7536,-175"/>
<polygon fill="#000000" stroke="#000000" points="1314.7536,-178.5001 1324.7536,-175 1314.7535,-171.5001 1314.7536,-178.5001"/>
</g>
<!-- AppRoutingModule -->
<g id="node17" class="node">
<title>AppRoutingModule</title>
<polygon fill="#8dd3c7" stroke="#000000" points="269.2744,-122 266.2744,-126 245.2744,-126 242.2744,-122 140.7256,-122 140.7256,-86 269.2744,-86 269.2744,-122"/>
<text text-anchor="middle" x="205" y="-99.8" font-family="Times,serif" font-size="14.00" fill="#000000">AppRoutingModule</text>
</g>
<!-- AppRoutingModule&#45;&gt;UserModule -->
<g id="edge16" class="edge">
<title>AppRoutingModule&#45;&gt;UserModule</title>
<path fill="none" stroke="#000000" d="M205,-122.1554C205,-144.3519 205,-179 205,-179 205,-179 1314.8809,-179 1314.8809,-179"/>
<polygon fill="#000000" stroke="#000000" points="1314.8809,-182.5001 1324.8809,-179 1314.8809,-175.5001 1314.8809,-182.5001"/>
</g>
<!-- SharedModule -->
<g id="node18" class="node">
<title>SharedModule</title>
<polygon fill="#8dd3c7" stroke="#000000" points="122.4231,-122 119.4231,-126 98.4231,-126 95.4231,-122 23.5769,-122 23.5769,-86 122.4231,-86 122.4231,-122"/>
<text text-anchor="middle" x="73" y="-99.8" font-family="Times,serif" font-size="14.00" fill="#000000">SharedModule</text>
</g>
<!-- SharedModule&#45;&gt;UserModule -->
<g id="edge17" class="edge">
<title>SharedModule&#45;&gt;UserModule</title>
<path fill="none" stroke="#000000" d="M73,-122.3228C73,-145.6602 73,-183 73,-183 73,-183 1314.913,-183 1314.913,-183"/>
<polygon fill="#000000" stroke="#000000" points="1314.9131,-186.5001 1324.913,-183 1314.913,-179.5001 1314.9131,-186.5001"/>
</g>
</g>
</svg>
