<svg width="128" height="128" viewBox="0 0 128 128" fill="none" xmlns="http://www.w3.org/2000/svg">
<path d="M107.15 94.8248L90.2999 111.675L80.6749 102.05C80.3249 101.7 79.8249 101.475 79.3249 101.475L63.0749 100.975C61.8249 100.95 60.6249 100.425 59.7499 99.5248L44.5249 84.2998L48.0499 83.0748C50.5749 82.1998 53.3749 82.8498 55.2749 84.7248L60.5749 90.0248C61.3499 90.7998 62.6249 90.7998 63.3999 90.0248C64.1749 89.2498 64.1749 87.9748 63.3999 87.1998L37.8249 61.6248C36.7999 60.5998 36.7999 58.9248 37.8249 57.8998C38.8249 56.8998 40.4749 56.8998 41.4749 57.9248L41.4999 57.9498L56.4749 72.9248C57.2499 73.6998 58.5249 73.6998 59.2999 72.9248C60.0749 72.1498 60.0749 70.8748 59.2999 70.0998L44.3249 55.1248C43.2999 54.0998 43.2999 52.4248 44.3249 51.3998C45.3499 50.3748 47.0249 50.3748 48.0499 51.3998L51.8749 55.2498L62.9749 66.4498C63.7499 67.2248 65.0249 67.2248 65.7999 66.4498C66.5749 65.6748 66.5749 64.3998 65.7999 63.6248L54.6499 52.4748C53.6249 51.4498 53.6249 49.7748 54.6499 48.7498C55.6749 47.7248 57.3499 47.7248 58.3749 48.7498L69.5249 59.8998C70.2999 60.6748 71.5749 60.6748 72.3499 59.8998C73.1249 59.1248 73.1249 57.8498 72.3499 57.0748L66.2999 51.0248C65.2249 49.9498 65.2749 48.0248 66.2749 47.0248C67.2749 46.0248 69.0999 46.0998 70.1749 47.1998L94.6999 71.7248L96.6249 83.7998C96.6999 84.2248 96.8999 84.5998 97.1749 84.8998L107.15 94.8248Z" fill="#E9F4FF"/>
<path d="M12.325 44.8499C12.85 44.8499 13.375 44.6499 13.75 44.2749L17 41.0249L26.475 50.4999L27.45 56.6499C27.6 57.6249 28.4499 58.3249 29.4249 58.3249C29.525 58.3249 29.625 58.3249 29.75 58.2999C30.85 58.1249 31.5749 57.0999 31.4 55.9999L30.325 49.2249C30.25 48.7999 30.0749 48.4249 29.775 48.1249L19.825 38.1749L36.6749 21.3249L46.2999 30.9499C46.6499 31.2999 47.125 31.4999 47.5999 31.5249L55.525 31.9499C55.55 31.9499 55.5999 31.9499 55.625 31.9499C56.7249 31.9499 57.625 31.0499 57.625 29.9499C57.625 28.8749 56.7999 27.9999 55.7249 27.9499L48.575 27.5749L39.5 18.4999L44.25 13.7499C45.025 12.9749 45.025 11.6999 44.25 10.9249L33.9249 0.574902C33.1499 -0.200098 31.875 -0.200098 31.1 0.574902C30.325 1.3499 30.325 2.6249 31.1 3.3999L40.025 12.3249L12.325 40.0249L3.39995 31.0999C2.59995 30.3249 1.34995 30.3499 0.574951 31.1249C-0.175049 31.8999 -0.175049 33.1499 0.574951 33.9249L10.925 44.2749C11.275 44.6499 11.8 44.8499 12.325 44.8499Z" fill="#005DBD"/>
<path d="M57.3 37.1499C58.125 37.8999 59.375 37.8249 60.125 36.9999L64.375 32.2499L76.4 30.3499C76.825 30.2749 77.2 30.0749 77.5 29.7999L87.45 19.8499L104.3 36.6999L94.675 46.3249C94.325 46.6749 94.1 47.1749 94.1 47.6749L93.825 56.2749C93.8 57.3749 94.65 58.2999 95.775 58.3249H95.825C96.9 58.3249 97.8 57.4749 97.825 56.3749L98.075 48.5749L107.15 39.4999L111.9 44.2499C112.675 45.0249 113.95 45.0249 114.725 44.2499L125.075 33.8999C125.85 33.1249 125.85 31.8499 125.05 31.0749C124.275 30.2999 123.025 30.2999 122.25 31.0749L113.325 39.9999L85.6 12.3499L94.525 3.42485C95.3 2.62485 95.275 1.37485 94.475 0.599854C93.7 -0.150147 92.475 -0.150147 91.7 0.599854L81.35 10.9499C80.575 11.7249 80.575 12.9999 81.35 13.7749L84.6 17.0249L75.125 26.4999L63.05 28.4249C62.6 28.4999 62.175 28.7249 61.875 29.0749L57.15 34.3499C56.4 35.1499 56.475 36.4249 57.3 37.1499Z" fill="#005DBD"/>
<path d="M54.9499 97.125L51.5499 97.675C51.1249 97.75 50.7499 97.95 50.4499 98.225L40.4999 108.175L23.6499 91.325L33.2749 81.6999C33.6249 81.3499 33.8499 80.85 33.8499 80.35L34.3499 64.125C34.3749 63.425 34.5499 62.725 34.8499 62.1C35.3499 61.1 34.9249 59.9 33.9499 59.425C32.9749 58.95 31.7499 59.35 31.2749 60.325C30.6999 61.475 30.3999 62.725 30.3499 64L29.8749 79.4499L20.7999 88.525L16.0499 83.775C15.2749 83 13.9999 83 13.2249 83.775L2.87491 94.125C2.09991 94.9 2.07491 96.1749 2.84991 96.95C3.62491 97.725 4.89991 97.75 5.67491 96.975C5.67491 96.975 5.67491 96.975 5.69991 96.95L14.6249 88.025L42.3249 115.725L33.3999 124.65C32.6249 125.425 32.6249 126.7 33.3999 127.475C34.1749 128.25 35.4499 128.25 36.2249 127.475L46.5749 117.125C47.3499 116.35 47.3499 115.075 46.5749 114.3L43.3249 111.05L52.7999 101.575L55.5499 101.125C56.6499 100.95 57.3749 99.9 57.1749 98.825C57.0249 97.6749 56.0249 96.95 54.9499 97.125Z" fill="#005DBD"/>
<path d="M127.425 94.0998C127.4 94.0748 127.4 94.0748 127.425 94.0998L117.075 83.7498C116.3 82.9748 115.025 82.9748 114.25 83.7498L111 86.9998L101.5 77.4998L99.5749 65.4248C99.4999 64.9998 99.3249 64.6248 99.0249 64.3248L74.0499 39.3248C71.4249 36.6998 67.0499 36.6248 64.4999 39.1498C63.8249 39.8498 63.2999 40.6748 62.9999 41.5998L62.2749 40.8748C59.6749 38.2748 55.4749 38.2748 52.8999 40.8748C52.2749 41.4998 51.7749 42.2498 51.4499 43.0748C48.5999 40.7748 44.4249 41.1998 42.1249 44.0248C41.1749 45.1748 40.6499 46.6248 40.6249 48.1248C38.8999 48.1248 37.2749 48.8248 36.0499 50.0248C33.4499 52.6248 33.4499 56.8248 36.0499 59.4248L50.3249 73.6998C49.4499 73.7748 48.5999 73.9498 47.7749 74.2498L43.9249 75.5998C41.9499 76.2998 40.8999 78.4498 41.5999 80.4248C41.7999 80.9748 42.0999 81.4498 42.4999 81.8748L57.9749 97.3248C59.5749 98.9248 61.7499 99.8748 63.9999 99.9248L79.4499 100.4L88.5249 109.475L83.7749 114.225C82.9999 115 82.9999 116.275 83.7749 117.05L94.1249 127.4C94.8999 128.175 96.1749 128.175 96.9499 127.4C97.7249 126.625 97.7249 125.35 96.9499 124.575L88.0249 115.65L115.725 87.9498L124.65 96.8748C125.425 97.6498 126.7 97.6748 127.475 96.8998C128.175 96.1498 128.2 94.8748 127.425 94.0998ZM91.2999 106.675L81.6749 97.0498C81.3249 96.6998 80.8249 96.4748 80.3249 96.4748L64.0749 95.9748C62.8249 95.9498 61.6249 95.4248 60.7499 94.5248L45.5249 79.2998L49.0499 78.0748C51.5749 77.1998 54.3749 77.8498 56.2749 79.7248L61.5749 85.0248C62.3499 85.7998 63.6249 85.7998 64.3999 85.0248C65.1749 84.2498 65.1749 82.9748 64.3999 82.1998L38.8249 56.6248C37.7999 55.5998 37.7999 53.9248 38.8249 52.8998C39.8249 51.8998 41.4749 51.8998 42.4749 52.9248L42.4999 52.9498L57.4749 67.9248C58.2499 68.6998 59.5249 68.6998 60.2999 67.9248C61.0749 67.1498 61.0749 65.8748 60.2999 65.0998L45.3249 50.1248C44.2999 49.0998 44.2999 47.4248 45.3249 46.3998C46.3499 45.3748 48.0249 45.3748 49.0499 46.3998L52.8749 50.2498L63.9749 61.4498C64.7499 62.2248 66.0249 62.2248 66.7999 61.4498C67.5749 60.6748 67.5749 59.3998 66.7999 58.6248L55.6499 47.4748C54.6249 46.4498 54.6249 44.7748 55.6499 43.7498C56.6749 42.7248 58.3499 42.7248 59.3749 43.7498L70.5249 54.8998C71.2999 55.6748 72.5749 55.6748 73.3499 54.8998C74.1249 54.1248 74.1249 52.8498 73.3499 52.0748L67.2999 46.0248C66.2249 44.9498 66.2749 43.0248 67.2749 42.0248C68.2749 41.0248 70.0999 41.0998 71.1749 42.1998L95.6999 66.7248L97.6249 78.7998C97.6999 79.2248 97.8999 79.5998 98.1749 79.8998L108.125 89.8498L91.2999 106.675Z" fill="#005DBD"/>
</svg>
