<svg width="288" height="186" viewBox="0 0 288 186" fill="none" xmlns="http://www.w3.org/2000/svg">
<path d="M23.0025 160.661H3.06355C1.86923 160.661 0.898193 161.59 0.898193 162.737C0.898193 163.882 1.86729 164.813 3.06355 164.813L23.0025 164.811C24.1968 164.811 25.1678 163.882 25.1678 162.735C25.1678 161.59 24.1969 160.661 23.0025 160.661Z" fill="#68B2FF"/>
<path d="M41.867 139.679H16.5382C15.3438 139.679 14.3728 140.608 14.3728 141.755C14.3728 142.9 15.3419 143.831 16.5382 143.831L41.867 143.829C43.0613 143.829 44.0323 142.9 44.0323 141.753C44.0323 140.608 43.0614 139.679 41.867 139.679Z" fill="#68B2FF"/>
<path d="M8.62984 139.679H2.16536C0.971042 139.679 0 140.608 0 141.755C0 142.9 0.969104 143.831 2.16536 143.831L8.62984 143.829C9.82415 143.829 10.7952 142.9 10.7952 141.753C10.7952 140.608 9.8242 139.679 8.62984 139.679Z" fill="#68B2FF"/>
<path d="M222.426 96.6167H215.962C214.767 96.6167 213.796 97.5458 213.796 98.6926C213.796 99.8376 214.765 100.769 215.962 100.769L222.426 100.767C223.62 100.767 224.591 99.8377 224.591 98.6908C224.591 97.5458 223.62 96.6167 222.426 96.6167Z" fill="#68B2FF"/>
<path d="M285.676 89.177L248.301 89.177C247.106 89.177 246.135 90.1061 246.135 91.2531C246.135 92.3981 247.104 93.3291 248.301 93.3291L285.676 93.3273C286.871 93.3273 287.842 92.3982 287.842 91.2513C287.842 90.1062 286.871 89.177 285.676 89.177Z" fill="#68B2FF"/>
<path d="M257.829 108.124L233.928 108.124C232.733 108.124 231.762 109.053 231.762 110.2C231.762 111.345 232.731 112.276 233.928 112.276L257.829 112.275C259.023 112.275 259.994 111.345 259.994 110.199C259.994 109.053 259.023 108.124 257.829 108.124Z" fill="#68B2FF"/>
<path d="M37.3753 181.706H12.0465C10.8521 181.706 9.8811 182.635 9.8811 183.781C9.8811 184.926 10.8502 185.857 12.0465 185.857H37.3753C38.5696 185.857 39.5406 184.928 39.5406 183.781C39.5406 182.635 38.5716 181.706 37.3753 181.706Z" fill="white"/>
<path d="M47.6914 185.859H236.205C237.4 185.859 238.371 184.93 238.371 183.783C238.371 182.638 237.402 181.707 236.205 181.707H208.989C212.114 179.083 214.248 175.411 214.789 171.263H232.115C233.31 171.263 234.281 170.334 234.281 169.187C234.281 168.042 233.312 167.111 232.115 167.111H231.593V159.203C231.593 159.185 231.604 159.169 231.604 159.149V149.242C231.604 149.224 231.593 149.208 231.593 149.188V144.056C231.593 139.51 228.78 135.456 224.416 133.721C219.479 131.792 215.37 130.498 203.436 131.024C199.213 126.005 181.262 105.176 172.191 102.888C172.011 102.842 171.823 102.819 171.638 102.819H149.275V74.6727C159.085 74.9068 167.304 76.4946 172.285 78.1896C171.655 83.1274 175.694 87.0488 180.441 87.0488C184.98 87.0488 188.669 83.4974 188.669 79.1331C188.669 78.0842 188.436 77.0661 188.033 76.117C195.773 71.8743 206.425 69.9142 219.994 72.6328C220.028 76.9699 223.714 80.4886 228.243 80.4886C232.795 80.4886 236.499 76.939 236.499 72.5729C236.499 68.7729 233.688 65.5938 229.958 64.8333C226.195 29.4084 194.86 6.43297 149.27 5.71289V2.23229C149.27 1.08723 148.301 0.15625 147.105 0.15625C145.911 0.15625 144.94 1.08538 144.94 2.23229V5.74193C98.7713 6.4424 68.0755 29.0082 64.2961 64.8344C60.5654 65.5948 57.7566 68.7723 57.7566 72.5722C57.7566 76.9365 61.4607 80.4879 66.0128 80.4879C70.5441 80.4879 74.2274 76.9692 74.2613 72.6321C78.361 71.8101 82.3489 71.3691 86.1347 71.3691C95.2694 71.3691 101.881 73.7554 106.185 76.1109C105.77 77.0654 105.53 78.0871 105.53 79.1323C105.53 83.4967 109.234 87.048 113.786 87.048C118.564 87.048 122.578 83.0848 121.948 78.1939C128.067 76.6641 132.654 74.9638 144.941 74.6807V102.823H116.585C116.4 102.823 116.213 102.847 116.033 102.892C106.883 105.208 96.5316 125.579 93.8496 131.16C72.5425 132.406 67.7406 133.475 59.1476 135.72C54.1301 137.03 50.6263 141.451 50.6263 146.467V149.232C50.6263 149.238 50.6244 149.241 50.6244 149.245V159.151C50.6244 159.157 50.6263 159.161 50.6263 159.164V167.112H49.5853C48.391 167.112 47.42 168.042 47.42 169.188C47.42 170.333 48.3891 171.264 49.5853 171.264H75.2534C75.7947 175.411 77.9297 179.084 81.0529 181.708H47.6908C46.4964 181.708 45.5254 182.637 45.5254 183.784C45.5254 184.929 46.4945 185.858 47.6908 185.858L47.6914 185.859ZM149.272 70.4799V9.98902C164.254 12.036 175.112 35.4439 177.832 71.6227C175.387 72.3994 174.185 74.0598 173.895 74.323C165.963 71.8441 157.25 70.65 149.272 70.4794V70.4799ZM180.439 82.8944C178.273 82.8944 176.511 81.2049 176.511 79.1289C176.511 74.1255 184.336 74.2129 184.336 79.1289C184.337 81.2049 182.59 82.8944 180.438 82.8944H180.439ZM232.169 72.5704C232.169 74.6464 230.407 76.3341 228.242 76.3341C226.076 76.3341 224.318 74.6464 224.318 72.5704C224.318 67.6581 232.169 67.5475 232.169 72.5704H232.169ZM225.652 65.0468C223.839 65.6202 222.115 66.9232 221.108 68.5873C208.784 66.0757 195.989 66.7653 185.382 72.7865C184.411 72.0879 183.056 71.5761 182.13 71.391C179.861 41.0727 172.063 19.6154 160.475 10.5332C191.63 13.8795 221.853 29.4679 225.652 65.0451L225.652 65.0468ZM66.0127 76.3343C63.8474 76.3343 62.0852 74.6466 62.0852 72.5706C62.0852 70.4945 63.8474 68.8051 66.1793 68.8051C68.1345 68.8849 69.9364 70.4637 69.9364 72.5706C69.9364 74.6466 68.1761 76.3343 66.0127 76.3343H66.0127ZM73.1467 68.5872C72.2401 67.0864 70.6085 65.6837 68.6022 65.0467C71.9164 34.6559 96.2801 14.5487 133.6 10.6231C122.079 19.7601 114.335 41.1756 112.094 71.3927C111.021 71.6068 109.768 72.124 108.844 72.7882C98.167 66.7252 85.3356 66.1026 73.1463 68.5889L73.1467 68.5872ZM113.786 82.8944C111.621 82.8944 109.859 81.2049 109.859 79.1289C109.859 78.2542 110.183 77.4012 110.775 76.7171C110.96 76.5048 111.163 76.3143 111.383 76.1491C112.09 75.6174 112.946 75.3379 114 75.3906C118.938 75.621 118.944 82.8942 113.786 82.8942L113.786 82.8944ZM120.341 74.3274C119.341 73.0897 117.765 72.0735 116.394 71.638C119.086 35.4275 129.951 12.0019 144.943 9.98573V70.4951C137.23 70.6802 128.109 71.8053 120.341 74.3278L120.341 74.3274ZM197.559 181.697C190.364 181.697 184.512 176.084 184.512 169.187C184.512 162.289 190.364 156.676 197.559 156.676C204.753 156.676 210.608 162.289 210.608 169.187C210.608 176.086 204.751 181.697 197.559 181.697ZM227.262 157.075H221.169C220.645 157.075 220.219 156.667 220.219 156.164V152.232C220.219 151.729 220.645 151.321 221.169 151.321H227.262V157.075ZM200.744 134.446C201.181 134.972 201.861 135.237 202.557 135.226C215.025 134.573 218.815 136.018 222.77 137.564C225.5 138.649 227.264 141.199 227.264 144.06V147.171H221.171C218.258 147.171 215.89 149.441 215.89 152.233V156.166C215.89 158.959 218.258 161.229 221.171 161.229H227.264V167.116H214.804C213.746 158.922 206.339 152.531 197.56 152.531C188.827 152.531 181.391 158.862 180.319 167.116L149.293 167.112V161.225H169.595C170.789 161.225 171.76 160.296 171.76 159.149C171.76 158.004 170.791 157.073 169.595 157.073H149.293V106.974H171.334C178.544 109.119 194.958 127.473 200.744 134.447L200.744 134.446ZM54.9577 151.321H61.0582C61.5825 151.321 62.0084 151.729 62.0084 152.232V156.164C62.0084 156.667 61.5825 157.075 61.0582 157.075H54.9577V151.321ZM54.9577 161.225H61.0582C63.9712 161.225 66.3388 158.955 66.3388 156.163V152.23C66.3388 149.437 63.971 147.167 61.0582 147.167H54.9577V146.465C54.9577 143.266 57.1004 140.556 60.2878 139.723C68.9738 137.455 73.3745 136.484 95.4118 135.225C96.2181 135.179 96.9317 134.704 97.261 133.996C101.684 124.462 110.855 108.853 116.895 106.972H144.961V157.075H124.659C123.465 157.075 122.494 158.004 122.494 159.151C122.494 160.296 123.463 161.227 124.659 161.227H144.961V167.114H109.727C108.656 158.851 101.204 152.529 92.4858 152.529C84.1215 152.529 76.5068 158.441 75.2901 166.908C75.2806 166.979 75.2522 167.044 75.2428 167.115H54.96L54.9577 161.225ZM79.4352 169.188C79.4352 162.291 85.2896 156.678 92.4841 156.678C99.6787 156.678 105.531 162.291 105.531 169.188C105.531 176.086 99.6787 181.699 92.4841 181.699C85.2915 181.697 79.4352 176.086 79.4352 169.188ZM109.712 171.265H180.33C180.871 175.411 183.005 179.084 186.13 181.708H103.911C107.034 179.082 109.168 175.411 109.709 171.265H109.712Z" fill="white"/>
<path d="M106.007 135.221H137.259C138.453 135.221 139.424 134.292 139.424 133.145V113.04C139.424 111.895 138.455 110.964 137.259 110.964H117.36C116.656 110.964 115.994 111.295 115.587 111.848C109.394 120.314 104.234 131.842 104.018 132.329C103.73 132.969 103.8 133.706 104.202 134.287C104.601 134.871 105.281 135.221 106.007 135.221L106.007 135.221ZM118.497 115.118H135.093V131.071H109.359C111.184 127.317 114.64 120.595 118.497 115.118Z" fill="white"/>
<path d="M156.928 135.221H189.35C189.372 135.223 189.395 135.223 189.406 135.221C190.605 135.221 191.572 134.292 191.572 133.145C191.572 132.474 191.242 131.877 190.726 131.498L172.743 111.679C172.334 111.228 171.736 110.966 171.111 110.966H156.928C155.734 110.966 154.763 111.895 154.763 113.042V133.147C154.763 134.292 155.732 135.221 156.928 135.221L156.928 135.221ZM159.094 115.118H170.125L184.597 131.071H159.094V115.118Z" fill="white"/>
<path d="M92.4833 177.873C97.4766 177.873 101.539 173.98 101.539 169.193C101.539 164.406 97.4767 160.513 92.4833 160.513C87.4899 160.513 83.4319 164.406 83.4319 169.193C83.43 173.98 87.49 177.873 92.4833 177.873ZM92.4833 164.663C95.0877 164.663 97.2077 166.694 97.2077 169.191C97.2077 171.688 95.0877 173.719 92.4833 173.719C89.8788 173.719 87.7608 171.688 87.7608 169.191C87.7608 166.696 89.8769 164.663 92.4833 164.663Z" fill="white"/>
<path d="M197.548 160.512C192.555 160.512 188.497 164.405 188.497 169.192C188.497 173.979 192.557 177.872 197.548 177.872C202.541 177.872 206.603 173.979 206.603 169.192C206.603 164.405 202.541 160.512 197.548 160.512ZM197.548 173.719C194.944 173.719 192.826 171.689 192.826 169.192C192.826 166.695 194.944 164.664 197.548 164.664C200.152 164.664 202.272 166.695 202.272 169.192C202.272 171.689 200.152 173.719 197.548 173.719Z" fill="white"/>
<path d="M82.6715 89.3238C73.5314 89.3238 67.3079 83.7764 67.2512 83.7234C66.4108 82.9558 65.0953 82.9577 64.2606 83.7216C64.1981 83.7779 58.0317 89.3238 48.8384 89.3238L48.0548 89.3093C47.4491 89.253 46.8964 89.4998 46.4762 89.89C46.0522 90.282 45.8137 90.8209 45.8137 91.3835V109.271C45.8137 119.003 55.0749 127.455 65.468 128.793C65.5645 128.806 65.6592 128.812 65.7557 128.812C65.8522 128.812 65.9507 128.804 66.0453 128.793C76.2775 127.472 85.6996 119.045 85.6996 109.26V91.3835C85.6996 90.8191 85.4592 90.2801 85.0371 89.89C84.615 89.4998 84.0358 89.2566 83.4585 89.3093L82.6715 89.3238ZM81.3693 109.26C81.3693 116.893 73.6276 123.513 65.7537 124.641C57.8153 123.505 50.142 116.872 50.142 109.271V93.443C57.6414 93.0874 63.219 89.7519 65.7518 87.9157C68.2824 89.7539 73.8583 93.0895 81.3688 93.443L81.3693 109.26Z" fill="#F4333F"/>
<path d="M59.8199 106.092C58.9738 105.283 57.6035 105.279 56.7593 106.092C55.9132 106.901 55.9132 108.217 56.7593 109.026L59.818 111.959C60.5202 112.632 61.4439 112.968 62.3657 112.968C63.2913 112.968 64.2149 112.632 64.919 111.957L74.7519 102.531C75.598 101.72 75.598 100.406 74.7519 99.597C73.9059 98.7858 72.5355 98.7858 71.6913 99.597L62.3696 108.535L59.8199 106.092Z" fill="#F4333F"/>
</svg>
