<?xml version="1.0" encoding="UTF-8" standalone="no"?>
<!DOCTYPE svg PUBLIC "-//W3C//DTD SVG 1.1//EN"
 "http://www.w3.org/Graphics/SVG/1.1/DTD/svg11.dtd">
<!-- Generated by graphviz version 2.40.1 (20161225.0304)
 -->
<!-- Title: dependencies Pages: 1 -->
<svg width="6839pt" height="428pt"
 viewBox="0.00 0.00 6839.00 428.00" xmlns="http://www.w3.org/2000/svg" xmlns:xlink="http://www.w3.org/1999/xlink">
<g id="graph0" class="graph" transform="scale(1 1) rotate(0) translate(4 424)">
<title>dependencies</title>
<polygon fill="#ffffff" stroke="transparent" points="-4,4 -4,-424 6835,-424 6835,4 -4,4"/>
<text text-anchor="start" x="3394.5091" y="-42.4" font-family="sans-serif" font-weight="bold" font-size="14.00" fill="#000000">Legend</text>
<polygon fill="#ffffb3" stroke="transparent" points="3181.5,-10 3181.5,-30 3201.5,-30 3201.5,-10 3181.5,-10"/>
<text text-anchor="start" x="3205.129" y="-15.4" font-family="sans-serif" font-size="14.00" fill="#000000"> &#160;Declarations</text>
<polygon fill="#8dd3c7" stroke="transparent" points="3294.5,-10 3294.5,-30 3314.5,-30 3314.5,-10 3294.5,-10"/>
<text text-anchor="start" x="3318.2251" y="-15.4" font-family="sans-serif" font-size="14.00" fill="#000000"> &#160;Module</text>
<polygon fill="#80b1d3" stroke="transparent" points="3380.5,-10 3380.5,-30 3400.5,-30 3400.5,-10 3380.5,-10"/>
<text text-anchor="start" x="3404.2812" y="-15.4" font-family="sans-serif" font-size="14.00" fill="#000000"> &#160;Bootstrap</text>
<polygon fill="#fdb462" stroke="transparent" points="3477.5,-10 3477.5,-30 3497.5,-30 3497.5,-10 3477.5,-10"/>
<text text-anchor="start" x="3501.1732" y="-15.4" font-family="sans-serif" font-size="14.00" fill="#000000"> &#160;Providers</text>
<polygon fill="#fb8072" stroke="transparent" points="3573.5,-10 3573.5,-30 3593.5,-30 3593.5,-10 3573.5,-10"/>
<text text-anchor="start" x="3597.2258" y="-15.4" font-family="sans-serif" font-size="14.00" fill="#000000"> &#160;Exports</text>
<g id="clust1" class="cluster">
<title>cluster_AppModule</title>
<polygon fill="none" stroke="#000000" stroke-dasharray="1,5" points="89,-146 89,-412 1805,-412 1805,-146 89,-146"/>
</g>
<g id="clust2" class="cluster">
<title>cluster_AppModule_declarations</title>
<polygon fill="none" stroke="#000000" points="1061,-222 1061,-274 1797,-274 1797,-222 1061,-222"/>
</g>
<g id="clust8" class="cluster">
<title>cluster_AppModule_imports</title>
<polygon fill="none" stroke="#000000" points="655,-154 655,-274 1053,-274 1053,-154 655,-154"/>
</g>
<g id="clust10" class="cluster">
<title>cluster_AppModule_bootstrap</title>
<polygon fill="none" stroke="#000000" points="829,-352 829,-404 953,-404 953,-352 829,-352"/>
</g>
<g id="clust11" class="cluster">
<title>cluster_AppModule_providers</title>
<polygon fill="none" stroke="#000000" points="97,-222 97,-274 613,-274 613,-222 97,-222"/>
</g>
<g id="clust18" class="cluster">
<title>cluster_QuotationRequestModule</title>
<polygon fill="none" stroke="#000000" stroke-dasharray="1,5" points="1813,-146 1813,-214 3397,-214 3397,-146 1813,-146"/>
</g>
<g id="clust19" class="cluster">
<title>cluster_QuotationRequestModule_declarations</title>
<polygon fill="none" stroke="#000000" points="1821,-154 1821,-206 3389,-206 3389,-154 1821,-154"/>
</g>
<g id="clust33" class="cluster">
<title>cluster_QuotesModule</title>
<polygon fill="none" stroke="#000000" stroke-dasharray="1,5" points="3405,-146 3405,-214 4132,-214 4132,-146 3405,-146"/>
</g>
<g id="clust34" class="cluster">
<title>cluster_QuotesModule_declarations</title>
<polygon fill="none" stroke="#000000" points="3413,-154 3413,-206 4124,-206 4124,-154 3413,-154"/>
</g>
<g id="clust43" class="cluster">
<title>cluster_SharedModule</title>
<polygon fill="none" stroke="#000000" stroke-dasharray="1,5" points="8,-70 8,-138 1752,-138 1752,-70 8,-70"/>
</g>
<g id="clust44" class="cluster">
<title>cluster_SharedModule_declarations</title>
<polygon fill="none" stroke="#000000" points="820,-78 820,-130 1744,-130 1744,-78 820,-78"/>
</g>
<g id="clust52" class="cluster">
<title>cluster_SharedModule_exports</title>
<polygon fill="none" stroke="#000000" points="16,-78 16,-130 812,-130 812,-78 16,-78"/>
</g>
<g id="clust55" class="cluster">
<title>cluster_UserModule</title>
<polygon fill="none" stroke="#000000" stroke-dasharray="1,5" points="4140,-146 4140,-214 6823,-214 6823,-146 4140,-146"/>
</g>
<g id="clust56" class="cluster">
<title>cluster_UserModule_declarations</title>
<polygon fill="none" stroke="#000000" points="4148,-154 4148,-206 6815,-206 6815,-154 4148,-154"/>
</g>
<!-- AppComponent -->
<g id="node1" class="node">
<title>AppComponent</title>
<polygon fill="#ffffb3" stroke="#000000" points="1596.9399,-266 1491.0601,-266 1491.0601,-230 1596.9399,-230 1596.9399,-266"/>
<text text-anchor="middle" x="1544" y="-243.8" font-family="Times,serif" font-size="14.00" fill="#000000">AppComponent</text>
</g>
<!-- AppModule -->
<g id="node6" class="node">
<title>AppModule</title>
<polygon fill="#8dd3c7" stroke="#000000" points="932.6571,-331 929.6571,-335 908.6571,-335 905.6571,-331 849.3429,-331 849.3429,-295 932.6571,-295 932.6571,-331"/>
<text text-anchor="middle" x="891" y="-308.8" font-family="Times,serif" font-size="14.00" fill="#000000">AppModule</text>
</g>
<!-- AppComponent&#45;&gt;AppModule -->
<g id="edge1" class="edge">
<title>AppComponent&#45;&gt;AppModule</title>
<path fill="none" stroke="#000000" d="M1544,-266.2921C1544,-288.2057 1544,-322 1544,-322 1544,-322 942.8414,-322 942.8414,-322"/>
<polygon fill="#000000" stroke="#000000" points="942.8415,-318.5001 932.8414,-322 942.8414,-325.5001 942.8415,-318.5001"/>
</g>
<!-- FooterComponent -->
<g id="node2" class="node">
<title>FooterComponent</title>
<polygon fill="#ffffb3" stroke="#000000" points="1472.8809,-266 1355.1191,-266 1355.1191,-230 1472.8809,-230 1472.8809,-266"/>
<text text-anchor="middle" x="1414" y="-243.8" font-family="Times,serif" font-size="14.00" fill="#000000">FooterComponent</text>
</g>
<!-- FooterComponent&#45;&gt;AppModule -->
<g id="edge2" class="edge">
<title>FooterComponent&#45;&gt;AppModule</title>
<path fill="none" stroke="#000000" d="M1414,-266.0267C1414,-286.7672 1414,-318 1414,-318 1414,-318 942.9152,-318 942.9152,-318"/>
<polygon fill="#000000" stroke="#000000" points="942.9152,-314.5001 932.9152,-318 942.9152,-321.5001 942.9152,-314.5001"/>
</g>
<!-- HeaderComponent -->
<g id="node3" class="node">
<title>HeaderComponent</title>
<polygon fill="#ffffb3" stroke="#000000" points="1336.7437,-266 1215.2563,-266 1215.2563,-230 1336.7437,-230 1336.7437,-266"/>
<text text-anchor="middle" x="1276" y="-243.8" font-family="Times,serif" font-size="14.00" fill="#000000">HeaderComponent</text>
</g>
<!-- HeaderComponent&#45;&gt;AppModule -->
<g id="edge3" class="edge">
<title>HeaderComponent&#45;&gt;AppModule</title>
<path fill="none" stroke="#000000" d="M1276,-266.1061C1276,-285.3391 1276,-313 1276,-313 1276,-313 942.9346,-313 942.9346,-313"/>
<polygon fill="#000000" stroke="#000000" points="942.9347,-309.5001 932.9346,-313 942.9346,-316.5001 942.9347,-309.5001"/>
</g>
<!-- LandingComponent -->
<g id="node4" class="node">
<title>LandingComponent</title>
<polygon fill="#ffffb3" stroke="#000000" points="1196.9902,-266 1069.0098,-266 1069.0098,-230 1196.9902,-230 1196.9902,-266"/>
<text text-anchor="middle" x="1133" y="-243.8" font-family="Times,serif" font-size="14.00" fill="#000000">LandingComponent</text>
</g>
<!-- LandingComponent&#45;&gt;AppModule -->
<g id="edge4" class="edge">
<title>LandingComponent&#45;&gt;AppModule</title>
<path fill="none" stroke="#000000" d="M1133,-266.302C1133,-284.2699 1133,-309 1133,-309 1133,-309 942.8769,-309 942.8769,-309"/>
<polygon fill="#000000" stroke="#000000" points="942.8769,-305.5001 932.8769,-309 942.8769,-312.5001 942.8769,-305.5001"/>
</g>
<!-- PaymentSuccessComponent -->
<g id="node5" class="node">
<title>PaymentSuccessComponent</title>
<polygon fill="#ffffb3" stroke="#000000" points="1789.1414,-266 1614.8586,-266 1614.8586,-230 1789.1414,-230 1789.1414,-266"/>
<text text-anchor="middle" x="1702" y="-243.8" font-family="Times,serif" font-size="14.00" fill="#000000">PaymentSuccessComponent</text>
</g>
<!-- PaymentSuccessComponent&#45;&gt;AppModule -->
<g id="edge5" class="edge">
<title>PaymentSuccessComponent&#45;&gt;AppModule</title>
<path fill="none" stroke="#000000" d="M1702,-266.3228C1702,-289.6602 1702,-327 1702,-327 1702,-327 942.8951,-327 942.8951,-327"/>
<polygon fill="#000000" stroke="#000000" points="942.8952,-323.5001 932.8951,-327 942.8951,-330.5001 942.8952,-323.5001"/>
</g>
<!-- AppComponent  -->
<g id="node12" class="node">
<title>AppComponent </title>
<polygon fill="#80b1d3" stroke="#000000" points="945.439,-396 836.561,-396 836.561,-360 945.439,-360 945.439,-396"/>
<text text-anchor="middle" x="891" y="-373.8" font-family="Times,serif" font-size="14.00" fill="#000000">AppComponent </text>
</g>
<!-- AppModule&#45;&gt;AppComponent  -->
<g id="edge11" class="edge">
<title>AppModule&#45;&gt;AppComponent </title>
<path fill="none" stroke="#000000" stroke-dasharray="1,5" d="M891,-331.1061C891,-331.1061 891,-349.991 891,-349.991"/>
<polygon fill="#000000" stroke="#000000" points="887.5001,-349.9909 891,-359.991 894.5001,-349.991 887.5001,-349.9909"/>
</g>
<!-- AppRoutingModule -->
<g id="node7" class="node">
<title>AppRoutingModule</title>
<polygon fill="#8dd3c7" stroke="#000000" points="807.2744,-198 804.2744,-202 783.2744,-202 780.2744,-198 678.7256,-198 678.7256,-162 807.2744,-162 807.2744,-198"/>
<text text-anchor="middle" x="743" y="-175.8" font-family="Times,serif" font-size="14.00" fill="#000000">AppRoutingModule</text>
</g>
<!-- AppRoutingModule&#45;&gt;AppModule -->
<g id="edge6" class="edge">
<title>AppRoutingModule&#45;&gt;AppModule</title>
<path fill="none" stroke="#000000" d="M678.5067,-180C659.3561,-180 643.3869,-180 643.3869,-180 643.3869,-180 643.3869,-307 643.3869,-307 643.3869,-307 839.2758,-307 839.2758,-307"/>
<polygon fill="#000000" stroke="#000000" points="839.2758,-310.5001 849.2758,-307 839.2758,-303.5001 839.2758,-310.5001"/>
</g>
<!-- UserModule -->
<g id="node11" class="node">
<title>UserModule</title>
<polygon fill="#8dd3c7" stroke="#000000" points="1044.9762,-266 1041.9762,-270 1020.9762,-270 1017.9762,-266 959.0238,-266 959.0238,-230 1044.9762,-230 1044.9762,-266"/>
<text text-anchor="middle" x="1002" y="-243.8" font-family="Times,serif" font-size="14.00" fill="#000000">UserModule</text>
</g>
<!-- AppRoutingModule&#45;&gt;UserModule -->
<g id="edge56" class="edge">
<title>AppRoutingModule&#45;&gt;UserModule</title>
<path fill="none" stroke="#000000" d="M785.9247,-198.1467C785.9247,-211.7395 785.9247,-228 785.9247,-228 785.9247,-228 973.3413,-228 973.3413,-228 973.3413,-228 973.3413,-228.1846 973.3413,-228.1846"/>
<polygon fill="#000000" stroke="#000000" points="969.8419,-219.8455 973.3413,-229.8457 976.8419,-219.8459 969.8419,-219.8455"/>
</g>
<!-- QuotationRequestModule -->
<g id="node8" class="node">
<title>QuotationRequestModule</title>
<polygon fill="#8dd3c7" stroke="#000000" points="823.1442,-266 820.1442,-270 799.1442,-270 796.1442,-266 662.8558,-266 662.8558,-230 823.1442,-230 823.1442,-266"/>
<text text-anchor="middle" x="743" y="-243.8" font-family="Times,serif" font-size="14.00" fill="#000000">QuotationRequestModule</text>
</g>
<!-- QuotationRequestModule&#45;&gt;AppModule -->
<g id="edge7" class="edge">
<title>QuotationRequestModule&#45;&gt;AppModule</title>
<path fill="none" stroke="#000000" d="M743,-266.2396C743,-281.5706 743,-301 743,-301 743,-301 838.985,-301 838.985,-301"/>
<polygon fill="#000000" stroke="#000000" points="838.9851,-304.5001 848.985,-301 838.985,-297.5001 838.9851,-304.5001"/>
</g>
<!-- QuotesModule -->
<g id="node9" class="node">
<title>QuotesModule</title>
<polygon fill="#8dd3c7" stroke="#000000" points="940.7064,-266 937.7064,-270 916.7064,-270 913.7064,-266 841.2936,-266 841.2936,-230 940.7064,-230 940.7064,-266"/>
<text text-anchor="middle" x="891" y="-243.8" font-family="Times,serif" font-size="14.00" fill="#000000">QuotesModule</text>
</g>
<!-- QuotesModule&#45;&gt;AppModule -->
<g id="edge8" class="edge">
<title>QuotesModule&#45;&gt;AppModule</title>
<path fill="none" stroke="#000000" d="M891,-266.1061C891,-266.1061 891,-284.991 891,-284.991"/>
<polygon fill="#000000" stroke="#000000" points="887.5001,-284.9909 891,-294.991 894.5001,-284.991 887.5001,-284.9909"/>
</g>
<!-- SharedModule -->
<g id="node10" class="node">
<title>SharedModule</title>
<polygon fill="#8dd3c7" stroke="#000000" points="932.4231,-198 929.4231,-202 908.4231,-202 905.4231,-198 833.5769,-198 833.5769,-162 932.4231,-162 932.4231,-198"/>
<text text-anchor="middle" x="883" y="-175.8" font-family="Times,serif" font-size="14.00" fill="#000000">SharedModule</text>
</g>
<!-- SharedModule&#45;&gt;AppModule -->
<g id="edge9" class="edge">
<title>SharedModule&#45;&gt;AppModule</title>
<path fill="none" stroke="#000000" d="M932.2718,-194C942.7866,-194 950.7979,-194 950.7979,-194 950.7979,-194 950.7979,-300 950.7979,-300 950.7979,-300 942.8565,-300 942.8565,-300"/>
<polygon fill="#000000" stroke="#000000" points="942.8566,-296.5001 932.8565,-300 942.8565,-303.5001 942.8566,-296.5001"/>
</g>
<!-- SharedModule&#45;&gt;QuotationRequestModule -->
<g id="edge24" class="edge">
<title>SharedModule&#45;&gt;QuotationRequestModule</title>
<path fill="none" stroke="#000000" d="M833.6421,-186C821.2349,-186 811.3708,-186 811.3708,-186 811.3708,-186 811.3708,-219.7333 811.3708,-219.7333"/>
<polygon fill="#000000" stroke="#000000" points="807.8709,-219.7333 811.3708,-229.7333 814.8709,-219.7333 807.8709,-219.7333"/>
</g>
<!-- SharedModule&#45;&gt;QuotesModule -->
<g id="edge29" class="edge">
<title>SharedModule&#45;&gt;QuotesModule</title>
<path fill="none" stroke="#000000" d="M856.5326,-198.2228C856.5326,-198.2228 856.5326,-219.7269 856.5326,-219.7269"/>
<polygon fill="#000000" stroke="#000000" points="853.0327,-219.7269 856.5326,-229.7269 860.0327,-219.727 853.0327,-219.7269"/>
</g>
<!-- SharedModule&#45;&gt;UserModule -->
<g id="edge57" class="edge">
<title>SharedModule&#45;&gt;UserModule</title>
<path fill="none" stroke="#000000" d="M932.4329,-189C965.128,-189 1002,-189 1002,-189 1002,-189 1002,-219.9775 1002,-219.9775"/>
<polygon fill="#000000" stroke="#000000" points="998.5001,-219.9774 1002,-229.9775 1005.5001,-219.9775 998.5001,-219.9774"/>
</g>
<!-- AuthenticationPageComponent  -->
<g id="node35" class="node">
<title>AuthenticationPageComponent </title>
<polygon fill="#fb8072" stroke="#000000" points="501.7478,-122 306.2522,-122 306.2522,-86 501.7478,-86 501.7478,-122"/>
<text text-anchor="middle" x="404" y="-99.8" font-family="Times,serif" font-size="14.00" fill="#000000">AuthenticationPageComponent </text>
</g>
<!-- SharedModule&#45;&gt;AuthenticationPageComponent  -->
<g id="edge36" class="edge">
<title>SharedModule&#45;&gt;AuthenticationPageComponent </title>
<path fill="none" stroke="#000000" stroke-dasharray="5,2" d="M883,-161.68C883,-153.2117 883,-145 883,-145 883,-145 486.4097,-145 486.4097,-145 486.4097,-145 486.4097,-132.1025 486.4097,-132.1025"/>
<polygon fill="#000000" stroke="#000000" points="489.9098,-132.1025 486.4097,-122.1025 482.9098,-132.1026 489.9098,-132.1025"/>
</g>
<!-- ErrorComponent  -->
<g id="node36" class="node">
<title>ErrorComponent </title>
<polygon fill="#fb8072" stroke="#000000" points="288.3674,-122 173.6326,-122 173.6326,-86 288.3674,-86 288.3674,-122"/>
<text text-anchor="middle" x="231" y="-99.8" font-family="Times,serif" font-size="14.00" fill="#000000">ErrorComponent </text>
</g>
<!-- SharedModule&#45;&gt;ErrorComponent  -->
<g id="edge37" class="edge">
<title>SharedModule&#45;&gt;ErrorComponent </title>
<path fill="none" stroke="#000000" stroke-dasharray="5,2" d="M866.5963,-161.7985C866.5963,-155.972 866.5963,-151 866.5963,-151 866.5963,-151 279.3581,-151 279.3581,-151 279.3581,-151 279.3581,-132.037 279.3581,-132.037"/>
<polygon fill="#000000" stroke="#000000" points="282.8582,-132.037 279.3581,-122.037 275.8582,-132.037 282.8582,-132.037"/>
</g>
<!-- LoadingComponent  -->
<g id="node37" class="node">
<title>LoadingComponent </title>
<polygon fill="#fb8072" stroke="#000000" points="155.9911,-122 24.0089,-122 24.0089,-86 155.9911,-86 155.9911,-122"/>
<text text-anchor="middle" x="90" y="-99.8" font-family="Times,serif" font-size="14.00" fill="#000000">LoadingComponent </text>
</g>
<!-- SharedModule&#45;&gt;LoadingComponent  -->
<g id="edge38" class="edge">
<title>SharedModule&#45;&gt;LoadingComponent </title>
<path fill="none" stroke="#000000" stroke-dasharray="5,2" d="M850.1926,-161.8777C850.1926,-159.0271 850.1926,-157 850.1926,-157 850.1926,-157 130.4895,-157 130.4895,-157 130.4895,-157 130.4895,-132.2396 130.4895,-132.2396"/>
<polygon fill="#000000" stroke="#000000" points="133.9896,-132.2396 130.4895,-122.2396 126.9896,-132.2396 133.9896,-132.2396"/>
</g>
<!-- QuoteComponent  -->
<g id="node38" class="node">
<title>QuoteComponent </title>
<polygon fill="#fb8072" stroke="#000000" points="803.5442,-122 684.4558,-122 684.4558,-86 803.5442,-86 803.5442,-122"/>
<text text-anchor="middle" x="744" y="-99.8" font-family="Times,serif" font-size="14.00" fill="#000000">QuoteComponent </text>
</g>
<!-- SharedModule&#45;&gt;QuoteComponent  -->
<g id="edge39" class="edge">
<title>SharedModule&#45;&gt;QuoteComponent </title>
<path fill="none" stroke="#000000" stroke-dasharray="5,2" d="M833.4852,-174C820.1678,-174 809.3789,-174 809.3789,-174 809.3789,-174 809.3789,-104 809.3789,-104 809.3789,-104 808.8215,-104 808.8215,-104"/>
<polygon fill="#000000" stroke="#000000" points="813.8048,-100.5002 803.8048,-104 813.8047,-107.5002 813.8048,-100.5002"/>
</g>
<!-- QuotesListComponent  -->
<g id="node39" class="node">
<title>QuotesListComponent </title>
<polygon fill="#fb8072" stroke="#000000" points="666.2674,-122 519.7326,-122 519.7326,-86 666.2674,-86 666.2674,-122"/>
<text text-anchor="middle" x="593" y="-99.8" font-family="Times,serif" font-size="14.00" fill="#000000">QuotesListComponent </text>
</g>
<!-- SharedModule&#45;&gt;QuotesListComponent  -->
<g id="edge40" class="edge">
<title>SharedModule&#45;&gt;QuotesListComponent </title>
<path fill="none" stroke="#000000" stroke-dasharray="5,2" d="M899.4037,-161.8726C899.4037,-151.2891 899.4037,-140 899.4037,-140 899.4037,-140 624.0956,-140 624.0956,-140 624.0956,-140 624.0956,-132.4218 624.0956,-132.4218"/>
<polygon fill="#000000" stroke="#000000" points="627.5957,-132.4218 624.0956,-122.4218 620.5957,-132.4219 627.5957,-132.4218"/>
</g>
<!-- UserModule&#45;&gt;AppModule -->
<g id="edge10" class="edge">
<title>UserModule&#45;&gt;AppModule</title>
<path fill="none" stroke="#000000" d="M1039.2564,-266.027C1039.2564,-282.3976 1039.2564,-304 1039.2564,-304 1039.2564,-304 942.6922,-304 942.6922,-304"/>
<polygon fill="#000000" stroke="#000000" points="942.6922,-300.5001 932.6922,-304 942.6922,-307.5001 942.6922,-300.5001"/>
</g>
<!-- ErrorInterceptor -->
<g id="node13" class="node">
<title>ErrorInterceptor</title>
<ellipse fill="#fdb462" stroke="#000000" cx="179" cy="-248" rx="73.5329" ry="18"/>
<text text-anchor="middle" x="179" y="-243.8" font-family="Times,serif" font-size="14.00" fill="#000000">ErrorInterceptor</text>
</g>
<!-- ErrorInterceptor&#45;&gt;AppModule -->
<g id="edge12" class="edge">
<title>ErrorInterceptor&#45;&gt;AppModule</title>
<path fill="none" stroke="#000000" d="M179,-266.2479C179,-289.0179 179,-325 179,-325 179,-325 839.1193,-325 839.1193,-325"/>
<polygon fill="#000000" stroke="#000000" points="839.1193,-328.5001 849.1193,-325 839.1193,-321.5001 839.1193,-328.5001"/>
</g>
<!-- JwtInterceptor -->
<g id="node14" class="node">
<title>JwtInterceptor</title>
<ellipse fill="#fdb462" stroke="#000000" cx="538" cy="-248" rx="66.6094" ry="18"/>
<text text-anchor="middle" x="538" y="-243.8" font-family="Times,serif" font-size="14.00" fill="#000000">JwtInterceptor</text>
</g>
<!-- JwtInterceptor&#45;&gt;AppModule -->
<g id="edge13" class="edge">
<title>JwtInterceptor&#45;&gt;AppModule</title>
<path fill="none" stroke="#000000" d="M538,-266.1061C538,-285.3391 538,-313 538,-313 538,-313 839.1201,-313 839.1201,-313"/>
<polygon fill="#000000" stroke="#000000" points="839.1201,-316.5001 849.1201,-313 839.12,-309.5001 839.1201,-316.5001"/>
</g>
<!-- LanguageInterceptor -->
<g id="node15" class="node">
<title>LanguageInterceptor</title>
<ellipse fill="#fdb462" stroke="#000000" cx="362" cy="-248" rx="91.4345" ry="18"/>
<text text-anchor="middle" x="362" y="-243.8" font-family="Times,serif" font-size="14.00" fill="#000000">LanguageInterceptor</text>
</g>
<!-- LanguageInterceptor&#45;&gt;AppModule -->
<g id="edge14" class="edge">
<title>LanguageInterceptor&#45;&gt;AppModule</title>
<path fill="none" stroke="#000000" d="M362,-266.2843C362,-287.3211 362,-319 362,-319 362,-319 839.0481,-319 839.0481,-319"/>
<polygon fill="#000000" stroke="#000000" points="839.0481,-322.5001 849.0481,-319 839.0481,-315.5001 839.0481,-322.5001"/>
</g>
<!-- AdditionalDriverComponent -->
<g id="node16" class="node">
<title>AdditionalDriverComponent</title>
<polygon fill="#ffffb3" stroke="#000000" points="2322.7492,-198 2145.2508,-198 2145.2508,-162 2322.7492,-162 2322.7492,-198"/>
<text text-anchor="middle" x="2234" y="-175.8" font-family="Times,serif" font-size="14.00" fill="#000000">AdditionalDriverComponent</text>
</g>
<!-- AdditionalDriverComponent&#45;&gt;QuotationRequestModule -->
<g id="edge15" class="edge">
<title>AdditionalDriverComponent&#45;&gt;QuotationRequestModule</title>
<path fill="none" stroke="#000000" d="M2234,-198.0449C2234,-205.749 2234,-213 2234,-213 2234,-213 817.3464,-213 817.3464,-213 817.3464,-213 817.3464,-219.68 817.3464,-219.68"/>
<polygon fill="#000000" stroke="#000000" points="813.8464,-219.6799 817.3464,-229.68 820.8464,-219.68 813.8464,-219.6799"/>
</g>
<!-- DriverInfoComponent -->
<g id="node17" class="node">
<title>DriverInfoComponent</title>
<polygon fill="#ffffb3" stroke="#000000" points="2127.6867,-198 1986.3133,-198 1986.3133,-162 2127.6867,-162 2127.6867,-198"/>
<text text-anchor="middle" x="2057" y="-175.8" font-family="Times,serif" font-size="14.00" fill="#000000">DriverInfoComponent</text>
</g>
<!-- DriverInfoComponent&#45;&gt;QuotationRequestModule -->
<g id="edge16" class="edge">
<title>DriverInfoComponent&#45;&gt;QuotationRequestModule</title>
<path fill="none" stroke="#000000" d="M2057,-198.0328C2057,-204.8526 2057,-211 2057,-211 2057,-211 815.3545,-211 815.3545,-211 815.3545,-211 815.3545,-219.9336 815.3545,-219.9336"/>
<polygon fill="#000000" stroke="#000000" points="811.8546,-219.9335 815.3545,-229.9336 818.8546,-219.9336 811.8546,-219.9335"/>
</g>
<!-- DriverListComponent -->
<g id="node18" class="node">
<title>DriverListComponent</title>
<polygon fill="#ffffb3" stroke="#000000" points="1968.6443,-198 1829.3557,-198 1829.3557,-162 1968.6443,-162 1968.6443,-198"/>
<text text-anchor="middle" x="1899" y="-175.8" font-family="Times,serif" font-size="14.00" fill="#000000">DriverListComponent</text>
</g>
<!-- DriverListComponent&#45;&gt;QuotationRequestModule -->
<g id="edge17" class="edge">
<title>DriverListComponent&#45;&gt;QuotationRequestModule</title>
<path fill="none" stroke="#000000" d="M1899,-198.2015C1899,-204.028 1899,-209 1899,-209 1899,-209 813.3626,-209 813.3626,-209 813.3626,-209 813.3626,-219.8701 813.3626,-219.8701"/>
<polygon fill="#000000" stroke="#000000" points="809.8627,-219.8701 813.3626,-229.8701 816.8627,-219.8701 809.8627,-219.8701"/>
</g>
<!-- DriversComponent -->
<g id="node19" class="node">
<title>DriversComponent</title>
<polygon fill="#ffffb3" stroke="#000000" points="3380.8104,-198 3257.1896,-198 3257.1896,-162 3380.8104,-162 3380.8104,-198"/>
<text text-anchor="middle" x="3319" y="-175.8" font-family="Times,serif" font-size="14.00" fill="#000000">DriversComponent</text>
</g>
<!-- DriversComponent&#45;&gt;QuotationRequestModule -->
<g id="edge18" class="edge">
<title>DriversComponent&#45;&gt;QuotationRequestModule</title>
<path fill="none" stroke="#000000" d="M3319,-198.1592C3319,-203.0433 3319,-207 3319,-207 3319,-207 764.4624,-207 764.4624,-207 764.4624,-207 764.4624,-219.8975 764.4624,-219.8975"/>
<polygon fill="#000000" stroke="#000000" points="760.9625,-219.8974 764.4624,-229.8975 767.9625,-219.8975 760.9625,-219.8974"/>
</g>
<!-- InsuranceInfoComponent -->
<g id="node20" class="node">
<title>InsuranceInfoComponent</title>
<polygon fill="#ffffb3" stroke="#000000" points="3239.5632,-198 3080.4368,-198 3080.4368,-162 3239.5632,-162 3239.5632,-198"/>
<text text-anchor="middle" x="3160" y="-175.8" font-family="Times,serif" font-size="14.00" fill="#000000">InsuranceInfoComponent</text>
</g>
<!-- InsuranceInfoComponent&#45;&gt;QuotationRequestModule -->
<g id="edge19" class="edge">
<title>InsuranceInfoComponent&#45;&gt;QuotationRequestModule</title>
<path fill="none" stroke="#000000" d="M3160,-198.1686C3160,-202.0459 3160,-205 3160,-205 3160,-205 743,-205 743,-205 743,-205 743,-219.5146 743,-219.5146"/>
<polygon fill="#000000" stroke="#000000" points="739.5001,-219.5145 743,-229.5146 746.5001,-219.5146 739.5001,-219.5145"/>
</g>
<!-- MoreDetailsComponent -->
<g id="node21" class="node">
<title>MoreDetailsComponent</title>
<polygon fill="#ffffb3" stroke="#000000" points="3062.8047,-198 2911.1953,-198 2911.1953,-162 3062.8047,-162 3062.8047,-198"/>
<text text-anchor="middle" x="2987" y="-175.8" font-family="Times,serif" font-size="14.00" fill="#000000">MoreDetailsComponent</text>
</g>
<!-- MoreDetailsComponent&#45;&gt;QuotationRequestModule -->
<g id="edge20" class="edge">
<title>MoreDetailsComponent&#45;&gt;QuotationRequestModule</title>
<path fill="none" stroke="#000000" d="M2987,-198.1223C2987,-200.9729 2987,-203 2987,-203 2987,-203 721.5376,-203 721.5376,-203 721.5376,-203 721.5376,-219.9561 721.5376,-219.9561"/>
<polygon fill="#000000" stroke="#000000" points="718.0377,-219.956 721.5376,-229.9561 725.0377,-219.9561 718.0377,-219.956"/>
</g>
<!-- NumberCommaDirective -->
<g id="node22" class="node">
<title>NumberCommaDirective</title>
<polygon fill="#ffffb3" stroke="#000000" points="2893.2879,-198 2734.7121,-198 2734.7121,-162 2893.2879,-162 2893.2879,-198"/>
<text text-anchor="middle" x="2814" y="-175.8" font-family="Times,serif" font-size="14.00" fill="#000000">NumberCommaDirective</text>
</g>
<!-- NumberCommaDirective&#45;&gt;QuotationRequestModule -->
<g id="edge21" class="edge">
<title>NumberCommaDirective&#45;&gt;QuotationRequestModule</title>
<path fill="none" stroke="#000000" d="M2814,-198.08C2814,-199.8464 2814,-201 2814,-201 2814,-201 700.0753,-201 700.0753,-201 700.0753,-201 700.0753,-219.963 700.0753,-219.963"/>
<polygon fill="#000000" stroke="#000000" points="696.5754,-219.963 700.0753,-229.963 703.5754,-219.963 696.5754,-219.963"/>
</g>
<!-- QuotationRequestPageComponent -->
<g id="node23" class="node">
<title>QuotationRequestPageComponent</title>
<polygon fill="#ffffb3" stroke="#000000" points="2716.6385,-198 2507.3615,-198 2507.3615,-162 2716.6385,-162 2716.6385,-198"/>
<text text-anchor="middle" x="2612" y="-175.8" font-family="Times,serif" font-size="14.00" fill="#000000">QuotationRequestPageComponent</text>
</g>
<!-- QuotationRequestPageComponent&#45;&gt;QuotationRequestModule -->
<g id="edge22" class="edge">
<title>QuotationRequestPageComponent&#45;&gt;QuotationRequestModule</title>
<path fill="none" stroke="#000000" d="M2612,-198.1097C2612,-207.897 2612,-218 2612,-218 2612,-218 821.3301,-218 821.3301,-218 821.3301,-218 821.3301,-219.8568 821.3301,-219.8568"/>
<polygon fill="#000000" stroke="#000000" points="817.8301,-219.8568 821.3301,-229.8568 824.8301,-219.8568 817.8301,-219.8568"/>
</g>
<!-- VehicleInfoComponent -->
<g id="node24" class="node">
<title>VehicleInfoComponent</title>
<polygon fill="#ffffb3" stroke="#000000" points="2489.1853,-198 2340.8147,-198 2340.8147,-162 2489.1853,-162 2489.1853,-198"/>
<text text-anchor="middle" x="2415" y="-175.8" font-family="Times,serif" font-size="14.00" fill="#000000">VehicleInfoComponent</text>
</g>
<!-- VehicleInfoComponent&#45;&gt;QuotationRequestModule -->
<g id="edge23" class="edge">
<title>VehicleInfoComponent&#45;&gt;QuotationRequestModule</title>
<path fill="none" stroke="#000000" d="M2415,-198.4218C2415,-207.2791 2415,-216 2415,-216 2415,-216 819.3382,-216 819.3382,-216 819.3382,-216 819.3382,-219.7566 819.3382,-219.7566"/>
<polygon fill="#000000" stroke="#000000" points="815.8383,-219.7566 819.3382,-229.7566 822.8383,-219.7566 815.8383,-219.7566"/>
</g>
<!-- OrderReviewComponent -->
<g id="node25" class="node">
<title>OrderReviewComponent</title>
<polygon fill="#ffffb3" stroke="#000000" points="4116.238,-198 3959.762,-198 3959.762,-162 4116.238,-162 4116.238,-198"/>
<text text-anchor="middle" x="4038" y="-175.8" font-family="Times,serif" font-size="14.00" fill="#000000">OrderReviewComponent</text>
</g>
<!-- OrderReviewComponent&#45;&gt;QuotesModule -->
<g id="edge25" class="edge">
<title>OrderReviewComponent&#45;&gt;QuotesModule</title>
<path fill="none" stroke="#000000" d="M4038,-198.1804C4038,-211.0382 4038,-226 4038,-226 4038,-226 917.0754,-226 917.0754,-226 917.0754,-226 917.0754,-226.3832 917.0754,-226.3832"/>
<polygon fill="#000000" stroke="#000000" points="913.5757,-219.832 917.0754,-229.8321 920.5757,-219.8322 913.5757,-219.832"/>
</g>
<!-- QuotesFiltersComponent -->
<g id="node26" class="node">
<title>QuotesFiltersComponent</title>
<polygon fill="#ffffb3" stroke="#000000" points="3941.2632,-198 3784.7368,-198 3784.7368,-162 3941.2632,-162 3941.2632,-198"/>
<text text-anchor="middle" x="3863" y="-175.8" font-family="Times,serif" font-size="14.00" fill="#000000">QuotesFiltersComponent</text>
</g>
<!-- QuotesFiltersComponent&#45;&gt;QuotesModule -->
<g id="edge26" class="edge">
<title>QuotesFiltersComponent&#45;&gt;QuotesModule</title>
<path fill="none" stroke="#000000" d="M3863,-198.1505C3863,-210.2708 3863,-224 3863,-224 3863,-224 901.9397,-224 901.9397,-224 901.9397,-224 901.9397,-224.581 901.9397,-224.581"/>
<polygon fill="#000000" stroke="#000000" points="898.4399,-219.8097 901.9397,-229.8097 905.4399,-219.8098 898.4399,-219.8097"/>
</g>
<!-- QuotesOrderDataComponent -->
<g id="node27" class="node">
<title>QuotesOrderDataComponent</title>
<polygon fill="#ffffb3" stroke="#000000" points="3767.0576,-198 3586.9424,-198 3586.9424,-162 3767.0576,-162 3767.0576,-198"/>
<text text-anchor="middle" x="3677" y="-175.8" font-family="Times,serif" font-size="14.00" fill="#000000">QuotesOrderDataComponent</text>
</g>
<!-- QuotesOrderDataComponent&#45;&gt;QuotesModule -->
<g id="edge27" class="edge">
<title>QuotesOrderDataComponent&#45;&gt;QuotesModule</title>
<path fill="none" stroke="#000000" d="M3677,-198.0555C3677,-209.439 3677,-222 3677,-222 3677,-222 886.804,-222 886.804,-222 886.804,-222 886.804,-222.7942 886.804,-222.7942"/>
<polygon fill="#000000" stroke="#000000" points="883.3041,-219.9421 886.804,-229.9421 890.3041,-219.9422 883.3041,-219.9421"/>
</g>
<!-- QuotesPageComponent -->
<g id="node28" class="node">
<title>QuotesPageComponent</title>
<polygon fill="#ffffb3" stroke="#000000" points="3569.2007,-198 3420.7993,-198 3420.7993,-162 3569.2007,-162 3569.2007,-198"/>
<text text-anchor="middle" x="3495" y="-175.8" font-family="Times,serif" font-size="14.00" fill="#000000">QuotesPageComponent</text>
</g>
<!-- QuotesPageComponent&#45;&gt;QuotesModule -->
<g id="edge28" class="edge">
<title>QuotesPageComponent&#45;&gt;QuotesModule</title>
<path fill="none" stroke="#000000" d="M3495,-198.1274C3495,-208.7109 3495,-220 3495,-220 3495,-220 871.6683,-220 871.6683,-220 871.6683,-220 871.6683,-220.9793 871.6683,-220.9793"/>
<polygon fill="#000000" stroke="#000000" points="868.1684,-219.793 871.6683,-229.793 875.1684,-219.7931 868.1684,-219.793"/>
</g>
<!-- AuthenticationPageComponent -->
<g id="node29" class="node">
<title>AuthenticationPageComponent</title>
<polygon fill="#ffffb3" stroke="#000000" points="1147.7478,-122 956.2522,-122 956.2522,-86 1147.7478,-86 1147.7478,-122"/>
<text text-anchor="middle" x="1052" y="-99.8" font-family="Times,serif" font-size="14.00" fill="#000000">AuthenticationPageComponent</text>
</g>
<!-- AuthenticationPageComponent&#45;&gt;SharedModule -->
<g id="edge30" class="edge">
<title>AuthenticationPageComponent&#45;&gt;SharedModule</title>
<path fill="none" stroke="#000000" d="M987.6706,-122.2222C987.6706,-140.8285 987.6706,-167 987.6706,-167 987.6706,-167 942.2704,-167 942.2704,-167"/>
<polygon fill="#000000" stroke="#000000" points="942.2704,-163.5001 932.2704,-167 942.2703,-170.5001 942.2704,-163.5001"/>
</g>
<!-- ErrorComponent -->
<g id="node30" class="node">
<title>ErrorComponent</title>
<polygon fill="#ffffb3" stroke="#000000" points="938.3669,-122 827.6331,-122 827.6331,-86 938.3669,-86 938.3669,-122"/>
<text text-anchor="middle" x="883" y="-99.8" font-family="Times,serif" font-size="14.00" fill="#000000">ErrorComponent</text>
</g>
<!-- ErrorComponent&#45;&gt;SharedModule -->
<g id="edge31" class="edge">
<title>ErrorComponent&#45;&gt;SharedModule</title>
<path fill="none" stroke="#000000" d="M915.8074,-122.0109C915.8074,-122.0109 915.8074,-151.855 915.8074,-151.855"/>
<polygon fill="#000000" stroke="#000000" points="912.3075,-151.8549 915.8074,-161.855 919.3075,-151.855 912.3075,-151.8549"/>
</g>
<!-- LoadingComponent -->
<g id="node31" class="node">
<title>LoadingComponent</title>
<polygon fill="#ffffb3" stroke="#000000" points="1735.9902,-122 1608.0098,-122 1608.0098,-86 1735.9902,-86 1735.9902,-122"/>
<text text-anchor="middle" x="1672" y="-99.8" font-family="Times,serif" font-size="14.00" fill="#000000">LoadingComponent</text>
</g>
<!-- LoadingComponent&#45;&gt;SharedModule -->
<g id="edge32" class="edge">
<title>LoadingComponent&#45;&gt;SharedModule</title>
<path fill="none" stroke="#000000" d="M1675.3373,-122.3802C1675.3373,-146.2785 1675.3373,-185 1675.3373,-185 1675.3373,-185 942.2649,-185 942.2649,-185"/>
<polygon fill="#000000" stroke="#000000" points="942.2649,-181.5001 932.2649,-185 942.2648,-188.5001 942.2649,-181.5001"/>
</g>
<!-- ProgressComponent -->
<g id="node32" class="node">
<title>ProgressComponent</title>
<polygon fill="#ffffb3" stroke="#000000" points="1589.5408,-122 1460.4592,-122 1460.4592,-86 1589.5408,-86 1589.5408,-122"/>
<text text-anchor="middle" x="1525" y="-99.8" font-family="Times,serif" font-size="14.00" fill="#000000">ProgressComponent</text>
</g>
<!-- ProgressComponent&#45;&gt;SharedModule -->
<g id="edge33" class="edge">
<title>ProgressComponent&#45;&gt;SharedModule</title>
<path fill="none" stroke="#000000" d="M1466.5852,-122.0109C1466.5852,-144.4852 1466.5852,-180 1466.5852,-180 1466.5852,-180 942.2532,-180 942.2532,-180"/>
<polygon fill="#000000" stroke="#000000" points="942.2532,-176.5001 932.2532,-180 942.2532,-183.5001 942.2532,-176.5001"/>
</g>
<!-- QuoteComponent -->
<g id="node33" class="node">
<title>QuoteComponent</title>
<polygon fill="#ffffb3" stroke="#000000" points="1441.5451,-122 1326.4549,-122 1326.4549,-86 1441.5451,-86 1441.5451,-122"/>
<text text-anchor="middle" x="1384" y="-99.8" font-family="Times,serif" font-size="14.00" fill="#000000">QuoteComponent</text>
</g>
<!-- QuoteComponent&#45;&gt;SharedModule -->
<g id="edge34" class="edge">
<title>QuoteComponent&#45;&gt;SharedModule</title>
<path fill="none" stroke="#000000" d="M1331.5498,-122.1686C1331.5498,-143.498 1331.5498,-176 1331.5498,-176 1331.5498,-176 942.2858,-176 942.2858,-176"/>
<polygon fill="#000000" stroke="#000000" points="942.2858,-172.5001 932.2858,-176 942.2857,-179.5001 942.2858,-172.5001"/>
</g>
<!-- QuotesListComponent -->
<g id="node34" class="node">
<title>QuotesListComponent</title>
<polygon fill="#ffffb3" stroke="#000000" points="1308.2674,-122 1165.7326,-122 1165.7326,-86 1308.2674,-86 1308.2674,-122"/>
<text text-anchor="middle" x="1237" y="-99.8" font-family="Times,serif" font-size="14.00" fill="#000000">QuotesListComponent</text>
</g>
<!-- QuotesListComponent&#45;&gt;SharedModule -->
<g id="edge35" class="edge">
<title>QuotesListComponent&#45;&gt;SharedModule</title>
<path fill="none" stroke="#000000" d="M1181.3058,-122.308C1181.3058,-142.1455 1181.3058,-171 1181.3058,-171 1181.3058,-171 942.2591,-171 942.2591,-171"/>
<polygon fill="#000000" stroke="#000000" points="942.2592,-167.5001 932.2591,-171 942.2591,-174.5001 942.2592,-167.5001"/>
</g>
<!-- AccountPanelComponent -->
<g id="node40" class="node">
<title>AccountPanelComponent</title>
<polygon fill="#ffffb3" stroke="#000000" points="6806.8613,-198 6647.1387,-198 6647.1387,-162 6806.8613,-162 6806.8613,-198"/>
<text text-anchor="middle" x="6727" y="-175.8" font-family="Times,serif" font-size="14.00" fill="#000000">AccountPanelComponent</text>
</g>
<!-- AccountPanelComponent&#45;&gt;UserModule -->
<g id="edge41" class="edge">
<title>AccountPanelComponent&#45;&gt;UserModule</title>
<path fill="none" stroke="#000000" d="M6727,-161.8129C6727,-146.8176 6727,-128 6727,-128 6727,-128 1016.3294,-128 1016.3294,-128 1016.3294,-128 1016.3294,-219.7746 1016.3294,-219.7746"/>
<polygon fill="#000000" stroke="#000000" points="1012.8295,-219.7745 1016.3294,-229.7746 1019.8295,-219.7746 1012.8295,-219.7745"/>
</g>
<!-- BoughtPoliciesComponent -->
<g id="node41" class="node">
<title>BoughtPoliciesComponent</title>
<polygon fill="#ffffb3" stroke="#000000" points="6629.3878,-198 6462.6122,-198 6462.6122,-162 6629.3878,-162 6629.3878,-198"/>
<text text-anchor="middle" x="6546" y="-175.8" font-family="Times,serif" font-size="14.00" fill="#000000">BoughtPoliciesComponent</text>
</g>
<!-- BoughtPoliciesComponent&#45;&gt;UserModule -->
<g id="edge42" class="edge">
<title>BoughtPoliciesComponent&#45;&gt;UserModule</title>
<path fill="none" stroke="#000000" d="M6546,-161.8196C6546,-148.9618 6546,-134 6546,-134 6546,-134 1030.6587,-134 1030.6587,-134 1030.6587,-134 1030.6587,-219.9364 1030.6587,-219.9364"/>
<polygon fill="#000000" stroke="#000000" points="1027.1588,-219.9363 1030.6587,-229.9364 1034.1588,-219.9364 1027.1588,-219.9363"/>
</g>
<!-- EmailSettingsComponent -->
<g id="node42" class="node">
<title>EmailSettingsComponent</title>
<polygon fill="#ffffb3" stroke="#000000" points="6444.885,-198 6285.115,-198 6285.115,-162 6444.885,-162 6444.885,-198"/>
<text text-anchor="middle" x="6365" y="-175.8" font-family="Times,serif" font-size="14.00" fill="#000000">EmailSettingsComponent</text>
</g>
<!-- EmailSettingsComponent&#45;&gt;UserModule -->
<g id="edge43" class="edge">
<title>EmailSettingsComponent&#45;&gt;UserModule</title>
<path fill="none" stroke="#000000" d="M6365,-198.1554C6365,-230.0979 6365,-293 6365,-293 6365,-293 964.7436,-293 964.7436,-293 964.7436,-293 964.7436,-276.0439 964.7436,-276.0439"/>
<polygon fill="#000000" stroke="#000000" points="968.2437,-276.0439 964.7436,-266.0439 961.2437,-276.044 968.2437,-276.0439"/>
</g>
<!-- ExpiredPoliciesComponent -->
<g id="node43" class="node">
<title>ExpiredPoliciesComponent</title>
<polygon fill="#ffffb3" stroke="#000000" points="6266.979,-198 6097.021,-198 6097.021,-162 6266.979,-162 6266.979,-198"/>
<text text-anchor="middle" x="6182" y="-175.8" font-family="Times,serif" font-size="14.00" fill="#000000">ExpiredPoliciesComponent</text>
</g>
<!-- ExpiredPoliciesComponent&#45;&gt;UserModule -->
<g id="edge44" class="edge">
<title>ExpiredPoliciesComponent&#45;&gt;UserModule</title>
<path fill="none" stroke="#000000" d="M6182,-198.3294C6182,-229.8565 6182,-291 6182,-291 6182,-291 970.4754,-291 970.4754,-291 970.4754,-291 970.4754,-276.4854 970.4754,-276.4854"/>
<polygon fill="#000000" stroke="#000000" points="973.9755,-276.4854 970.4754,-266.4854 966.9755,-276.4855 973.9755,-276.4854"/>
</g>
<!-- ExpiringPoliciesComponent -->
<g id="node44" class="node">
<title>ExpiringPoliciesComponent</title>
<polygon fill="#ffffb3" stroke="#000000" points="6079.1553,-198 5904.8447,-198 5904.8447,-162 6079.1553,-162 6079.1553,-198"/>
<text text-anchor="middle" x="5992" y="-175.8" font-family="Times,serif" font-size="14.00" fill="#000000">ExpiringPoliciesComponent</text>
</g>
<!-- ExpiringPoliciesComponent&#45;&gt;UserModule -->
<g id="edge45" class="edge">
<title>ExpiringPoliciesComponent&#45;&gt;UserModule</title>
<path fill="none" stroke="#000000" d="M5992,-198.4904C5992,-229.5885 5992,-289 5992,-289 5992,-289 976.2071,-289 976.2071,-289 976.2071,-289 976.2071,-276.1025 976.2071,-276.1025"/>
<polygon fill="#000000" stroke="#000000" points="979.7072,-276.1025 976.2071,-266.1025 972.7072,-276.1026 979.7072,-276.1025"/>
</g>
<!-- IdentitiesComponent -->
<g id="node45" class="node">
<title>IdentitiesComponent</title>
<polygon fill="#ffffb3" stroke="#000000" points="5886.9299,-198 5753.0701,-198 5753.0701,-162 5886.9299,-162 5886.9299,-198"/>
<text text-anchor="middle" x="5820" y="-175.8" font-family="Times,serif" font-size="14.00" fill="#000000">IdentitiesComponent</text>
</g>
<!-- IdentitiesComponent&#45;&gt;UserModule -->
<g id="edge46" class="edge">
<title>IdentitiesComponent&#45;&gt;UserModule</title>
<path fill="none" stroke="#000000" d="M5820,-198.1511C5820,-228.6787 5820,-287 5820,-287 5820,-287 981.9389,-287 981.9389,-287 981.9389,-287 981.9389,-276.1299 981.9389,-276.1299"/>
<polygon fill="#000000" stroke="#000000" points="985.439,-276.1299 981.9389,-266.1299 978.439,-276.1299 985.439,-276.1299"/>
</g>
<!-- MiscellaneousSettingsComponent -->
<g id="node46" class="node">
<title>MiscellaneousSettingsComponent</title>
<polygon fill="#ffffb3" stroke="#000000" points="5735.8102,-198 5528.1898,-198 5528.1898,-162 5735.8102,-162 5735.8102,-198"/>
<text text-anchor="middle" x="5632" y="-175.8" font-family="Times,serif" font-size="14.00" fill="#000000">MiscellaneousSettingsComponent</text>
</g>
<!-- MiscellaneousSettingsComponent&#45;&gt;UserModule -->
<g id="edge47" class="edge">
<title>MiscellaneousSettingsComponent&#45;&gt;UserModule</title>
<path fill="none" stroke="#000000" d="M5632,-198.2896C5632,-228.3728 5632,-285 5632,-285 5632,-285 987.6706,-285 987.6706,-285 987.6706,-285 987.6706,-276.0664 987.6706,-276.0664"/>
<polygon fill="#000000" stroke="#000000" points="991.1707,-276.0664 987.6706,-266.0664 984.1707,-276.0665 991.1707,-276.0664"/>
</g>
<!-- PasswordSettingsComponent -->
<g id="node47" class="node">
<title>PasswordSettingsComponent</title>
<polygon fill="#ffffb3" stroke="#000000" points="5510.0996,-198 5329.9004,-198 5329.9004,-162 5510.0996,-162 5510.0996,-198"/>
<text text-anchor="middle" x="5420" y="-175.8" font-family="Times,serif" font-size="14.00" fill="#000000">PasswordSettingsComponent</text>
</g>
<!-- PasswordSettingsComponent&#45;&gt;UserModule -->
<g id="edge48" class="edge">
<title>PasswordSettingsComponent&#45;&gt;UserModule</title>
<path fill="none" stroke="#000000" d="M5420,-198.4143C5420,-228.0408 5420,-283 5420,-283 5420,-283 993.4024,-283 993.4024,-283 993.4024,-283 993.4024,-276.32 993.4024,-276.32"/>
<polygon fill="#000000" stroke="#000000" points="996.9025,-276.32 993.4024,-266.32 989.9025,-276.3201 996.9025,-276.32"/>
</g>
<!-- PhoneSettingsComponent -->
<g id="node48" class="node">
<title>PhoneSettingsComponent</title>
<polygon fill="#ffffb3" stroke="#000000" points="5311.9438,-198 5150.0562,-198 5150.0562,-162 5311.9438,-162 5311.9438,-198"/>
<text text-anchor="middle" x="5231" y="-175.8" font-family="Times,serif" font-size="14.00" fill="#000000">PhoneSettingsComponent</text>
</g>
<!-- PhoneSettingsComponent&#45;&gt;UserModule -->
<g id="edge49" class="edge">
<title>PhoneSettingsComponent&#45;&gt;UserModule</title>
<path fill="none" stroke="#000000" d="M5231,-198.0568C5231,-227.108 5231,-281 5231,-281 5231,-281 999.1341,-281 999.1341,-281 999.1341,-281 999.1341,-276.0449 999.1341,-276.0449"/>
<polygon fill="#000000" stroke="#000000" points="1002.6342,-276.0448 999.1341,-266.0449 995.6342,-276.0449 1002.6342,-276.0448"/>
</g>
<!-- PoliciesPanelComponent -->
<g id="node49" class="node">
<title>PoliciesPanelComponent</title>
<polygon fill="#ffffb3" stroke="#000000" points="5132.2632,-198 4975.7368,-198 4975.7368,-162 5132.2632,-162 5132.2632,-198"/>
<text text-anchor="middle" x="5054" y="-175.8" font-family="Times,serif" font-size="14.00" fill="#000000">PoliciesPanelComponent</text>
</g>
<!-- PoliciesPanelComponent&#45;&gt;UserModule -->
<g id="edge50" class="edge">
<title>PoliciesPanelComponent&#45;&gt;UserModule</title>
<path fill="none" stroke="#000000" d="M5054,-198.1581C5054,-226.7386 5054,-279 5054,-279 5054,-279 1004.8659,-279 1004.8659,-279 1004.8659,-279 1004.8659,-276.0328 1004.8659,-276.0328"/>
<polygon fill="#000000" stroke="#000000" points="1008.366,-276.0328 1004.8659,-266.0328 1001.366,-276.0329 1008.366,-276.0328"/>
</g>
<!-- PrevQuotesComponent -->
<g id="node50" class="node">
<title>PrevQuotesComponent</title>
<polygon fill="#ffffb3" stroke="#000000" points="4957.147,-198 4810.853,-198 4810.853,-162 4957.147,-162 4957.147,-198"/>
<text text-anchor="middle" x="4884" y="-175.8" font-family="Times,serif" font-size="14.00" fill="#000000">PrevQuotesComponent</text>
</g>
<!-- PrevQuotesComponent&#45;&gt;UserModule -->
<g id="edge51" class="edge">
<title>PrevQuotesComponent&#45;&gt;UserModule</title>
<path fill="none" stroke="#000000" d="M4884,-198.245C4884,-226.3435 4884,-277 4884,-277 4884,-277 1010.5976,-277 1010.5976,-277 1010.5976,-277 1010.5976,-275.9201 1010.5976,-275.9201"/>
<polygon fill="#000000" stroke="#000000" points="1014.0977,-276.2014 1010.5976,-266.2015 1007.0977,-276.2015 1014.0977,-276.2014"/>
</g>
<!-- ProfileComponent -->
<g id="node51" class="node">
<title>ProfileComponent</title>
<polygon fill="#ffffb3" stroke="#000000" points="4792.9328,-198 4673.0672,-198 4673.0672,-162 4792.9328,-162 4792.9328,-198"/>
<text text-anchor="middle" x="4733" y="-175.8" font-family="Times,serif" font-size="14.00" fill="#000000">ProfileComponent</text>
</g>
<!-- ProfileComponent&#45;&gt;UserModule -->
<g id="edge52" class="edge">
<title>ProfileComponent&#45;&gt;UserModule</title>
<path fill="none" stroke="#000000" d="M4733,-198.317C4733,-225.9229 4733,-275 4733,-275 4733,-275 1016.3294,-275 1016.3294,-275 1016.3294,-275 1016.3294,-274.1159 1016.3294,-274.1159"/>
<polygon fill="#000000" stroke="#000000" points="1019.8295,-276.1591 1016.3294,-266.1592 1012.8295,-276.1592 1019.8295,-276.1591"/>
</g>
<!-- TechnicalSupportComponent -->
<g id="node52" class="node">
<title>TechnicalSupportComponent</title>
<polygon fill="#ffffb3" stroke="#000000" points="4655.3585,-198 4474.6415,-198 4474.6415,-162 4655.3585,-162 4655.3585,-198"/>
<text text-anchor="middle" x="4565" y="-175.8" font-family="Times,serif" font-size="14.00" fill="#000000">TechnicalSupportComponent</text>
</g>
<!-- TechnicalSupportComponent&#45;&gt;UserModule -->
<g id="edge53" class="edge">
<title>TechnicalSupportComponent&#45;&gt;UserModule</title>
<path fill="none" stroke="#000000" d="M4565,-198.3738C4565,-225.4769 4565,-273 4565,-273 4565,-273 1022.0611,-273 1022.0611,-273 1022.0611,-273 1022.0611,-272.3169 1022.0611,-272.3169"/>
<polygon fill="#000000" stroke="#000000" points="1025.5613,-276.1686 1022.0611,-266.1686 1018.5613,-276.1687 1025.5613,-276.1686"/>
</g>
<!-- VehiclesComponent -->
<g id="node53" class="node">
<title>VehiclesComponent</title>
<polygon fill="#ffffb3" stroke="#000000" points="4456.309,-198 4325.691,-198 4325.691,-162 4456.309,-162 4456.309,-198"/>
<text text-anchor="middle" x="4391" y="-175.8" font-family="Times,serif" font-size="14.00" fill="#000000">VehiclesComponent</text>
</g>
<!-- VehiclesComponent&#45;&gt;UserModule -->
<g id="edge54" class="edge">
<title>VehiclesComponent&#45;&gt;UserModule</title>
<path fill="none" stroke="#000000" d="M4391,-198.4152C4391,-225.0057 4391,-271 4391,-271 4391,-271 1027.7929,-271 1027.7929,-271 1027.7929,-271 1027.7929,-270.5122 1027.7929,-270.5122"/>
<polygon fill="#000000" stroke="#000000" points="1031.2931,-276.1222 1027.7929,-266.1223 1024.2931,-276.1224 1031.2931,-276.1222"/>
</g>
<!-- VehiclesListComponent -->
<g id="node54" class="node">
<title>VehiclesListComponent</title>
<polygon fill="#ffffb3" stroke="#000000" points="4308.087,-198 4155.913,-198 4155.913,-162 4308.087,-162 4308.087,-198"/>
<text text-anchor="middle" x="4232" y="-175.8" font-family="Times,serif" font-size="14.00" fill="#000000">VehiclesListComponent</text>
</g>
<!-- VehiclesListComponent&#45;&gt;UserModule -->
<g id="edge55" class="edge">
<title>VehiclesListComponent&#45;&gt;UserModule</title>
<path fill="none" stroke="#000000" d="M4232,-198.0105C4232,-224.0165 4232,-269 4232,-269 4232,-269 1033.5246,-269 1033.5246,-269 1033.5246,-269 1033.5246,-268.708 1033.5246,-268.708"/>
<polygon fill="#000000" stroke="#000000" points="1037.025,-276.0799 1033.5246,-266.08 1030.025,-276.0802 1037.025,-276.0799"/>
</g>
</g>
</svg>
