<?xml version="1.0" encoding="UTF-8" standalone="no"?>
<!DOCTYPE svg PUBLIC "-//W3C//DTD SVG 1.1//EN"
 "http://www.w3.org/Graphics/SVG/1.1/DTD/svg11.dtd">
<!-- Generated by graphviz version 2.40.1 (20161225.0304)
 -->
<!-- Title: dependencies Pages: 1 -->
<svg width="1729pt" height="211pt"
 viewBox="0.00 0.00 1729.00 211.00" xmlns="http://www.w3.org/2000/svg" xmlns:xlink="http://www.w3.org/1999/xlink">
<g id="graph0" class="graph" transform="scale(1 1) rotate(0) translate(4 207)">
<title>dependencies</title>
<polygon fill="#ffffff" stroke="transparent" points="-4,4 -4,-207 1725,-207 1725,4 -4,4"/>
<text text-anchor="start" x="839.5091" y="-42.4" font-family="sans-serif" font-weight="bold" font-size="14.00" fill="#000000">Legend</text>
<polygon fill="#ffffb3" stroke="transparent" points="626.5,-10 626.5,-30 646.5,-30 646.5,-10 626.5,-10"/>
<text text-anchor="start" x="650.129" y="-15.4" font-family="sans-serif" font-size="14.00" fill="#000000"> &#160;Declarations</text>
<polygon fill="#8dd3c7" stroke="transparent" points="739.5,-10 739.5,-30 759.5,-30 759.5,-10 739.5,-10"/>
<text text-anchor="start" x="763.2251" y="-15.4" font-family="sans-serif" font-size="14.00" fill="#000000"> &#160;Module</text>
<polygon fill="#80b1d3" stroke="transparent" points="825.5,-10 825.5,-30 845.5,-30 845.5,-10 825.5,-10"/>
<text text-anchor="start" x="849.2812" y="-15.4" font-family="sans-serif" font-size="14.00" fill="#000000"> &#160;Bootstrap</text>
<polygon fill="#fdb462" stroke="transparent" points="922.5,-10 922.5,-30 942.5,-30 942.5,-10 922.5,-10"/>
<text text-anchor="start" x="946.1732" y="-15.4" font-family="sans-serif" font-size="14.00" fill="#000000"> &#160;Providers</text>
<polygon fill="#fb8072" stroke="transparent" points="1018.5,-10 1018.5,-30 1038.5,-30 1038.5,-10 1018.5,-10"/>
<text text-anchor="start" x="1042.2258" y="-15.4" font-family="sans-serif" font-size="14.00" fill="#000000"> &#160;Exports</text>
<g id="clust1" class="cluster">
<title>cluster_QuotationRequestModule</title>
<polygon fill="none" stroke="#000000" stroke-dasharray="1,5" points="8,-70 8,-195 1713,-195 1713,-70 8,-70"/>
</g>
<g id="clust2" class="cluster">
<title>cluster_QuotationRequestModule_declarations</title>
<polygon fill="none" stroke="#000000" points="138,-78 138,-130 1705,-130 1705,-78 138,-78"/>
</g>
<g id="clust12" class="cluster">
<title>cluster_QuotationRequestModule_imports</title>
<polygon fill="none" stroke="#000000" points="16,-78 16,-130 130,-130 130,-78 16,-78"/>
</g>
<!-- AdditionalDriverComponent -->
<g id="node1" class="node">
<title>AdditionalDriverComponent</title>
<polygon fill="#ffffb3" stroke="#000000" points="1696.7492,-122 1519.2508,-122 1519.2508,-86 1696.7492,-86 1696.7492,-122"/>
<text text-anchor="middle" x="1608" y="-99.8" font-family="Times,serif" font-size="14.00" fill="#000000">AdditionalDriverComponent</text>
</g>
<!-- QuotationRequestModule -->
<g id="node10" class="node">
<title>QuotationRequestModule</title>
<polygon fill="#8dd3c7" stroke="#000000" points="958.1442,-187 955.1442,-191 934.1442,-191 931.1442,-187 797.8558,-187 797.8558,-151 958.1442,-151 958.1442,-187"/>
<text text-anchor="middle" x="878" y="-164.8" font-family="Times,serif" font-size="14.00" fill="#000000">QuotationRequestModule</text>
</g>
<!-- AdditionalDriverComponent&#45;&gt;QuotationRequestModule -->
<g id="edge1" class="edge">
<title>AdditionalDriverComponent&#45;&gt;QuotationRequestModule</title>
<path fill="none" stroke="#000000" d="M1608,-122.0109C1608,-144.4852 1608,-180 1608,-180 1608,-180 968.211,-180 968.211,-180"/>
<polygon fill="#000000" stroke="#000000" points="968.211,-176.5001 958.211,-180 968.2109,-183.5001 968.211,-176.5001"/>
</g>
<!-- DriverInfoComponent -->
<g id="node2" class="node">
<title>DriverInfoComponent</title>
<polygon fill="#ffffb3" stroke="#000000" points="1501.6867,-122 1360.3133,-122 1360.3133,-86 1501.6867,-86 1501.6867,-122"/>
<text text-anchor="middle" x="1431" y="-99.8" font-family="Times,serif" font-size="14.00" fill="#000000">DriverInfoComponent</text>
</g>
<!-- DriverInfoComponent&#45;&gt;QuotationRequestModule -->
<g id="edge2" class="edge">
<title>DriverInfoComponent&#45;&gt;QuotationRequestModule</title>
<path fill="none" stroke="#000000" d="M1431,-122.1289C1431,-142.5724 1431,-173 1431,-173 1431,-173 968.4109,-173 968.4109,-173"/>
<polygon fill="#000000" stroke="#000000" points="968.411,-169.5001 958.4109,-173 968.4109,-176.5001 968.411,-169.5001"/>
</g>
<!-- DriverListComponent -->
<g id="node3" class="node">
<title>DriverListComponent</title>
<polygon fill="#ffffb3" stroke="#000000" points="1342.6443,-122 1203.3557,-122 1203.3557,-86 1342.6443,-86 1342.6443,-122"/>
<text text-anchor="middle" x="1273" y="-99.8" font-family="Times,serif" font-size="14.00" fill="#000000">DriverListComponent</text>
</g>
<!-- DriverListComponent&#45;&gt;QuotationRequestModule -->
<g id="edge3" class="edge">
<title>DriverListComponent&#45;&gt;QuotationRequestModule</title>
<path fill="none" stroke="#000000" d="M1273,-122.2667C1273,-140.5552 1273,-166 1273,-166 1273,-166 968.4103,-166 968.4103,-166"/>
<polygon fill="#000000" stroke="#000000" points="968.4103,-162.5001 958.4103,-166 968.4102,-169.5001 968.4103,-162.5001"/>
</g>
<!-- DriversComponent -->
<g id="node4" class="node">
<title>DriversComponent</title>
<polygon fill="#ffffb3" stroke="#000000" points="1185.8104,-122 1062.1896,-122 1062.1896,-86 1185.8104,-86 1185.8104,-122"/>
<text text-anchor="middle" x="1124" y="-99.8" font-family="Times,serif" font-size="14.00" fill="#000000">DriversComponent</text>
</g>
<!-- DriversComponent&#45;&gt;QuotationRequestModule -->
<g id="edge4" class="edge">
<title>DriversComponent&#45;&gt;QuotationRequestModule</title>
<path fill="none" stroke="#000000" d="M1124,-122.0091C1124,-138.0494 1124,-159 1124,-159 1124,-159 968.2092,-159 968.2092,-159"/>
<polygon fill="#000000" stroke="#000000" points="968.2092,-155.5001 958.2092,-159 968.2092,-162.5001 968.2092,-155.5001"/>
</g>
<!-- InsuranceInfoComponent -->
<g id="node5" class="node">
<title>InsuranceInfoComponent</title>
<polygon fill="#ffffb3" stroke="#000000" points="1044.5632,-122 885.4368,-122 885.4368,-86 1044.5632,-86 1044.5632,-122"/>
<text text-anchor="middle" x="965" y="-99.8" font-family="Times,serif" font-size="14.00" fill="#000000">InsuranceInfoComponent</text>
</g>
<!-- InsuranceInfoComponent&#45;&gt;QuotationRequestModule -->
<g id="edge5" class="edge">
<title>InsuranceInfoComponent&#45;&gt;QuotationRequestModule</title>
<path fill="none" stroke="#000000" d="M921.8952,-122.1061C921.8952,-122.1061 921.8952,-140.991 921.8952,-140.991"/>
<polygon fill="#000000" stroke="#000000" points="918.3952,-140.9909 921.8952,-150.991 925.3952,-140.991 918.3952,-140.9909"/>
</g>
<!-- MoreDetailsComponent -->
<g id="node6" class="node">
<title>MoreDetailsComponent</title>
<polygon fill="#ffffb3" stroke="#000000" points="867.8047,-122 716.1953,-122 716.1953,-86 867.8047,-86 867.8047,-122"/>
<text text-anchor="middle" x="792" y="-99.8" font-family="Times,serif" font-size="14.00" fill="#000000">MoreDetailsComponent</text>
</g>
<!-- MoreDetailsComponent&#45;&gt;QuotationRequestModule -->
<g id="edge6" class="edge">
<title>MoreDetailsComponent&#45;&gt;QuotationRequestModule</title>
<path fill="none" stroke="#000000" d="M832.6652,-122.1061C832.6652,-122.1061 832.6652,-140.991 832.6652,-140.991"/>
<polygon fill="#000000" stroke="#000000" points="829.1652,-140.9909 832.6652,-150.991 836.1652,-140.991 829.1652,-140.9909"/>
</g>
<!-- NumberCommaDirective -->
<g id="node7" class="node">
<title>NumberCommaDirective</title>
<polygon fill="#ffffb3" stroke="#000000" points="698.2879,-122 539.7121,-122 539.7121,-86 698.2879,-86 698.2879,-122"/>
<text text-anchor="middle" x="619" y="-99.8" font-family="Times,serif" font-size="14.00" fill="#000000">NumberCommaDirective</text>
</g>
<!-- NumberCommaDirective&#45;&gt;QuotationRequestModule -->
<g id="edge7" class="edge">
<title>NumberCommaDirective&#45;&gt;QuotationRequestModule</title>
<path fill="none" stroke="#000000" d="M619,-122.0091C619,-138.0494 619,-159 619,-159 619,-159 787.8245,-159 787.8245,-159"/>
<polygon fill="#000000" stroke="#000000" points="787.8245,-162.5001 797.8245,-159 787.8245,-155.5001 787.8245,-162.5001"/>
</g>
<!-- QuotationRequestPageComponent -->
<g id="node8" class="node">
<title>QuotationRequestPageComponent</title>
<polygon fill="#ffffb3" stroke="#000000" points="521.6385,-122 312.3615,-122 312.3615,-86 521.6385,-86 521.6385,-122"/>
<text text-anchor="middle" x="417" y="-99.8" font-family="Times,serif" font-size="14.00" fill="#000000">QuotationRequestPageComponent</text>
</g>
<!-- QuotationRequestPageComponent&#45;&gt;QuotationRequestModule -->
<g id="edge8" class="edge">
<title>QuotationRequestPageComponent&#45;&gt;QuotationRequestModule</title>
<path fill="none" stroke="#000000" d="M417,-122.2667C417,-140.5552 417,-166 417,-166 417,-166 787.6999,-166 787.6999,-166"/>
<polygon fill="#000000" stroke="#000000" points="787.7,-169.5001 797.6999,-166 787.6999,-162.5001 787.7,-169.5001"/>
</g>
<!-- VehicleInfoComponent -->
<g id="node9" class="node">
<title>VehicleInfoComponent</title>
<polygon fill="#ffffb3" stroke="#000000" points="294.1853,-122 145.8147,-122 145.8147,-86 294.1853,-86 294.1853,-122"/>
<text text-anchor="middle" x="220" y="-99.8" font-family="Times,serif" font-size="14.00" fill="#000000">VehicleInfoComponent</text>
</g>
<!-- VehicleInfoComponent&#45;&gt;QuotationRequestModule -->
<g id="edge9" class="edge">
<title>VehicleInfoComponent&#45;&gt;QuotationRequestModule</title>
<path fill="none" stroke="#000000" d="M220,-122.1289C220,-142.5724 220,-173 220,-173 220,-173 787.6455,-173 787.6455,-173"/>
<polygon fill="#000000" stroke="#000000" points="787.6455,-176.5001 797.6455,-173 787.6454,-169.5001 787.6455,-176.5001"/>
</g>
<!-- SharedModule -->
<g id="node11" class="node">
<title>SharedModule</title>
<polygon fill="#8dd3c7" stroke="#000000" points="122.4231,-122 119.4231,-126 98.4231,-126 95.4231,-122 23.5769,-122 23.5769,-86 122.4231,-86 122.4231,-122"/>
<text text-anchor="middle" x="73" y="-99.8" font-family="Times,serif" font-size="14.00" fill="#000000">SharedModule</text>
</g>
<!-- SharedModule&#45;&gt;QuotationRequestModule -->
<g id="edge10" class="edge">
<title>SharedModule&#45;&gt;QuotationRequestModule</title>
<path fill="none" stroke="#000000" d="M73,-122.0109C73,-144.4852 73,-180 73,-180 73,-180 787.4995,-180 787.4995,-180"/>
<polygon fill="#000000" stroke="#000000" points="787.4995,-183.5001 797.4995,-180 787.4995,-176.5001 787.4995,-183.5001"/>
</g>
</g>
</svg>
