<?xml version="1.0" encoding="UTF-8" standalone="no"?>
<!DOCTYPE svg PUBLIC "-//W3C//DTD SVG 1.1//EN"
 "http://www.w3.org/Graphics/SVG/1.1/DTD/svg11.dtd">
<!-- Generated by graphviz version 2.40.1 (20161225.0304)
 -->
<!-- Title: dependencies Pages: 1 -->
<svg width="1969pt" height="284pt"
 viewBox="0.00 0.00 1969.00 284.00" xmlns="http://www.w3.org/2000/svg" xmlns:xlink="http://www.w3.org/1999/xlink">
<g id="graph0" class="graph" transform="scale(1 1) rotate(0) translate(4 280)">
<title>dependencies</title>
<polygon fill="#ffffff" stroke="transparent" points="-4,4 -4,-280 1965,-280 1965,4 -4,4"/>
<text text-anchor="start" x="959.5091" y="-42.4" font-family="sans-serif" font-weight="bold" font-size="14.00" fill="#000000">Legend</text>
<polygon fill="#ffffb3" stroke="transparent" points="746.5,-10 746.5,-30 766.5,-30 766.5,-10 746.5,-10"/>
<text text-anchor="start" x="770.129" y="-15.4" font-family="sans-serif" font-size="14.00" fill="#000000"> &#160;Declarations</text>
<polygon fill="#8dd3c7" stroke="transparent" points="859.5,-10 859.5,-30 879.5,-30 879.5,-10 859.5,-10"/>
<text text-anchor="start" x="883.2251" y="-15.4" font-family="sans-serif" font-size="14.00" fill="#000000"> &#160;Module</text>
<polygon fill="#80b1d3" stroke="transparent" points="945.5,-10 945.5,-30 965.5,-30 965.5,-10 945.5,-10"/>
<text text-anchor="start" x="969.2812" y="-15.4" font-family="sans-serif" font-size="14.00" fill="#000000"> &#160;Bootstrap</text>
<polygon fill="#fdb462" stroke="transparent" points="1042.5,-10 1042.5,-30 1062.5,-30 1062.5,-10 1042.5,-10"/>
<text text-anchor="start" x="1066.1732" y="-15.4" font-family="sans-serif" font-size="14.00" fill="#000000"> &#160;Providers</text>
<polygon fill="#fb8072" stroke="transparent" points="1138.5,-10 1138.5,-30 1158.5,-30 1158.5,-10 1138.5,-10"/>
<text text-anchor="start" x="1162.2258" y="-15.4" font-family="sans-serif" font-size="14.00" fill="#000000"> &#160;Exports</text>
<g id="clust1" class="cluster">
<title>cluster_AppModule</title>
<polygon fill="none" stroke="#000000" stroke-dasharray="1,5" points="8,-70 8,-268 1953,-268 1953,-70 8,-70"/>
</g>
<g id="clust2" class="cluster">
<title>cluster_AppModule_declarations</title>
<polygon fill="none" stroke="#000000" points="1209,-78 1209,-130 1945,-130 1945,-78 1209,-78"/>
</g>
<g id="clust8" class="cluster">
<title>cluster_AppModule_imports</title>
<polygon fill="none" stroke="#000000" points="540,-78 540,-130 1201,-130 1201,-78 540,-78"/>
</g>
<g id="clust10" class="cluster">
<title>cluster_AppModule_bootstrap</title>
<polygon fill="none" stroke="#000000" points="904,-208 904,-260 1028,-260 1028,-208 904,-208"/>
</g>
<g id="clust11" class="cluster">
<title>cluster_AppModule_providers</title>
<polygon fill="none" stroke="#000000" points="16,-78 16,-130 532,-130 532,-78 16,-78"/>
</g>
<!-- AppComponent -->
<g id="node1" class="node">
<title>AppComponent</title>
<polygon fill="#ffffb3" stroke="#000000" points="1936.9399,-122 1831.0601,-122 1831.0601,-86 1936.9399,-86 1936.9399,-122"/>
<text text-anchor="middle" x="1884" y="-99.8" font-family="Times,serif" font-size="14.00" fill="#000000">AppComponent</text>
</g>
<!-- AppModule -->
<g id="node6" class="node">
<title>AppModule</title>
<polygon fill="#8dd3c7" stroke="#000000" points="1007.6571,-187 1004.6571,-191 983.6571,-191 980.6571,-187 924.3429,-187 924.3429,-151 1007.6571,-151 1007.6571,-187"/>
<text text-anchor="middle" x="966" y="-164.8" font-family="Times,serif" font-size="14.00" fill="#000000">AppModule</text>
</g>
<!-- AppComponent&#45;&gt;AppModule -->
<g id="edge1" class="edge">
<title>AppComponent&#45;&gt;AppModule</title>
<path fill="none" stroke="#000000" d="M1884,-122.0908C1884,-145.1328 1884,-182 1884,-182 1884,-182 1017.83,-182 1017.83,-182"/>
<polygon fill="#000000" stroke="#000000" points="1017.83,-178.5001 1007.83,-182 1017.83,-185.5001 1017.83,-178.5001"/>
</g>
<!-- FooterComponent -->
<g id="node2" class="node">
<title>FooterComponent</title>
<polygon fill="#ffffb3" stroke="#000000" points="1812.8809,-122 1695.1191,-122 1695.1191,-86 1812.8809,-86 1812.8809,-122"/>
<text text-anchor="middle" x="1754" y="-99.8" font-family="Times,serif" font-size="14.00" fill="#000000">FooterComponent</text>
</g>
<!-- FooterComponent&#45;&gt;AppModule -->
<g id="edge2" class="edge">
<title>FooterComponent&#45;&gt;AppModule</title>
<path fill="none" stroke="#000000" d="M1754,-122.0449C1754,-143.6623 1754,-177 1754,-177 1754,-177 1017.8099,-177 1017.8099,-177"/>
<polygon fill="#000000" stroke="#000000" points="1017.81,-173.5001 1007.8099,-177 1017.8099,-180.5001 1017.81,-173.5001"/>
</g>
<!-- HeaderComponent -->
<g id="node3" class="node">
<title>HeaderComponent</title>
<polygon fill="#ffffb3" stroke="#000000" points="1676.7437,-122 1555.2563,-122 1555.2563,-86 1676.7437,-86 1676.7437,-122"/>
<text text-anchor="middle" x="1616" y="-99.8" font-family="Times,serif" font-size="14.00" fill="#000000">HeaderComponent</text>
</g>
<!-- HeaderComponent&#45;&gt;AppModule -->
<g id="edge3" class="edge">
<title>HeaderComponent&#45;&gt;AppModule</title>
<path fill="none" stroke="#000000" d="M1616,-122.2228C1616,-142.3652 1616,-172 1616,-172 1616,-172 1018.1475,-172 1018.1475,-172"/>
<polygon fill="#000000" stroke="#000000" points="1018.1475,-168.5001 1008.1475,-172 1018.1475,-175.5001 1018.1475,-168.5001"/>
</g>
<!-- LandingComponent -->
<g id="node4" class="node">
<title>LandingComponent</title>
<polygon fill="#ffffb3" stroke="#000000" points="1536.9902,-122 1409.0098,-122 1409.0098,-86 1536.9902,-86 1536.9902,-122"/>
<text text-anchor="middle" x="1473" y="-99.8" font-family="Times,serif" font-size="14.00" fill="#000000">LandingComponent</text>
</g>
<!-- LandingComponent&#45;&gt;AppModule -->
<g id="edge4" class="edge">
<title>LandingComponent&#45;&gt;AppModule</title>
<path fill="none" stroke="#000000" d="M1473,-122.2222C1473,-140.8285 1473,-167 1473,-167 1473,-167 1017.9213,-167 1017.9213,-167"/>
<polygon fill="#000000" stroke="#000000" points="1017.9213,-163.5001 1007.9213,-167 1017.9212,-170.5001 1017.9213,-163.5001"/>
</g>
<!-- PaymentSuccessComponent -->
<g id="node5" class="node">
<title>PaymentSuccessComponent</title>
<polygon fill="#ffffb3" stroke="#000000" points="1391.1414,-122 1216.8586,-122 1216.8586,-86 1391.1414,-86 1391.1414,-122"/>
<text text-anchor="middle" x="1304" y="-99.8" font-family="Times,serif" font-size="14.00" fill="#000000">PaymentSuccessComponent</text>
</g>
<!-- PaymentSuccessComponent&#45;&gt;AppModule -->
<g id="edge5" class="edge">
<title>PaymentSuccessComponent&#45;&gt;AppModule</title>
<path fill="none" stroke="#000000" d="M1304,-122.0336C1304,-139.0597 1304,-162 1304,-162 1304,-162 1017.7844,-162 1017.7844,-162"/>
<polygon fill="#000000" stroke="#000000" points="1017.7845,-158.5001 1007.7844,-162 1017.7844,-165.5001 1017.7845,-158.5001"/>
</g>
<!-- AppComponent  -->
<g id="node12" class="node">
<title>AppComponent </title>
<polygon fill="#80b1d3" stroke="#000000" points="1020.439,-252 911.561,-252 911.561,-216 1020.439,-216 1020.439,-252"/>
<text text-anchor="middle" x="966" y="-229.8" font-family="Times,serif" font-size="14.00" fill="#000000">AppComponent </text>
</g>
<!-- AppModule&#45;&gt;AppComponent  -->
<g id="edge11" class="edge">
<title>AppModule&#45;&gt;AppComponent </title>
<path fill="none" stroke="#000000" stroke-dasharray="1,5" d="M966,-187.1061C966,-187.1061 966,-205.991 966,-205.991"/>
<polygon fill="#000000" stroke="#000000" points="962.5001,-205.9909 966,-215.991 969.5001,-205.991 962.5001,-205.9909"/>
</g>
<!-- AppRoutingModule -->
<g id="node7" class="node">
<title>AppRoutingModule</title>
<polygon fill="#8dd3c7" stroke="#000000" points="1193.2744,-122 1190.2744,-126 1169.2744,-126 1166.2744,-122 1064.7256,-122 1064.7256,-86 1193.2744,-86 1193.2744,-122"/>
<text text-anchor="middle" x="1129" y="-99.8" font-family="Times,serif" font-size="14.00" fill="#000000">AppRoutingModule</text>
</g>
<!-- AppRoutingModule&#45;&gt;AppModule -->
<g id="edge6" class="edge">
<title>AppRoutingModule&#45;&gt;AppModule</title>
<path fill="none" stroke="#000000" d="M1129,-122.2396C1129,-137.5706 1129,-157 1129,-157 1129,-157 1017.9766,-157 1017.9766,-157"/>
<polygon fill="#000000" stroke="#000000" points="1017.9766,-153.5001 1007.9766,-157 1017.9765,-160.5001 1017.9766,-153.5001"/>
</g>
<!-- QuotationRequestModule -->
<g id="node8" class="node">
<title>QuotationRequestModule</title>
<polygon fill="#8dd3c7" stroke="#000000" points="1046.1442,-122 1043.1442,-126 1022.1442,-126 1019.1442,-122 885.8558,-122 885.8558,-86 1046.1442,-86 1046.1442,-122"/>
<text text-anchor="middle" x="966" y="-99.8" font-family="Times,serif" font-size="14.00" fill="#000000">QuotationRequestModule</text>
</g>
<!-- QuotationRequestModule&#45;&gt;AppModule -->
<g id="edge7" class="edge">
<title>QuotationRequestModule&#45;&gt;AppModule</title>
<path fill="none" stroke="#000000" d="M966,-122.1061C966,-122.1061 966,-140.991 966,-140.991"/>
<polygon fill="#000000" stroke="#000000" points="962.5001,-140.9909 966,-150.991 969.5001,-140.991 962.5001,-140.9909"/>
</g>
<!-- QuotesModule -->
<g id="node9" class="node">
<title>QuotesModule</title>
<polygon fill="#8dd3c7" stroke="#000000" points="867.7064,-122 864.7064,-126 843.7064,-126 840.7064,-122 768.2936,-122 768.2936,-86 867.7064,-86 867.7064,-122"/>
<text text-anchor="middle" x="818" y="-99.8" font-family="Times,serif" font-size="14.00" fill="#000000">QuotesModule</text>
</g>
<!-- QuotesModule&#45;&gt;AppModule -->
<g id="edge8" class="edge">
<title>QuotesModule&#45;&gt;AppModule</title>
<path fill="none" stroke="#000000" d="M818,-122.2396C818,-137.5706 818,-157 818,-157 818,-157 913.985,-157 913.985,-157"/>
<polygon fill="#000000" stroke="#000000" points="913.9851,-160.5001 923.985,-157 913.985,-153.5001 913.9851,-160.5001"/>
</g>
<!-- SharedModule -->
<g id="node10" class="node">
<title>SharedModule</title>
<polygon fill="#8dd3c7" stroke="#000000" points="750.4231,-122 747.4231,-126 726.4231,-126 723.4231,-122 651.5769,-122 651.5769,-86 750.4231,-86 750.4231,-122"/>
<text text-anchor="middle" x="701" y="-99.8" font-family="Times,serif" font-size="14.00" fill="#000000">SharedModule</text>
</g>
<!-- SharedModule&#45;&gt;AppModule -->
<g id="edge9" class="edge">
<title>SharedModule&#45;&gt;AppModule</title>
<path fill="none" stroke="#000000" d="M701,-122.0336C701,-139.0597 701,-162 701,-162 701,-162 914.3022,-162 914.3022,-162"/>
<polygon fill="#000000" stroke="#000000" points="914.3023,-165.5001 924.3022,-162 914.3022,-158.5001 914.3023,-165.5001"/>
</g>
<!-- UserModule -->
<g id="node11" class="node">
<title>UserModule</title>
<polygon fill="#8dd3c7" stroke="#000000" points="633.9762,-122 630.9762,-126 609.9762,-126 606.9762,-122 548.0238,-122 548.0238,-86 633.9762,-86 633.9762,-122"/>
<text text-anchor="middle" x="591" y="-99.8" font-family="Times,serif" font-size="14.00" fill="#000000">UserModule</text>
</g>
<!-- UserModule&#45;&gt;AppModule -->
<g id="edge10" class="edge">
<title>UserModule&#45;&gt;AppModule</title>
<path fill="none" stroke="#000000" d="M591,-122.2222C591,-140.8285 591,-167 591,-167 591,-167 914.0743,-167 914.0743,-167"/>
<polygon fill="#000000" stroke="#000000" points="914.0743,-170.5001 924.0743,-167 914.0743,-163.5001 914.0743,-170.5001"/>
</g>
<!-- ErrorInterceptor -->
<g id="node13" class="node">
<title>ErrorInterceptor</title>
<ellipse fill="#fdb462" stroke="#000000" cx="450" cy="-104" rx="73.5329" ry="18"/>
<text text-anchor="middle" x="450" y="-99.8" font-family="Times,serif" font-size="14.00" fill="#000000">ErrorInterceptor</text>
</g>
<!-- ErrorInterceptor&#45;&gt;AppModule -->
<g id="edge12" class="edge">
<title>ErrorInterceptor&#45;&gt;AppModule</title>
<path fill="none" stroke="#000000" d="M450,-122.2228C450,-142.3652 450,-172 450,-172 450,-172 914.2106,-172 914.2106,-172"/>
<polygon fill="#000000" stroke="#000000" points="914.2107,-175.5001 924.2106,-172 914.2106,-168.5001 914.2107,-175.5001"/>
</g>
<!-- JwtInterceptor -->
<g id="node14" class="node">
<title>JwtInterceptor</title>
<ellipse fill="#fdb462" stroke="#000000" cx="291" cy="-104" rx="66.6094" ry="18"/>
<text text-anchor="middle" x="291" y="-99.8" font-family="Times,serif" font-size="14.00" fill="#000000">JwtInterceptor</text>
</g>
<!-- JwtInterceptor&#45;&gt;AppModule -->
<g id="edge13" class="edge">
<title>JwtInterceptor&#45;&gt;AppModule</title>
<path fill="none" stroke="#000000" d="M291,-122.0449C291,-143.6623 291,-177 291,-177 291,-177 914.2851,-177 914.2851,-177"/>
<polygon fill="#000000" stroke="#000000" points="914.2852,-180.5001 924.2851,-177 914.2851,-173.5001 914.2852,-180.5001"/>
</g>
<!-- LanguageInterceptor -->
<g id="node15" class="node">
<title>LanguageInterceptor</title>
<ellipse fill="#fdb462" stroke="#000000" cx="115" cy="-104" rx="91.4345" ry="18"/>
<text text-anchor="middle" x="115" y="-99.8" font-family="Times,serif" font-size="14.00" fill="#000000">LanguageInterceptor</text>
</g>
<!-- LanguageInterceptor&#45;&gt;AppModule -->
<g id="edge14" class="edge">
<title>LanguageInterceptor&#45;&gt;AppModule</title>
<path fill="none" stroke="#000000" d="M115,-122.0908C115,-145.1328 115,-182 115,-182 115,-182 914.089,-182 914.089,-182"/>
<polygon fill="#000000" stroke="#000000" points="914.0891,-185.5001 924.089,-182 914.089,-178.5001 914.0891,-185.5001"/>
</g>
</g>
</svg>
