<?xml version="1.0" encoding="UTF-8" standalone="no"?>
<!DOCTYPE svg PUBLIC "-//W3C//DTD SVG 1.1//EN"
 "http://www.w3.org/Graphics/SVG/1.1/DTD/svg11.dtd">
<!-- Generated by graphviz version 2.40.1 (20161225.0304)
 -->
<!-- Title: dependencies Pages: 1 -->
<svg width="873pt" height="211pt"
 viewBox="0.00 0.00 873.00 211.00" xmlns="http://www.w3.org/2000/svg" xmlns:xlink="http://www.w3.org/1999/xlink">
<g id="graph0" class="graph" transform="scale(1 1) rotate(0) translate(4 207)">
<title>dependencies</title>
<polygon fill="#ffffff" stroke="transparent" points="-4,4 -4,-207 869,-207 869,4 -4,4"/>
<text text-anchor="start" x="411.5091" y="-42.4" font-family="sans-serif" font-weight="bold" font-size="14.00" fill="#000000">Legend</text>
<polygon fill="#ffffb3" stroke="transparent" points="198.5,-10 198.5,-30 218.5,-30 218.5,-10 198.5,-10"/>
<text text-anchor="start" x="222.129" y="-15.4" font-family="sans-serif" font-size="14.00" fill="#000000"> &#160;Declarations</text>
<polygon fill="#8dd3c7" stroke="transparent" points="311.5,-10 311.5,-30 331.5,-30 331.5,-10 311.5,-10"/>
<text text-anchor="start" x="335.2251" y="-15.4" font-family="sans-serif" font-size="14.00" fill="#000000"> &#160;Module</text>
<polygon fill="#80b1d3" stroke="transparent" points="397.5,-10 397.5,-30 417.5,-30 417.5,-10 397.5,-10"/>
<text text-anchor="start" x="421.2812" y="-15.4" font-family="sans-serif" font-size="14.00" fill="#000000"> &#160;Bootstrap</text>
<polygon fill="#fdb462" stroke="transparent" points="494.5,-10 494.5,-30 514.5,-30 514.5,-10 494.5,-10"/>
<text text-anchor="start" x="518.1732" y="-15.4" font-family="sans-serif" font-size="14.00" fill="#000000"> &#160;Providers</text>
<polygon fill="#fb8072" stroke="transparent" points="590.5,-10 590.5,-30 610.5,-30 610.5,-10 590.5,-10"/>
<text text-anchor="start" x="614.2258" y="-15.4" font-family="sans-serif" font-size="14.00" fill="#000000"> &#160;Exports</text>
<g id="clust1" class="cluster">
<title>cluster_QuotesModule</title>
<polygon fill="none" stroke="#000000" stroke-dasharray="1,5" points="8,-70 8,-195 857,-195 857,-70 8,-70"/>
</g>
<g id="clust2" class="cluster">
<title>cluster_QuotesModule_declarations</title>
<polygon fill="none" stroke="#000000" points="138,-78 138,-130 849,-130 849,-78 138,-78"/>
</g>
<g id="clust7" class="cluster">
<title>cluster_QuotesModule_imports</title>
<polygon fill="none" stroke="#000000" points="16,-78 16,-130 130,-130 130,-78 16,-78"/>
</g>
<!-- OrderReviewComponent -->
<g id="node1" class="node">
<title>OrderReviewComponent</title>
<polygon fill="#ffffb3" stroke="#000000" points="841.238,-122 684.762,-122 684.762,-86 841.238,-86 841.238,-122"/>
<text text-anchor="middle" x="763" y="-99.8" font-family="Times,serif" font-size="14.00" fill="#000000">OrderReviewComponent</text>
</g>
<!-- QuotesModule -->
<g id="node5" class="node">
<title>QuotesModule</title>
<polygon fill="#8dd3c7" stroke="#000000" points="451.7064,-187 448.7064,-191 427.7064,-191 424.7064,-187 352.2936,-187 352.2936,-151 451.7064,-151 451.7064,-187"/>
<text text-anchor="middle" x="402" y="-164.8" font-family="Times,serif" font-size="14.00" fill="#000000">QuotesModule</text>
</g>
<!-- OrderReviewComponent&#45;&gt;QuotesModule -->
<g id="edge1" class="edge">
<title>OrderReviewComponent&#45;&gt;QuotesModule</title>
<path fill="none" stroke="#000000" d="M763,-122.2843C763,-143.3211 763,-175 763,-175 763,-175 461.8165,-175 461.8165,-175"/>
<polygon fill="#000000" stroke="#000000" points="461.8165,-171.5001 451.8165,-175 461.8165,-178.5001 461.8165,-171.5001"/>
</g>
<!-- QuotesFiltersComponent -->
<g id="node2" class="node">
<title>QuotesFiltersComponent</title>
<polygon fill="#ffffb3" stroke="#000000" points="666.2632,-122 509.7368,-122 509.7368,-86 666.2632,-86 666.2632,-122"/>
<text text-anchor="middle" x="588" y="-99.8" font-family="Times,serif" font-size="14.00" fill="#000000">QuotesFiltersComponent</text>
</g>
<!-- QuotesFiltersComponent&#45;&gt;QuotesModule -->
<g id="edge2" class="edge">
<title>QuotesFiltersComponent&#45;&gt;QuotesModule</title>
<path fill="none" stroke="#000000" d="M588,-122.0225C588,-139.3734 588,-163 588,-163 588,-163 461.8446,-163 461.8446,-163"/>
<polygon fill="#000000" stroke="#000000" points="461.8446,-159.5001 451.8446,-163 461.8446,-166.5001 461.8446,-159.5001"/>
</g>
<!-- QuotesOrderDataComponent -->
<g id="node3" class="node">
<title>QuotesOrderDataComponent</title>
<polygon fill="#ffffb3" stroke="#000000" points="492.0576,-122 311.9424,-122 311.9424,-86 492.0576,-86 492.0576,-122"/>
<text text-anchor="middle" x="402" y="-99.8" font-family="Times,serif" font-size="14.00" fill="#000000">QuotesOrderDataComponent</text>
</g>
<!-- QuotesOrderDataComponent&#45;&gt;QuotesModule -->
<g id="edge3" class="edge">
<title>QuotesOrderDataComponent&#45;&gt;QuotesModule</title>
<path fill="none" stroke="#000000" d="M402,-122.1061C402,-122.1061 402,-140.991 402,-140.991"/>
<polygon fill="#000000" stroke="#000000" points="398.5001,-140.9909 402,-150.991 405.5001,-140.991 398.5001,-140.9909"/>
</g>
<!-- QuotesPageComponent -->
<g id="node4" class="node">
<title>QuotesPageComponent</title>
<polygon fill="#ffffb3" stroke="#000000" points="294.2007,-122 145.7993,-122 145.7993,-86 294.2007,-86 294.2007,-122"/>
<text text-anchor="middle" x="220" y="-99.8" font-family="Times,serif" font-size="14.00" fill="#000000">QuotesPageComponent</text>
</g>
<!-- QuotesPageComponent&#45;&gt;QuotesModule -->
<g id="edge4" class="edge">
<title>QuotesPageComponent&#45;&gt;QuotesModule</title>
<path fill="none" stroke="#000000" d="M220,-122.0225C220,-139.3734 220,-163 220,-163 220,-163 342.2677,-163 342.2677,-163"/>
<polygon fill="#000000" stroke="#000000" points="342.2677,-166.5001 352.2677,-163 342.2677,-159.5001 342.2677,-166.5001"/>
</g>
<!-- SharedModule -->
<g id="node6" class="node">
<title>SharedModule</title>
<polygon fill="#8dd3c7" stroke="#000000" points="122.4231,-122 119.4231,-126 98.4231,-126 95.4231,-122 23.5769,-122 23.5769,-86 122.4231,-86 122.4231,-122"/>
<text text-anchor="middle" x="73" y="-99.8" font-family="Times,serif" font-size="14.00" fill="#000000">SharedModule</text>
</g>
<!-- SharedModule&#45;&gt;QuotesModule -->
<g id="edge5" class="edge">
<title>SharedModule&#45;&gt;QuotesModule</title>
<path fill="none" stroke="#000000" d="M73,-122.2843C73,-143.3211 73,-175 73,-175 73,-175 342.3892,-175 342.3892,-175"/>
<polygon fill="#000000" stroke="#000000" points="342.3892,-178.5001 352.3892,-175 342.3891,-171.5001 342.3892,-178.5001"/>
</g>
</g>
</svg>
