<svg width="161" height="118" viewBox="0 0 161 118" fill="none" xmlns="http://www.w3.org/2000/svg">
<path d="M48.2459 37.2559C35.862 37.3433 31.3716 37.8242 27.3651 38.8736C27.3196 38.8736 27.3196 38.8736 27.274 38.8736C25.6805 39.3982 24.4968 40.6662 23.313 42.5462C22.0837 44.47 20.4902 48.1863 18.3503 53.9576C18.3048 54.0888 18.2593 54.2199 18.2593 54.3511C18.2593 54.7446 18.4414 55.0944 18.6235 55.313C18.8056 55.4878 18.9422 55.5753 19.0788 55.619C19.3064 55.7502 19.5341 55.7939 19.7617 55.8376C20.217 55.9251 20.7178 56.0125 21.4463 56.0562C22.8577 56.1874 24.861 56.3186 27.5472 56.406C32.9196 56.5809 39.2397 56.6683 49.9845 56.6683C50.3488 56.6683 50.6675 56.5372 50.8951 56.3186C51.1227 56.1 51.2593 55.7502 51.2593 55.4441C51.2593 55.0944 51.1227 54.7883 50.8951 54.5697C50.6675 54.3511 50.3032 54.2199 49.9845 54.2199C39.2397 54.2199 32.9652 54.1325 27.6383 53.9576C24.952 53.8701 22.9943 53.7827 21.7195 53.6515C21.5374 53.6515 21.4918 53.6078 21.3097 53.6078C23.1764 48.7547 24.7244 45.3007 25.5895 43.9016C26.5911 42.3276 27.5017 41.5406 28.1391 41.322C31.5082 40.4476 36.0441 39.8792 48.337 39.7917C48.7012 39.7917 49.0199 39.6606 49.2476 39.4419C49.4752 39.2233 49.6118 38.8736 49.6118 38.5675C49.6118 38.2177 49.4752 37.9117 49.202 37.6931C48.9289 37.387 48.5646 37.2559 48.2459 37.2559Z" fill="#005DBD"/>
<path d="M15.0722 62.2648C13.934 62.3085 12.7503 62.5709 11.7941 62.8769C11.2933 63.0518 10.838 63.2267 10.4738 63.4453C10.064 63.6639 9.51769 63.8388 9.3811 64.8007C9.3811 64.8444 9.3811 64.9319 9.3811 64.9756C9.3811 66.7245 9.65428 68.211 10.2917 69.4353C10.9291 70.6595 12.0218 71.5776 13.3421 71.9711C15.2999 72.5395 18.4869 72.5833 21.6284 72.5833C24.7699 72.5833 27.7293 72.4958 28.2301 72.4958C29.7781 72.4958 31.0074 72.4084 31.918 72.2335C32.3733 72.146 32.8286 72.0149 33.1928 71.7963C33.6026 71.5776 34.0579 71.0967 34.1489 70.4846C34.24 69.8288 34.2855 68.9543 34.1944 68.2985L34.1034 67.5552C34.0123 66.3747 33.1928 65.544 32.009 65.2817C27.1374 64.276 23.2675 63.5328 20.4902 63.0518C17.6674 62.4834 16.1194 62.2211 15.0722 62.2648ZM15.1633 64.7133C15.3909 64.7133 17.2576 64.8881 19.9894 65.3691C22.7211 65.85 26.5456 66.5933 31.4172 67.5989C31.3261 67.5552 31.4627 67.7738 31.4627 67.6426L31.5538 68.3859C31.5993 68.692 31.5538 69.2166 31.5082 69.6539C31.4172 69.6976 31.4172 69.6976 31.2806 69.7413C30.6887 69.8725 29.596 69.9599 28.1391 69.9599C27.3651 69.9599 24.5878 70.0474 21.5374 70.0474C18.4869 70.0474 15.0722 69.8288 14.0251 69.5227C13.3421 69.3041 12.9324 68.998 12.5226 68.2548C12.2039 67.6426 12.0218 66.6808 11.9307 65.4565C12.1128 65.3691 12.295 65.2817 12.5681 65.1942C13.3421 64.9756 14.3893 64.757 15.1633 64.7133ZM11.7486 65.544C11.6576 65.6314 11.6576 65.5877 11.7486 65.544V65.544Z" fill="#005DBD"/>
<path d="M16.5749 81.3713C16.2106 81.3713 15.8919 81.5025 15.6643 81.7211C15.4366 81.9397 15.3 82.2895 15.3 82.5955C15.3 82.9016 15.4366 83.2513 15.6643 83.4699C15.8919 83.6885 16.2562 83.8197 16.5749 83.8197H23.0855C23.4498 83.8197 23.7685 83.6885 23.9961 83.4699C24.2238 83.2513 24.3604 82.9016 24.3604 82.5955C24.3604 82.2895 24.2238 81.9397 23.9961 81.7211C23.7685 81.5025 23.4042 81.3713 23.0855 81.3713H16.5749Z" fill="#005DBD"/>
<path d="M47.3312 31.7471C34.5375 31.922 30.1425 32.6215 25.1343 33.9332C23.4497 34.3704 22.2204 35.7258 20.9911 37.3435C19.7618 39.0049 18.5326 41.0161 17.4399 43.071C15.2545 47.1809 13.5244 51.3782 13.1146 52.4275C13.0235 52.6899 12.4772 53.4331 11.7487 54.3076C11.0203 55.1383 10.1097 56.1439 9.15356 57.1495C7.28687 59.1607 5.37464 61.0407 4.50959 62.571C4.41853 62.7459 4.373 62.9645 4.373 63.1394C4.32747 75.3815 5.37464 85.1315 7.60557 92.4768C7.78769 93.0014 8.28851 93.3512 8.83485 93.3512H26.0904C26.5001 93.3512 26.9099 93.1326 27.1831 92.7828C27.6384 92.127 28.1847 91.8209 29.2319 91.7772C30.3701 91.7335 41.4962 91.7335 55.2005 91.7772C55.5647 91.7772 55.8834 91.646 56.111 91.4274C56.3387 91.2088 56.4753 90.8591 56.5208 90.553C56.5208 90.2032 56.3842 89.8972 56.1566 89.6786C55.9289 89.46 55.5647 89.3288 55.246 89.3288C41.5873 89.2851 30.7344 89.2413 29.1408 89.3288C27.7294 89.4162 26.5001 89.9409 25.5896 90.9028H9.92755C7.9698 84.0822 7.01369 74.9443 7.05922 63.5329C7.6511 62.6584 9.3812 60.691 11.2024 58.7672C12.1585 57.7616 13.0691 56.756 13.8431 55.8378C14.617 54.9197 15.2545 54.1764 15.5732 53.3457C16.0285 52.2526 17.713 48.1428 19.8074 44.1641C20.8545 42.1966 21.9928 40.2291 23.131 38.7863C24.2237 37.3435 25.4074 36.4253 25.9083 36.2941C30.3701 35.1137 34.7652 34.3704 47.4678 34.1955C47.832 34.1955 48.1507 34.0643 48.3784 33.8457C48.606 33.6271 48.7426 33.2773 48.7426 32.9713C48.7426 32.6215 48.606 32.3155 48.3329 32.0968C48.0141 31.8345 47.6954 31.7471 47.3312 31.7471Z" fill="#005DBD"/>
<path d="M8.78937 46.7437C8.06091 46.7437 7.24138 46.8312 6.42186 46.9623C5.60233 47.0935 4.82834 47.2247 4.1454 47.4433C3.46246 47.6619 2.91611 47.7493 2.32423 48.3177C1.6413 48.9735 1.14048 49.8917 0.685185 50.8535C0.45754 51.3345 0.275423 51.8154 0.138836 52.2526C0.0933066 52.4712 0.00224835 52.6898 0.00224835 52.9522C0.00224835 53.2145 -0.0432808 53.5643 0.275423 54.0015C0.594127 54.4387 0.730715 54.4387 0.95836 54.6136C1.18601 54.7448 1.50471 54.9196 1.82341 55.0945C2.50635 55.4443 3.41693 55.7941 4.50963 56.1001C6.6495 56.7122 9.42678 57.1057 12.2496 56.3187C12.5683 56.2313 12.887 56.0127 13.0236 55.7503C13.2057 55.4443 13.2512 55.1383 13.1602 54.7885C13.0691 54.4824 12.8415 54.2201 12.5228 54.0452C12.2041 53.8703 11.8398 53.8703 11.5211 53.9578C9.38125 54.5699 7.05926 54.2638 5.2381 53.7392C4.32752 53.4768 3.55352 53.1708 3.00717 52.9085C2.87058 52.821 2.77953 52.7773 2.68847 52.7336C2.77953 52.4712 2.87058 52.2089 3.00717 51.8591C3.3714 51.1159 3.91775 50.2414 4.09987 50.0666C4.1454 50.0666 4.4641 49.8917 4.87387 49.7605C5.37469 49.6293 6.10315 49.4545 6.78609 49.367C7.46903 49.2796 8.19749 49.1921 8.78937 49.1921C9.38125 49.1921 9.83654 49.2796 9.79101 49.2796C10.3829 49.5419 11.5211 50.2414 12.9781 51.4219C13.2512 51.6405 13.5699 51.7717 13.9342 51.728C14.2984 51.6842 14.6171 51.5531 14.8447 51.2908C15.0724 51.0284 15.1635 50.7224 15.1635 50.3726C15.1179 50.0228 14.9813 49.7168 14.7082 49.5419C13.1602 48.274 11.9764 47.4433 10.8382 47.006C10.1552 46.7 9.51784 46.7 8.78937 46.7437Z" fill="#005DBD"/>
<path d="M39.5215 65.4128C38.5654 65.4128 37.6093 65.8063 37.1085 66.5496C36.5621 67.2929 36.5621 68.2985 36.8808 69.1292L37.9735 71.84C38.6564 73.5451 40.341 74.6382 42.2532 74.6382H51.7233C52.0875 74.6382 52.4062 74.507 52.6339 74.2884C52.8615 74.0698 52.9981 73.72 52.9981 73.414C52.9981 73.0642 52.8615 72.7581 52.6339 72.5395C52.4062 72.3209 52.042 72.1898 51.7233 72.1898H42.2532C41.6614 72.1898 40.5687 71.4902 40.3865 70.9655L39.2938 68.2548C39.2028 67.9924 39.2483 67.9487 39.2483 67.9924C39.2483 67.9924 39.2483 67.9487 39.5215 67.9487H51.7233C52.0875 67.9487 52.4062 67.8176 52.6339 67.5989C52.8615 67.3803 52.9981 67.0306 52.9981 66.7245C52.9981 66.3747 52.8615 66.0687 52.6339 65.8501C52.4062 65.6315 52.042 65.5003 51.7233 65.5003L39.5215 65.4128Z" fill="#005DBD"/>
<path d="M35.9246 78.923C35.2872 78.923 34.7409 78.923 34.1035 79.1416C32.7376 79.5788 31.8725 80.9342 31.9636 82.2458C32.0546 83.5575 32.7831 84.7817 33.9213 85.9622C34.149 86.2246 34.5132 86.3557 34.8775 86.3557H54.3311C54.6954 86.3557 55.0141 86.2245 55.2417 86.0059C55.4694 85.7873 55.606 85.4376 55.606 85.1315C55.606 84.7817 55.4694 84.4757 55.2417 84.2571C55.0141 84.0384 54.6498 83.9073 54.3311 83.9073H35.5149C34.923 83.164 34.5587 82.4645 34.5132 82.071C34.4677 81.6337 34.4222 81.6337 34.8775 81.5026C34.7864 81.5463 35.5149 81.4151 35.9246 81.4151H53.4618C53.8261 81.4151 54.1448 81.284 54.3724 81.0653C54.6001 80.8467 54.7367 80.497 54.7367 80.1909C54.7367 79.8411 54.6001 79.5351 54.3724 79.3165C54.1448 79.0979 53.7805 78.9667 53.4618 78.9667L35.9246 78.923Z" fill="#005DBD"/>
<path d="M6.05753 73.4139C5.32906 73.4139 4.78271 73.9823 4.78271 74.6819V96.0182C4.78271 98.8601 7.19576 101.177 10.1552 101.177H16.3471C19.3065 101.177 21.7195 98.8601 21.7195 96.0182V92.1269C21.7195 91.7772 21.583 91.4711 21.3553 91.2525C21.1277 91.0339 20.7634 90.9027 20.4447 90.9027C20.0805 90.9027 19.7618 91.0339 19.5341 91.2525C19.3065 91.4711 19.1699 91.8209 19.1699 92.1269V96.0182C19.1699 97.5047 17.9406 98.6852 16.3926 98.6852H10.1096C8.56163 98.6852 7.33235 97.5047 7.33235 96.0182V74.6819C7.33235 74.3321 7.19576 74.0261 6.96811 73.8074C6.74047 73.5451 6.37623 73.4139 6.05753 73.4139Z" fill="#005DBD"/>
<path d="M124.501 2.3676C124.392 1.58754 123.676 1.06178 122.863 1.16587L44.9274 11.152C44.1151 11.2561 43.5679 11.9438 43.6766 12.7238L57.9335 115.66C57.9879 116.05 58.1716 116.379 58.4786 116.604C58.7856 116.83 59.1708 116.957 59.577 116.905L112.196 110.162C115.265 109.769 117.921 108.061 119.478 105.392L134.09 86.3163L134.084 86.273C135.262 84.8428 135.839 83.0485 135.585 81.2284L124.501 2.3676ZM120.506 99.2609L119.352 90.9836C122.521 90.9747 125.307 90.5295 127.818 89.7665L120.506 99.2609ZM131.736 84.5888C131.742 84.6322 131.742 84.6322 131.736 84.5888L131.652 84.6437C131.411 84.8951 131.165 85.1031 130.912 85.2678C127.615 87.3223 123.196 88.2415 117.705 88.0628C117.287 88.0282 116.854 88.216 116.574 88.5165C116.294 88.817 116.123 89.236 116.184 89.6693L117.615 99.9401C117.815 101.37 117.551 102.771 116.844 103.965C115.771 105.823 113.873 107.036 111.752 107.308L60.6224 113.859L46.7581 13.7405L121.761 4.13022L132.652 81.6043C132.803 82.6877 132.491 83.7422 131.736 84.5888Z" fill="#005DBD"/>
<path d="M88.1899 61.188L90.3085 61.887C90.7388 62.0083 91.2082 62.0805 91.6595 62.0227C92.1107 61.9648 92.5499 61.8204 92.8808 61.5574L94.7274 60.3062C104.4 53.9059 109.491 42.9758 107.932 31.7949L106.048 18.2739C105.939 17.4938 105.475 16.8034 104.816 16.3585C104.157 15.9136 103.353 15.7519 102.508 15.9485C93.6996 18.0034 86.7478 14.9242 86.6515 14.8925C85.6192 14.4072 84.3557 14.5691 83.4925 15.2972C83.2459 15.5053 77.5499 20.1169 68.4817 20.3084C67.7024 20.32 66.9264 20.6841 66.3671 21.2851C65.8529 21.8803 65.5946 22.6633 65.7033 23.4434L67.5941 37.0077C69.1978 48.1828 77.1037 57.4476 88.1899 61.188ZM68.5975 23.1166C78.5353 22.9019 84.7878 17.9985 85.3922 17.3917C85.4885 17.4235 93.2981 21.0544 103.153 18.6006L105.044 32.165C106.458 42.3058 101.866 52.2015 93.1135 57.9546L91.2608 59.1625L89.1422 58.4635C79.0702 55.0783 71.974 46.6802 70.5665 36.5828L68.5975 23.1166Z" fill="#005DBD"/>
<path d="M89.5149 46.6381C96.0133 45.8054 100.541 40.0643 99.6775 33.8672C98.8137 27.6701 92.8269 23.2763 86.3736 24.1032C79.9203 24.93 75.3472 30.6769 76.211 36.874C77.0749 43.0711 83.0616 47.4649 89.5149 46.6381ZM86.7542 26.8333C91.628 26.2088 96.1309 29.5136 96.7833 34.1939C97.4357 38.8743 93.9961 43.1967 89.1223 43.8212C84.2484 44.4457 79.7456 41.1409 79.0932 36.4606C78.4407 31.7803 81.8804 27.4578 86.7542 26.8333Z" fill="#005DBD"/>
<path d="M86.0831 39.114C86.309 39.3097 86.6237 39.4299 86.9164 39.3924L86.9489 39.3882C87.2416 39.3507 87.5168 39.187 87.6855 38.9728L92.2934 32.6051C92.6265 32.1451 92.5061 31.5186 92.0261 31.1629C91.5506 30.8387 90.8719 30.9577 90.5388 31.4176L86.6579 36.8257L85.5609 35.8429C85.1415 35.4472 84.4823 35.4675 84.0753 35.8727C83.6683 36.2779 83.6912 36.9169 84.1105 37.3126L86.0831 39.114Z" fill="#F4333F"/>
<path d="M118.342 64.2939L63.5569 71.3137C62.7446 71.4178 62.1974 72.1054 62.3061 72.8855C62.4148 73.6655 63.1312 74.1913 63.9435 74.0872L118.729 67.0674C119.541 66.9634 120.088 66.2757 119.979 65.4957C119.871 64.7156 119.154 64.1899 118.342 64.2939Z" fill="#F4333F"/>
<path d="M119.508 72.6577L64.7229 79.6775C63.9106 79.7816 63.3634 80.4693 63.4721 81.2493C63.5809 82.0294 64.2972 82.5551 65.1095 82.4511L119.895 75.4312C120.707 75.3271 121.254 74.6395 121.145 73.8594C121.037 73.0794 120.32 72.5536 119.508 72.6577Z" fill="#F4333F"/>
<path d="M94.7705 84.3408L65.8887 88.0415C65.0764 88.1455 64.5292 88.8332 64.6379 89.6133C64.7466 90.3933 65.463 90.919 66.2753 90.815L95.1571 87.1143C95.9694 87.0102 96.5166 86.3226 96.4079 85.5425C96.2992 84.7625 95.5828 84.2367 94.7705 84.3408Z" fill="#F4333F"/>
<path d="M35.2327 25.6915H13.6271C12.8076 25.6915 12.1702 26.3036 12.1702 27.0906C12.1702 27.8776 12.8076 28.4897 13.6271 28.4897H35.2327C36.0522 28.4897 36.6896 27.8776 36.6896 27.0906C36.6896 26.3036 36.0522 25.6915 35.2327 25.6915Z" fill="#E6E9EF"/>
<path d="M8.28433 25.6915H5.80337C4.98385 25.6915 4.34644 26.3036 4.34644 27.0906C4.34644 27.8776 4.98385 28.4897 5.80337 28.4897H8.28433C9.10386 28.4897 9.74127 27.8776 9.74127 27.0906C9.74127 26.3036 9.10386 25.6915 8.28433 25.6915Z" fill="#E6E9EF"/>
<path d="M159.543 30.6923H157.062C156.243 30.6923 155.605 31.3044 155.605 32.0914C155.605 32.8784 156.243 33.4905 157.062 33.4905H159.543C160.363 33.4905 161 32.8784 161 32.0914C161 31.3044 160.363 30.6923 159.543 30.6923Z" fill="#E6E9EF"/>
<path d="M152.298 30.6923H123.159C122.34 30.6923 121.702 31.3044 121.702 32.0914C121.702 32.8784 122.34 33.4905 123.159 33.4905H152.298C153.117 33.4905 153.755 32.8784 153.755 32.0914C153.755 31.3044 153.117 30.6923 152.298 30.6923Z" fill="#E6E9EF"/>
<path d="M41.3207 4.85535H21.4508C20.6313 4.85535 19.9939 5.46746 19.9939 6.25446C19.9939 7.04146 20.6313 7.65356 21.4508 7.65356H41.3207C42.1402 7.65356 42.7776 7.04146 42.7776 6.25446C42.7776 5.46746 42.1402 4.85535 41.3207 4.85535Z" fill="#E6E9EF"/>
<path d="M13.7965 14.0233H3.19546C2.37593 14.0233 1.73853 14.6354 1.73853 15.4224C1.73853 16.2093 2.37593 16.8214 3.19546 16.8214H13.7965C14.6161 16.8214 15.2535 16.2093 15.2535 15.4224C15.2535 14.6354 14.6161 14.0233 13.7965 14.0233Z" fill="#E6E9EF"/>
<path d="M158.101 19.0239H147.5C146.68 19.0239 146.043 19.636 146.043 20.423C146.043 21.21 146.68 21.8221 147.5 21.8221H158.101C158.921 21.8221 159.558 21.21 159.558 20.423C159.558 19.636 158.921 19.0239 158.101 19.0239Z" fill="#E6E9EF"/>
<path d="M155.202 42.3606H138.807C137.987 42.3606 137.35 42.9727 137.35 43.7596C137.35 44.5466 137.987 45.1587 138.807 45.1587H155.202C156.022 45.1587 156.659 44.5466 156.659 43.7596C156.659 42.9727 156.022 42.3606 155.202 42.3606Z" fill="#E6E9EF"/>
</svg>
