<svg width="50" height="50" viewBox="0 0 50 50" fill="none" xmlns="http://www.w3.org/2000/svg">
<path d="M17.4583 25L22.4791 30.0417L32.5416 19.9584" stroke="#005DBD" stroke-width="2" stroke-linecap="round" stroke-linejoin="round"/>
<path d="M22.3958 5.10419C23.8333 3.87502 26.1874 3.87502 27.6458 5.10419L30.9374 7.93752C31.5624 8.47919 32.7291 8.91669 33.5624 8.91669H37.1041C39.3124 8.91669 41.1249 10.7292 41.1249 12.9375V16.4792C41.1249 17.2917 41.5624 18.4792 42.1041 19.1042L44.9374 22.3959C46.1666 23.8334 46.1666 26.1875 44.9374 27.6459L42.1041 30.9375C41.5624 31.5625 41.1249 32.7292 41.1249 33.5625V37.1042C41.1249 39.3125 39.3124 41.125 37.1041 41.125H33.5624C32.7499 41.125 31.5624 41.5625 30.9374 42.1042L27.6458 44.9375C26.2083 46.1667 23.8541 46.1667 22.3958 44.9375L19.1041 42.1042C18.4791 41.5625 17.3124 41.125 16.4791 41.125H12.8749C10.6666 41.125 8.85408 39.3125 8.85408 37.1042V33.5417C8.85408 32.7292 8.41658 31.5625 7.89575 30.9375L5.08325 27.625C3.87492 26.1875 3.87492 23.8542 5.08325 22.4167L7.89575 19.1042C8.41658 18.4792 8.85408 17.3125 8.85408 16.5V12.9167C8.85408 10.7084 10.6666 8.89585 12.8749 8.89585H16.4791C17.2916 8.89585 18.4791 8.45835 19.1041 7.91669L22.3958 5.10419Z" stroke="#005DBD" stroke-width="2" stroke-linecap="round" stroke-linejoin="round"/>
</svg>
