<svg width="1921" height="1076" viewBox="0 0 1921 1076" fill="none" xmlns="http://www.w3.org/2000/svg">
<path opacity="0.11" d="M0 607.406C0 607.406 100.43 847.35 401.206 798.883C701.982 750.416 843.274 808.46 938.836 913.824C1034.4 1019.19 1290.93 1008.15 1519.82 966.198C1748.72 924.243 1882.99 1007.99 1920.18 1075.64C1920.2 1075.65 1919.81 0.0269852 1919.81 0.0269852L0.0440063 7.62939e-06L0 607.406Z" fill="url(#paint0_linear)"/>
<path d="M0.0579834 607.558C0.0579834 607.558 95.327 811.751 401.268 768.705C707.209 725.659 820.924 736.605 945.456 865.597C1069.99 994.589 1289.43 973.137 1518.36 932.663C1747.3 892.189 1878.56 1000.82 1920.16 1075.63C1920.2 1073.23 1920.08 0.00998688 1920.08 0.00998688L0.0809937 0.0210037L0.0579834 607.558Z" fill="url(#paint1_linear)"/>
<path opacity="0.14" d="M25.7209 687.743C25.7209 687.743 199.963 295.697 843.154 432.711C1486.34 569.725 1712.57 510.178 1899.31 -31.271" stroke="#0167AF" stroke-width="128"/>
<defs>
<linearGradient id="paint0_linear" x1="960.092" y1="7.62939e-06" x2="960.092" y2="1075.64" gradientUnits="userSpaceOnUse">
<stop stop-color="#0167AF"/>
<stop offset="1" stop-color="#2E82EF"/>
</linearGradient>
<linearGradient id="paint1_linear" x1="960.111" y1="0.00998688" x2="960.111" y2="1075.63" gradientUnits="userSpaceOnUse">
<stop stop-color="#0167AF"/>
<stop offset="1" stop-color="#2E82EF"/>
</linearGradient>
</defs>
</svg>
