<svg xmlns="http://www.w3.org/2000/svg" viewBox="0 0 364.33 127.92"><defs><style>.cls-1{fill:#1560ad;}.cls-2{fill:#fff;}</style></defs><g id="Layer_2" data-name="Layer 2"><g id="Layer_1-2" data-name="Layer 1"><path class="cls-1" d="M303.19,65.92a43.41,43.41,0,0,0-5.86-2l-50.1,40.91a31.46,31.46,0,0,0,2.33,4.64l.11.15h0c6.59,10.65,20.05,18,35.62,18,22,0,39.88-14.65,39.88-32.6C325.19,82.31,316.23,71.28,303.19,65.92ZM285.31,110C275.18,110,267,103.26,267,95s8.23-15,18.36-15,18.34,6.71,18.34,15S295.38,110,285.31,110Z"/><path class="cls-1" d="M342.7,53.84v74.08h8.84c7,0,12.72-4.65,12.72-10.39v-88L348.49,42.41A14.82,14.82,0,0,0,342.7,53.84Z"/><path class="cls-1" d="M234.33,62.65,192.9,96.54l-38.33,31.31H43.11C19.33,127.85,0,112,0,92.6S19.33,57.38,43.11,57.38H95.74L80.25,70.07a23.61,23.61,0,0,1-13.86,5H43.11C31.22,75,21.55,82.91,21.55,92.6s9.67,17.61,21.56,17.61H145.66l50-40.84a34,34,0,0,1,20.6-6.72Z"/><polygon class="cls-1" points="109.83 68.74 123.72 80.1 137.62 68.74 123.72 57.39 109.83 68.74"/><polygon class="cls-1" points="151.51 80.1 165.4 68.74 151.51 57.39 149.3 59.2 137.62 68.74 139.79 70.52 151.51 80.1"/><path class="cls-1" d="M351.93,16.36a7.5,7.5,0,0,1-9.1,0,4.62,4.62,0,0,1,0-7.44,7.45,7.45,0,0,1,6.68-1.25l3-7A17.43,17.43,0,0,0,350,.18a17.87,17.87,0,0,0-13.58,3.51,11.23,11.23,0,0,0-4.28,11.08,12,12,0,0,0,4.28,6.82A16.07,16.07,0,0,0,342,24.47l-9.12,7.46-4.25,3.48h9.91a7.86,7.86,0,0,0,4.94-1.68l14.86-12.14h0l4.29-3.51a4.36,4.36,0,0,0,1.7-3.36V6.23Z"/><path class="cls-1" d="M41.89,41.32a10.84,10.84,0,0,0,7.77-2.69v.63a1.53,1.53,0,0,0,.61,1.32,2.68,2.68,0,0,0,1.68.49c1.57,0,2.34-.65,2.34-1.94l0,0V24c0-1.29-.77-1.94-2.31-1.94s-2.31.63-2.31,1.91v.7a9.58,9.58,0,0,0-2.39-1.59A12.56,12.56,0,0,0,41.84,22a13,13,0,0,0-8.32,2.78A8.57,8.57,0,0,0,30,31.67a8.46,8.46,0,0,0,3.46,6.87A13,13,0,0,0,41.89,41.32Zm-5.14-14a8,8,0,0,1,5.33-1.8,7.75,7.75,0,0,1,5.17,1.7l.15.11a5.73,5.73,0,0,1,2.07,3.47,4.5,4.5,0,0,1,.08.9l0,0a5.51,5.51,0,0,1-2.15,4.35,8,8,0,0,1-5.31,1.8,7.94,7.94,0,0,1-5.33-1.79,5.6,5.6,0,0,1-2.14-4.4A5.44,5.44,0,0,1,36.75,27.33Z"/><path class="cls-1" d="M64.1,41.17c1.51,0,2.28-.65,2.28-2V31.44c0-.27,0-.54,0-.8.18-2.15,1-3.61,2.39-4.37a6.23,6.23,0,0,1,3-.68,4.31,4.31,0,0,1,3.64,1.35,6.91,6.91,0,0,1,1.07,4.28v8c0,1.32.77,2,2.29,2s2.28-.67,2.28-2V31.44c0-3.91,1.85-5.85,5.51-5.85a4.24,4.24,0,0,1,3.62,1.35,7.06,7.06,0,0,1,1,4.28v8c0,1.3.81,2,2.32,2s2.29-.65,2.29-2V30.39c0-2.8-.75-4.89-2.27-6.29a8.62,8.62,0,0,0-6.18-2.05,9.23,9.23,0,0,0-7.6,3.39c-1.29-2.27-3.69-3.39-7.22-3.39a9.11,9.11,0,0,0-3.84.8,9.53,9.53,0,0,0-2.39,1.54v-.51a1.36,1.36,0,0,0-.63-1.28,3,3,0,0,0-1.68-.48c-1.52,0-2.29.65-2.29,1.94V39.22C61.81,40.52,62.58,41.17,64.1,41.17Z"/><path class="cls-1" d="M105.32,41.17c1.52,0,2.29-.65,2.29-2V31.44c0-.24,0-.48,0-.71.15-2.2.94-3.69,2.39-4.47a6.19,6.19,0,0,1,3-.67,4.31,4.31,0,0,1,3.64,1.35,6.84,6.84,0,0,1,1.08,4.28v8c0,1.32.77,2,2.28,2s2.29-.67,2.29-2V31.44c0-3.91,1.84-5.85,5.5-5.85a4.24,4.24,0,0,1,3.62,1.35,7,7,0,0,1,1.06,4.28v8c0,1.3.79,2,2.3,2s2.29-.65,2.29-2V30.39c0-2.8-.75-4.89-2.26-6.29a8.66,8.66,0,0,0-6.19-2.05,9.26,9.26,0,0,0-7.6,3.39c-1.29-2.27-3.69-3.39-7.22-3.39a9.28,9.28,0,0,0-3.83.79,9.58,9.58,0,0,0-2.39,1.55v-.51A1.38,1.38,0,0,0,107,22.6a3.06,3.06,0,0,0-1.69-.48c-1.51,0-2.28.65-2.28,1.94V39.22C103,40.52,103.81,41.17,105.32,41.17Z"/><path class="cls-1" d="M154.25,41.32A10.84,10.84,0,0,0,162,38.63v.63a1.5,1.5,0,0,0,.61,1.32,2.67,2.67,0,0,0,1.67.49c1.57,0,2.34-.65,2.34-1.94l0,0V24c0-1.29-.78-1.94-2.32-1.94S162,22.69,162,24v.7a9.76,9.76,0,0,0-2.38-1.58A12.45,12.45,0,0,0,154.2,22a13,13,0,0,0-8.33,2.78,8.59,8.59,0,0,0-3.48,6.9,8.46,8.46,0,0,0,3.46,6.87A13,13,0,0,0,154.25,41.32Zm-5.14-14a8,8,0,0,1,5.33-1.8,7.7,7.7,0,0,1,5.17,1.71.71.71,0,0,1,.14.1,5.68,5.68,0,0,1,2.07,3.47,4.5,4.5,0,0,1,.08.9l0,0a5.51,5.51,0,0,1-2.15,4.35,8.78,8.78,0,0,1-10.64,0,5.54,5.54,0,0,1-2.14-4.4A5.39,5.39,0,0,1,149.11,27.33Z"/><path class="cls-1" d="M200.75,25.83l0,0h1.65v9.29a7.42,7.42,0,0,0,1.19,4.29c.94,1.28,2.74,1.91,5.42,1.88a8.91,8.91,0,0,0,2.89-.33,1.24,1.24,0,0,0,.91-1.19,3.27,3.27,0,0,0-.16-1.22c-.26-.51-1.05-.76-2.36-.76a3.52,3.52,0,0,1-2.59-.7,3.69,3.69,0,0,1-.63-2.43V25.86h4.25c1.47,0,2.21-.63,2.21-1.83s-.77-1.76-2.24-1.76h-4.24V17.68c0-1.32-.77-2-2.34-2s-2.35.67-2.35,2v4.59h-1.65c-1.53,0-2.28.59-2.28,1.76S199.25,25.83,200.75,25.83Z"/><path class="cls-2" d="M274.68,75.2c3.22,0,3.23-5,0-5s-3.22,5,0,5Z"/></g></g></svg>