<svg xmlns="http://www.w3.org/2000/svg" xmlns:xlink="http://www.w3.org/1999/xlink" version="1.1" x="0px" y="0px" viewBox="0 0 275.962 313.11125" style="enable-background:new 0 0 275.962 250.489;" xml:space="preserve"><g><rect x="89.438" y="180.001" width="186.524" height="4"/><path d="M247.374,95.467l0.11,0.291l0.189,0.5h0.892h2.234h15.623c2.462,0,4.462-1.999,4.462-4.463v-4.464   c0-2.465-2-4.464-4.462-4.464H253.03c-2.465,0-4.464,1.999-4.464,4.464v2.232h-3.422c0.811,2.152,1.463,3.878,1.847,4.894   L247.374,95.467z"/><path d="M181.238,65.688h-10.413c-1.437,0-2.603,1.165-2.603,2.604c0,1.437,1.166,2.603,2.603,2.603h10.413   c1.439,0,2.605-1.166,2.605-2.603C183.843,66.854,182.677,65.688,181.238,65.688z"/><path d="M111.798,152.548c-0.432,7.393-6.568,13.185-13.971,13.185c-0.294,0-0.593-0.009-0.886-0.028   c-0.422-0.024-0.839-0.074-1.254-0.137v8.284c0,2.467,1.996,4.465,4.463,4.465h17.855c2.462,0,4.463-1.998,4.463-4.465v-8.928   c26.624,0,85.622,0,109.847,0v9.223c0,2.303,1.864,4.17,4.169,4.17h16.679c2.3,0,4.17-1.867,4.17-4.17v-16.659   c0.201,0,0.386,0,0.534,0c7.436,0,7.436-11.574,7.436-11.574h-89.273h-63.913C112.031,148.096,111.929,150.301,111.798,152.548z"/><path d="M150.365,143.126v-22.317h6.697v22.317h4.463v-22.317h6.696v22.317h4.464v-22.317h6.695v22.317h4.462v-22.317h6.697v22.317   h4.462v-22.317h6.695v22.317h61.128c0,0,0-14.381,0-26.781c0-9.728-11.189-16.401-16.013-18.827l-0.609-1.607   c-0.011-0.031-11.582-30.623-13.203-35.476c-0.986-3.101-3.575-4.82-6.594-5.559c-3.05-0.792-6.802-0.981-11.387-1.366   c-9.986-0.834-28.164-1.659-38.988-1.659c-10.829,0-29.003,0.825-38.988,1.659c-4.584,0.385-8.336,0.574-11.39,1.366   c-3.015,0.738-5.609,2.458-6.594,5.559c-1.206,3.619-7.949,21.549-11.305,30.446c1.619,5.871,2.806,12.51,3.575,19.942   c1.363-0.592,2.865-0.925,4.447-0.925c6.159,0,11.156,4.994,11.156,11.158c0,6.163-4.997,11.16-11.156,11.16   c-1.183,0-2.321-0.186-3.39-0.527c0.003,0.452,0.014,0.888,0.014,1.344c-0.001,3.247-0.063,6.624-0.176,10.093H150.365z    M236.294,132.217c-6.166,0-11.162-4.997-11.162-11.16c0-6.164,4.996-11.158,11.162-11.158c6.16,0,11.157,4.994,11.157,11.158   C247.451,127.22,242.454,132.217,236.294,132.217z M122.238,68.037c0.666-1.858,1.734-2.647,4.268-3.375   c2.502-0.664,6.187-0.887,10.815-1.272c9.849-0.821,28.04-1.646,38.71-1.646c10.668,0,28.862,0.824,38.708,1.646   c4.629,0.386,8.317,0.608,10.814,1.272c2.534,0.728,3.606,1.517,4.271,3.375c1.41,4.224,9.683,19.624,12.389,26.793H109.846   C112.554,87.661,120.83,72.261,122.238,68.037z"/><path d="M124.454,121.059c0-4.793-3.894-8.681-8.678-8.681c-1.518,0-2.943,0.393-4.185,1.077   c0.428,4.858,0.679,10.056,0.767,15.577c1.05,0.45,2.205,0.702,3.419,0.702C120.56,129.734,124.454,125.845,124.454,121.059z"/><circle cx="236.295" cy="121.056" r="8.677"/><path d="M42.006,14.973c0.353,0.63,0.625,1.282,0.83,1.945c3.737-0.932,8.441-1.489,13.558-1.489c12.15,0,22,3.135,22,7   c0,0.574-0.222,1.133-0.633,1.667c-2.351-3.062-11.023-5.333-21.367-5.333c-4.922,0-9.465,0.515-13.13,1.383   c-0.104,3.396-1.92,6.661-5.093,8.44c-1.322,0.739-2.548,1.457-3.697,2.154c-0.375,1.629-0.58,3.322-0.58,5.064   c0,11.185,8.162,20.457,18.852,22.201c1.188,0.193,2.406,0.299,3.648,0.299c1.243,0,2.46-0.105,3.648-0.299   c10.69-1.744,18.852-11.017,18.852-22.201c0-2.814-0.521-5.505-1.465-7.988c0.537-0.557,0.859-1.143,0.94-1.75   c2.618,0.092,4.631-0.33,5.52-1.732C86.871,19.632,79.225,0,56.393,0c-11.045,0-18.526,4.596-22.98,9.87   C36.978,9.92,40.262,11.858,42.006,14.973z"/><path d="M54.076,147.854h4.635v90.271c0,6.83,5.537,12.363,12.363,12.363c6.828,0,12.365-5.533,12.365-12.363v-98v-18.939V88.165   c0.592,1.216,1.19,2.61,1.78,4.237c2.818,7.813,5.189,20.631,5.181,40.64c0,5.515-0.176,11.572-0.566,18.224   c-0.257,4.411,3.11,8.196,7.521,8.453c0.158,0.01,0.316,0.014,0.473,0.014c4.206,0.001,7.732-3.282,7.98-7.535   c0.403-6.934,0.589-13.3,0.592-19.155c-0.041-30.182-4.864-46.888-11.435-56.932c-3.286-4.985-7.129-8.184-10.681-9.956   c-3.423-1.725-6.432-2.112-8.231-2.132c-0.115-0.005-0.227-0.018-0.343-0.018h-8.578c1.355,7.745,4.637,30.341-2.319,34.831   c-1.162,0.75-2.152,1.387-3.037,1.93l-2.381-23.812c-0.98,0.266-1.987,0.409-2.994,0.409h-0.006h-0.003   c-1.008,0.001-2.016-0.142-2.998-0.407l-2.382,23.811c-0.886-0.544-1.877-1.18-3.04-1.931c-6.953-4.49-3.673-27.086-2.318-34.831   h-7.126c-2.363-0.81-8.033-2.946-13.051-6.033c-2.948-1.79-5.619-3.91-7.254-5.891c-1.671-2.035-2.217-3.562-2.221-4.979   c0.015-1.414,0.505-3.631,3.6-7.228c3.062-3.537,8.677-8.05,17.592-13.034c3.854-2.16,5.228-7.035,3.068-10.89   c-2.16-3.854-7.035-5.226-10.89-3.066c-9.942,5.585-16.97,10.924-21.833,16.479C2.705,34.856-0.015,40.977,0,47.103   c0,6.556,3.032,12.022,6.61,16.01c5.441,6.036,12.402,9.852,18.08,12.536c1.69,0.785,3.265,1.451,4.656,2.007v43.531v18.939v11.336   v86.664c0,6.83,5.537,12.363,12.363,12.363c5.283,0,9.78-3.318,11.551-7.98c0.518-1.364,0.814-2.837,0.814-4.383V147.854z"/><path d="M60.595,71.944l-1.4-7.5h-2.801h-2.799l-1.4,7.5l0.791,1.694c1.083,0.477,2.242,0.723,3.406,0.724   c1.166-0.001,2.328-0.248,3.414-0.726L60.595,71.944z"/></g><text x="0" y="265.48900000000003" fill="#000000" font-size="5px" font-weight="bold" font-family="'Helvetica Neue', Helvetica, Arial-Unicode, Arial, Sans-serif">Created by Gan Khoon Lay</text><text x="0" y="270.48900000000003" fill="#000000" font-size="5px" font-weight="bold" font-family="'Helvetica Neue', Helvetica, Arial-Unicode, Arial, Sans-serif">from the Noun Project</text></svg>