<svg width="851" height="666" viewBox="0 0 851 666" fill="none" xmlns="http://www.w3.org/2000/svg">
<path d="M187.76 447.848C196.624 479.993 204.228 490.891 224.26 492.848H627.76C647.619 491.684 654.634 479.758 663.26 447.848C671.535 404.492 673.6 380.187 667.26 336.848C666.511 325.434 665.556 319.297 659.76 310.348C645.735 272.672 636.486 253.452 625.76 239.348C624.775 236.713 624.031 235.462 621.76 234.348C616.397 203.085 609.063 182.745 594.26 145.348C584.058 129.827 578.128 121.941 566.26 120.848C475.974 107.73 413.008 105.848 286.76 118.848C269.049 124.295 262.723 130.295 256.76 145.348C243.633 179.289 236.741 198.441 229.26 234.348C225.417 236.548 223.949 238.329 221.76 241.848C208.196 268.613 201.847 283.609 191.76 310.348C185.193 318.323 185.077 324.29 183.76 336.348C178.413 377.374 178.755 401.593 187.76 447.848Z" fill="#F5CA53" stroke="#DEB457" stroke-width="1.5"/>
<path d="M228.84 326.343C252.583 326.574 259.979 309.338 260.26 290.003C260.546 270.336 247.185 251.364 228.84 252.51C212.856 253.508 202.508 262.522 200.51 284.235C198.837 315.22 205.274 324.178 228.84 326.343Z" fill="#272727" stroke="#AE904C"/>
<path d="M226.458 326.343C248.223 326.558 254.52 319.146 255.26 292.637C254.742 268.308 243.384 256.783 226.458 257.86C211.716 258.799 202.321 267.147 200.489 287.287C198.956 316.026 204.856 324.336 226.458 326.343Z" fill="#3E3E3E"/>
<path d="M223.21 325.044C247.15 325.735 248.223 311.281 250.227 294.661C252.387 276.737 240.9 262.705 223.21 263.206C210.142 263.576 201.384 271.877 199.283 289.777C198.867 315.383 204.174 322.931 223.21 325.044Z" fill="#FF6464" stroke="black"/>
<path d="M220.393 320.803C241.858 319.702 242.901 308.007 244.231 295.658C245.831 280.798 236.001 269.212 220.393 269.626C208.862 269.933 201.134 276.803 199.28 291.616C198.913 312.807 203.596 319.054 220.393 320.803Z" fill="#FF7C7C"/>
<path d="M227.122 304.851C237.498 305.706 237.958 300.245 238.246 293.326C238.532 286.477 234.406 281.205 227.122 281.395C221.741 281.536 218.135 284.684 217.27 291.474C217.098 301.186 219.283 304.049 227.122 304.851Z" fill="#FF9292"/>
<path d="M218.365 307.024C224.788 307.568 225.073 304.093 225.252 299.69C225.429 295.331 222.874 291.977 218.365 292.098C215.034 292.187 212.802 294.191 212.266 298.511C212.16 304.692 213.513 306.514 218.365 307.024Z" fill="#FFB1B1"/>
<path d="M624.685 324.231C600.943 324.462 593.546 307.225 593.265 287.891C592.979 268.223 606.341 249.252 624.685 250.397C640.67 251.396 651.017 260.409 653.015 282.123C654.688 313.107 648.251 322.066 624.685 324.231Z" fill="#272727" stroke="#AE904C"/>
<path d="M627.067 324.231C605.303 324.445 599.005 317.033 598.265 290.525C598.784 266.195 610.141 254.671 627.067 255.748C641.809 256.686 651.204 265.034 653.036 285.174C654.569 313.913 648.669 322.223 627.067 324.231Z" fill="#3E3E3E"/>
<path d="M630.315 322.932C606.375 323.623 605.302 309.169 603.299 292.549C601.138 274.624 612.626 260.592 630.315 261.094C643.384 261.464 652.141 269.765 654.243 287.665C654.659 313.27 649.352 320.818 630.315 322.932Z" fill="#FF6464" stroke="black"/>
<path d="M633.132 318.691C612.185 318.586 611.058 306.886 609.295 293.546C607.337 278.735 617.524 267.099 633.132 267.514C644.664 267.82 652.391 274.69 654.245 289.504C654.612 310.694 649.93 316.941 633.132 318.691Z" fill="#FF7C7C"/>
<path d="M636.399 298.429C626.023 299.284 625.563 293.822 625.274 286.904C624.989 280.054 629.115 274.783 636.399 274.973C641.78 275.113 645.386 278.262 646.251 285.051C646.422 294.764 644.237 297.627 636.399 298.429Z" fill="#FF9292"/>
<path d="M630.155 305.954C623.732 306.498 623.448 303.022 623.269 298.62C623.092 294.261 625.646 290.906 630.155 291.027C633.487 291.117 635.719 293.12 636.255 297.441C636.361 303.621 635.008 305.443 630.155 305.954Z" fill="#FFB1B1"/>
<path d="M188.76 535.348C184.132 502.343 184.919 481.441 186.76 443.848C196.933 481.617 205.26 491.87 224.26 492.848H257.76C257.011 518.073 256.079 529.031 253.26 541.348C250.876 547.717 248.527 550.298 243.26 553.848C227.146 554.648 218.047 554.539 201.76 553.848C193.702 552.334 191.192 547.639 188.76 535.348Z" fill="#262324"/>
<path d="M661.834 537.04C665.987 504.173 665.23 482.965 663.821 444.348C655.205 481.336 647.422 490.842 626.76 493.348H593.26C594.005 518.901 594.931 530.641 597.733 543.118C600.102 549.57 602.437 552.185 607.671 555.781C623.685 556.591 632.729 556.481 648.914 555.781C656.923 554.247 659.418 549.491 661.834 537.04Z" fill="#262324"/>
<path d="M221.76 243.348C230.832 236.509 232.721 229.347 233.76 213.848C225.386 210.802 212.623 214.842 208.26 229.848C206.355 236.401 211.027 243.271 221.76 243.348Z" fill="#262324"/>
<path d="M630.26 243.348C621.189 236.509 619.3 229.347 618.26 213.848C626.635 210.802 639.398 214.842 643.76 229.848C645.665 236.401 640.994 243.271 630.26 243.348Z" fill="#262324"/>
<path d="M661.76 448.848H189.26C198.266 479.926 205.021 492.725 225.26 493.348H625.76C650.193 489.069 656.346 477.142 661.76 448.848Z" fill="#D7AE54" fill-opacity="0.9"/>
<path d="M205.26 386.848C188.882 383.785 186.019 368.114 184.26 332.848C178.402 377.342 177.444 402.983 188.76 448.348H662.26C673.136 401.634 673.825 375.751 666.76 332.848C664.787 369.579 661.802 386.343 644.26 391.348L205.26 386.848Z" fill="#DAB157" fill-opacity="0.5"/>
<path d="M206.26 403.348C208.699 427.914 217.67 432.761 239.26 434.848C380.721 440.92 460.173 442.423 600.76 436.848C632.163 433.794 643.21 428.201 644.76 403.348C647.677 376.096 638.556 368.529 600.26 370.848H248.26C207.392 367.974 203.379 377.054 206.26 403.348Z" fill="#262324"/>
<path d="M332.76 417.348L339.26 427.348V375.348H331.76C329.341 376.086 328.695 377.189 328.26 379.848L332.76 417.348Z" fill="#161616"/>
<path d="M518.351 417.348L511.26 427.348V375.348H519.442C522.082 376.086 522.786 377.189 523.26 379.848L518.351 417.348Z" fill="#161616"/>
<path d="M512.26 375.348C442.339 376.214 404.573 376.172 339.26 375.348V377.348H512.26V375.348Z" fill="#161616"/>
<path d="M272.76 429.848C240.443 428.819 227.346 423.332 207.26 410.348C211.704 430.028 223.354 437.518 272.76 437.348C398.747 440.861 469.241 440.766 594.76 437.348C625.614 436.119 638.59 431.622 643.26 410.348C628.34 425.534 617.189 428.8 594.76 429.848C469.011 433.835 398.507 433.926 272.76 429.848Z" fill="#161616"/>
<rect x="-0.5" y="0.5" width="31" height="35" rx="10.5" transform="matrix(-1 0 0 1 243.26 380.348)" fill="#C4C4C4" stroke="black"/>
<path d="M232.486 381.976C229.6 381.892 226.897 381.892 224.04 381.975C218.543 382.134 214.188 386.634 214.068 392.136C213.976 396.353 213.981 400.18 214.074 404.387C214.198 409.961 218.645 414.495 224.216 414.616C227.029 414.676 229.686 414.673 232.506 414.607C237.993 414.479 242.424 410.081 242.564 404.595C242.674 400.305 242.637 396.42 242.505 392.129C242.336 386.63 237.98 382.135 232.486 381.976Z" fill="#A2A2A2" stroke="black" stroke-width="0.3"/>
<path d="M231.985 382.55C229.414 382.481 226.983 382.481 224.436 382.549C218.939 382.697 214.582 387.2 214.468 392.703C214.388 396.56 214.392 400.093 214.474 403.941C214.592 409.515 219.042 414.051 224.613 414.163C227.114 414.212 229.497 414.209 232.005 414.155C237.492 414.036 241.924 409.634 242.056 404.149C242.15 400.219 242.117 396.626 242 392.696C241.836 387.197 237.479 382.699 231.985 382.55Z" fill="#FF6464" stroke="black" stroke-width="0.3"/>
<path d="M240.198 394.615C240.062 389.041 235.641 384.453 230.065 384.363C228.823 384.343 227.605 384.343 226.37 384.363C220.792 384.452 216.374 389.045 216.288 394.623C216.25 397.126 216.252 399.506 216.292 402.003C216.383 407.655 220.898 412.277 226.55 412.339C227.731 412.352 228.895 412.351 230.078 412.335C235.646 412.261 240.146 407.774 240.238 402.206C240.28 399.632 240.261 397.189 240.198 394.615Z" fill="#FF7C7C"/>
<path d="M237.248 396.913C237.182 392.219 233.377 388.346 228.683 388.348V388.348C223.986 388.35 220.289 392.223 220.263 396.919C220.259 397.537 220.26 398.15 220.264 398.766C220.297 403.488 224.086 407.354 228.808 407.348V407.348C233.456 407.342 237.245 403.592 237.26 398.944C237.262 398.265 237.258 397.591 237.248 396.913Z" fill="#FF9292"/>
<path d="M226.034 407.31C221.587 407.674 221.39 405.354 221.266 402.417C221.144 399.508 222.912 397.269 226.034 397.35C228.34 397.41 229.886 398.747 230.256 401.63C230.33 405.754 229.393 406.97 226.034 407.31Z" fill="#FFB1B1"/>
<rect x="-0.5" y="0.5" width="31" height="35" rx="10.5" transform="matrix(-1 0 0 1 635.26 380.348)" fill="#C4C4C4" stroke="black"/>
<path d="M624.486 381.976C621.6 381.892 618.897 381.892 616.04 381.975C610.543 382.134 606.188 386.634 606.068 392.136C605.976 396.353 605.981 400.18 606.074 404.387C606.198 409.961 610.645 414.495 616.216 414.616C619.029 414.676 621.686 414.673 624.506 414.607C629.993 414.479 634.424 410.081 634.564 404.595C634.674 400.305 634.637 396.42 634.505 392.129C634.336 386.63 629.98 382.135 624.486 381.976Z" fill="#A2A2A2" stroke="black" stroke-width="0.3"/>
<path d="M623.985 382.55C621.414 382.481 618.983 382.481 616.436 382.549C610.939 382.697 606.582 387.2 606.468 392.703C606.388 396.56 606.392 400.093 606.474 403.941C606.592 409.515 611.042 414.051 616.613 414.163C619.114 414.212 621.497 414.209 624.005 414.155C629.492 414.036 633.924 409.634 634.056 404.149C634.15 400.219 634.117 396.626 634 392.696C633.836 387.197 629.479 382.699 623.985 382.55Z" fill="#FF6464" stroke="black" stroke-width="0.3"/>
<path d="M632.198 394.615C632.062 389.041 627.641 384.453 622.065 384.363C620.823 384.343 619.605 384.343 618.37 384.363C612.792 384.452 608.374 389.045 608.288 394.623C608.25 397.126 608.252 399.506 608.292 402.003C608.383 407.655 612.898 412.277 618.55 412.339C619.731 412.352 620.895 412.351 622.078 412.335C627.646 412.261 632.146 407.774 632.238 402.206C632.28 399.632 632.261 397.189 632.198 394.615Z" fill="#FF7C7C"/>
<path d="M629.248 396.913C629.182 392.219 625.377 388.346 620.683 388.348V388.348C615.986 388.35 612.289 392.223 612.263 396.919C612.259 397.537 612.26 398.15 612.264 398.766C612.297 403.488 616.086 407.354 620.808 407.348V407.348C625.456 407.342 629.245 403.592 629.26 398.944C629.262 398.265 629.258 397.591 629.248 396.913Z" fill="#FF9292"/>
<path d="M618.034 407.31C613.587 407.674 613.39 405.354 613.266 402.417C613.144 399.508 614.912 397.269 618.034 397.35C620.34 397.41 621.886 398.747 622.256 401.63C622.33 405.754 621.393 406.97 618.034 407.31Z" fill="#FFB1B1"/>
<path d="M247.76 370.848L251.76 413.848C253.517 427.24 258.686 429.133 270.26 429.348C390.28 432.386 457.388 432.527 576.76 429.848C592.376 430.123 597.947 427.32 598.76 413.848L602.76 370.848" stroke="black" stroke-width="2"/>
<rect x="310.51" y="285.598" width="222.5" height="49.5" rx="5.75" fill="#EBBC56" stroke="#AE904C" stroke-width="0.5"/>
<circle cx="422.1" cy="310.848" r="15.3573" transform="rotate(0.534923 422.1 310.848)" fill="#E8E2E2"/>
<circle cx="422.008" cy="310.743" r="12.7297" transform="rotate(0.534923 422.008 310.743)" fill="url(#paint0_linear)"/>
<path d="M418.583 311.15H416.494V313.348H415.838V308.371H418.921V308.911H416.494V310.614H418.583V311.15ZM420.411 313.348H419.755V308.371H420.411V313.348ZM424.424 312.049H422.339L421.871 313.348H421.194L423.094 308.371H423.669L425.572 313.348H424.899L424.424 312.049ZM422.537 311.509H424.229L423.381 309.181L422.537 311.509ZM429.236 308.911H427.637V313.348H426.984V308.911H425.388V308.371H429.236V308.911Z" fill="white"/>
<path d="M264.411 147.942C251.844 181.377 245.948 200.083 238.26 233.348H612.26C606.187 198.053 599.094 179.186 585.617 147.942C581.085 138.587 577.667 134.107 567.361 129.781C453.771 114.97 396.212 114.11 280.2 129.781C270.828 134.323 267.753 138.603 264.411 147.942Z" fill="#434343" stroke="black" stroke-width="4"/>
<path d="M341.81 129.348H326.695L293.26 229.348H353.76L341.81 129.348Z" fill="#5E5E5E" fill-opacity="0.5"/>
<path d="M271.26 145.848L243.76 229.348H287.76L322.76 129.848L285.26 134.848C277.399 136.383 273.638 137.989 271.26 145.848Z" fill="#979797" fill-opacity="0.5"/>
<path d="M229.26 234.348C228.745 236.198 227.991 237.263 225.76 239.848L627.26 240.848C625.513 239.229 624.213 237.668 623.26 235.348L229.26 234.348Z" fill="#AE904C"/>
<path d="M246.26 322.348L247.76 369.848" stroke="#AE904C" stroke-width="1.5"/>
<path d="M201.26 311.348C194.637 322.696 190.231 325.876 184.26 332.848" stroke="#AE904C" stroke-width="1.5"/>
<path d="M235.421 252.628C237.659 246.866 239.113 243.049 242.1 235.067" stroke="#AE904C" stroke-width="1.5"/>
<path d="M604.26 318.848C604.694 339.601 604.215 350.973 602.26 370.848" stroke="#AE904C" stroke-width="1.5"/>
<path d="M650.76 312.848C656.244 321.887 659.803 326.827 667.26 335.348" stroke="#AE904C" stroke-width="1.5"/>
<path d="M610.26 236.348C612.073 243.568 612.925 246.003 615.76 251.348" stroke="#AE904C" stroke-width="1.5"/>
<rect x="339.26" y="377.348" width="172" height="50" fill="url(#paint1_linear)"/>
<defs>
<linearGradient id="paint0_linear" x1="416.682" y1="299.218" x2="427.733" y2="323.315" gradientUnits="userSpaceOnUse">
<stop stop-color="#FF7E7E"/>
<stop offset="1" stop-color="#792E2E"/>
</linearGradient>
<linearGradient id="paint1_linear" x1="425.26" y1="377.348" x2="425.26" y2="428.848" gradientUnits="userSpaceOnUse">
<stop offset="0.0850624" stop-color="#151515"/>
<stop offset="1" stop-color="#4A4A4A" stop-opacity="0"/>
</linearGradient>
</defs>
</svg>
