<svg width="905" height="705" viewBox="0 0 905 705" fill="none" xmlns="http://www.w3.org/2000/svg">
<path d="M642.663 523.174L238.163 525.674C239.841 464.325 224.292 437.126 172.663 431.674C128.349 426.995 105.587 459.079 94.1628 511.174L72.1628 503.174C66.8504 501.794 64.7607 498.475 65.6628 489.174L65.1628 475.674C61.1547 472.788 59.8028 469.574 61.1628 462.174L64.1628 425.174C66.1563 410.013 70.3855 405.844 81.1628 398.674C80.6074 396.526 80.5847 393.822 81.1628 391.674L93.6628 359.174C93.6628 359.174 98.0209 353.149 101.663 350.174C107.482 345.42 117.663 343.674 117.663 343.674L211.663 260.174C210.455 255.737 210.497 253.451 211.663 249.674L199.163 240.174C197.228 236.691 197.694 236.058 202.663 234.674C236.29 233.514 255.407 230.894 287.663 229.174C353.661 219.904 390.664 222.049 456.663 229.174C536.701 247.83 562.914 264.705 673.663 336.174C708.31 340.011 733.484 347.001 785.163 365.174C803.581 375.937 813.511 382.549 825.163 403.174C830.503 420.67 836.29 429.463 845.163 445.674C846.864 456.409 846.634 462.023 845.163 471.674V503.174C846.434 509.787 845.709 512.221 841.163 513.674L788.663 523.174C783.504 464.487 762.748 428.145 709.663 431.674C662.93 434.781 644.591 461.905 642.663 523.174Z" fill="#F5CA53" stroke="#DEB457"/>
<path d="M662.077 335.598C611.574 291.11 574.277 273.74 518.163 247.674C568.634 266.21 603.372 278.857 672.993 335.132C673.213 335.31 673.098 335.674 672.816 335.674H662.276C662.203 335.674 662.132 335.647 662.077 335.598Z" fill="#F0F0F0"/>
<path d="M659.193 324.698L672.814 335.4C673.013 335.557 673.298 335.54 673.477 335.361L676.007 332.83C676.106 332.731 676.162 332.594 676.146 332.454C676.02 331.34 675.328 330.855 673.711 330.194C673.679 330.181 673.649 330.165 673.621 330.146L663.29 323.259C663.207 323.204 663.107 323.174 663.008 323.175C658.153 323.205 657.082 323.499 659.128 324.654C659.15 324.667 659.173 324.682 659.193 324.698Z" fill="#363636"/>
<circle cx="169.663" cy="499.174" r="61" fill="#E8E8E8" stroke="#262324" stroke-width="10"/>
<path d="M173.189 550.505C176.565 549.484 177.877 544.477 177.877 544.477C177.877 544.477 181.141 531.036 175.549 520.755C169.958 510.474 166.115 511.628 161.132 522.662C156.149 533.697 158.905 544.358 158.827 544.477C159.166 546.983 159.79 549.969 165.254 550.45L173.189 550.505Z" fill="#181818"/>
<path d="M206.613 536.518C208.678 533.482 206.567 528.52 206.567 528.52C206.567 528.52 200.694 515.367 189.709 510.573C178.725 505.78 176.369 509.228 179.341 521.526C182.313 533.823 191.262 540.776 191.274 540.924C193.13 542.759 195.518 544.803 200.208 541.64L206.613 536.518Z" fill="#181818"/>
<path d="M130.765 535.803C128.711 532.854 130.826 528.022 130.826 528.022C130.826 528.022 136.71 515.216 147.675 510.53C158.641 505.845 160.984 509.195 157.995 521.164C155.006 533.134 146.067 539.915 146.054 540.059C144.2 541.848 141.814 543.841 137.142 540.773L130.765 535.803Z" fill="#181818"/>
<path d="M128.758 463.542C126.631 466.597 128.822 471.602 128.822 471.602C128.822 471.602 134.917 484.868 146.276 489.722C157.635 494.575 160.062 491.105 156.966 478.706C153.87 466.307 144.61 459.282 144.597 459.133C142.676 457.28 140.204 455.216 135.365 458.393L128.758 463.542Z" fill="#181818"/>
<path d="M208.442 463.7C210.558 466.738 208.379 471.715 208.379 471.715C208.379 471.715 202.317 484.909 191.021 489.735C179.724 494.562 177.311 491.111 180.39 478.78C183.469 466.449 192.678 459.463 192.691 459.315C194.601 457.472 197.06 455.419 201.872 458.579L208.442 463.7Z" fill="#181818"/>
<path d="M220.152 496.849C219.209 493.26 213.994 491.688 213.994 491.688C213.994 491.688 199.986 487.738 188.96 493.222C177.934 498.706 178.999 502.791 190.411 508.456C201.822 514.12 213.139 511.633 213.261 511.72C215.909 511.46 219.073 510.918 219.789 505.191L220.152 496.849Z" fill="#181818"/>
<path d="M116.163 495.854C117.105 492.27 122.312 490.701 122.312 490.701C122.312 490.701 136.299 486.757 147.309 492.233C158.319 497.708 157.255 501.787 145.86 507.444C134.466 513.1 123.166 510.617 123.044 510.703C120.4 510.443 117.24 509.902 116.525 504.184L116.163 495.854Z" fill="#181818"/>
<path d="M173.969 445.808C177.52 446.882 178.9 452.148 178.9 452.148C178.9 452.148 182.333 466.286 176.451 477.1C170.57 487.914 166.529 486.7 161.287 475.094C156.046 463.487 158.944 452.273 158.862 452.148C159.219 449.513 159.876 446.371 165.622 445.865L173.969 445.808Z" fill="#181818"/>
<circle cx="168.163" cy="498.674" r="10" stroke="#181818"/>
<path d="M158.663 499.174H177.663" stroke="#898989"/>
<circle cx="159.663" cy="493.174" r="2" fill="#181818"/>
<circle cx="159.663" cy="504.174" r="2" fill="#181818"/>
<circle cx="168.663" cy="509.174" r="2" fill="#181818"/>
<circle cx="176.663" cy="504.174" r="2" fill="#181818"/>
<circle cx="168.663" cy="488.174" r="2" fill="#181818"/>
<circle cx="176.663" cy="493.174" r="2" fill="#181818"/>
<circle cx="713.663" cy="499.174" r="61" fill="#E8E8E8" stroke="#262324" stroke-width="10"/>
<path d="M717.189 550.505C720.565 549.484 721.877 544.477 721.877 544.477C721.877 544.477 725.141 531.036 719.549 520.755C713.958 510.474 710.115 511.628 705.132 522.662C700.149 533.697 702.905 544.358 702.827 544.477C703.166 546.983 703.79 549.969 709.254 550.45L717.189 550.505Z" fill="#181818"/>
<path d="M750.613 536.518C752.678 533.482 750.567 528.52 750.567 528.52C750.567 528.52 744.694 515.367 733.709 510.573C722.725 505.78 720.369 509.228 723.341 521.526C726.313 533.823 735.262 540.776 735.274 540.924C737.13 542.759 739.518 544.803 744.208 541.64L750.613 536.518Z" fill="#181818"/>
<path d="M674.765 535.803C672.711 532.854 674.826 528.022 674.826 528.022C674.826 528.022 680.71 515.216 691.675 510.53C702.641 505.845 704.984 509.195 701.995 521.164C699.006 533.134 690.067 539.915 690.054 540.059C688.2 541.848 685.814 543.841 681.142 540.773L674.765 535.803Z" fill="#181818"/>
<path d="M672.758 463.542C670.631 466.597 672.822 471.602 672.822 471.602C672.822 471.602 678.917 484.868 690.276 489.722C701.635 494.575 704.062 491.105 700.966 478.706C697.87 466.307 688.61 459.282 688.597 459.133C686.676 457.28 684.204 455.216 679.365 458.393L672.758 463.542Z" fill="#181818"/>
<path d="M752.442 463.7C754.558 466.738 752.379 471.715 752.379 471.715C752.379 471.715 746.317 484.909 735.021 489.735C723.724 494.562 721.311 491.111 724.39 478.78C727.469 466.449 736.678 459.463 736.691 459.315C738.601 457.472 741.06 455.419 745.872 458.579L752.442 463.7Z" fill="#181818"/>
<path d="M764.152 496.849C763.209 493.26 757.994 491.688 757.994 491.688C757.994 491.688 743.986 487.738 732.96 493.222C721.934 498.706 722.999 502.791 734.411 508.456C745.822 514.12 757.139 511.633 757.261 511.72C759.909 511.46 763.073 510.918 763.789 505.191L764.152 496.849Z" fill="#181818"/>
<path d="M660.163 495.854C661.105 492.27 666.312 490.701 666.312 490.701C666.312 490.701 680.299 486.757 691.309 492.233C702.319 497.708 701.255 501.787 689.86 507.444C678.466 513.1 667.166 510.617 667.044 510.703C664.4 510.443 661.24 509.902 660.525 504.184L660.163 495.854Z" fill="#181818"/>
<path d="M717.969 445.808C721.52 446.882 722.9 452.148 722.9 452.148C722.9 452.148 726.333 466.286 720.451 477.1C714.57 487.914 710.529 486.7 705.287 475.094C700.046 463.487 702.944 452.273 702.862 452.148C703.219 449.513 703.876 446.371 709.622 445.865L717.969 445.808Z" fill="#181818"/>
<circle cx="712.163" cy="498.674" r="10" stroke="#181818"/>
<path d="M702.663 499.174H721.663" stroke="#898989"/>
<circle cx="703.663" cy="493.174" r="2" fill="#181818"/>
<circle cx="703.663" cy="504.174" r="2" fill="#181818"/>
<circle cx="712.663" cy="509.174" r="2" fill="#181818"/>
<circle cx="720.663" cy="504.174" r="2" fill="#181818"/>
<circle cx="712.663" cy="488.174" r="2" fill="#181818"/>
<circle cx="720.663" cy="493.174" r="2" fill="#181818"/>
<path d="M639.663 334.174L205.663 314.99C254.178 257.313 307.96 235.147 397.521 237.319C491.672 239.601 564.068 275.218 639.663 334.174Z" fill="#434343" stroke="#1E201F" stroke-width="4"/>
<path d="M201.976 316.688L645.376 336.162C645.536 336.169 645.663 336.301 645.663 336.461V339.361C645.663 339.532 645.521 339.668 645.35 339.661L201.95 320.686C201.789 320.68 201.663 320.547 201.663 320.387V316.988C201.663 316.817 201.805 316.68 201.976 316.688Z" fill="#AE904C"/>
<path d="M338.663 242.174H329.338L319.494 306.341C318.777 312.101 317.429 313.967 312.241 313.292L209.663 310.084V315.431L329.338 319.174L338.663 242.174Z" fill="#1E201F"/>
<path d="M333.663 320.174L343.163 240.472L367.663 237.174L363.163 320.174H333.663Z" fill="#1E201F"/>
<path d="M637.663 333.174L599.663 307.174L601.966 333.174H637.663Z" fill="#1E201F"/>
<path d="M370.962 244.489L369.382 266.61C369.262 268.291 370.548 269.74 372.231 269.821L530.192 277.364C533.544 277.524 534.546 272.971 531.429 271.729C478.363 250.588 441.135 242.588 374.01 241.707C372.425 241.686 371.075 242.907 370.962 244.489Z" fill="#5E5E5E"/>
<path d="M325.644 251.205L322.494 266.769C322.211 268.168 320.981 269.174 319.554 269.174H274.658C271.241 269.174 270.482 264.374 273.734 263.32L321.78 247.756C323.963 247.049 326.1 248.956 325.644 251.205Z" fill="#5E5E5E"/>
<path d="M604.34 338.422L327.721 326.174C313.592 379.501 313.089 409.786 334.336 467.345C344.318 486.575 357.871 492.526 393.52 496.174H601.667C620.551 433.418 621.776 398.272 604.34 338.422Z" fill="#F7C351" stroke="#AE904C"/>
<path d="M376.3 365.697C376.088 371.608 370.697 376.341 364.082 376.269C357.466 376.197 352.18 371.347 352.098 365.433L376.3 365.697Z" fill="#DEB457" stroke="#D5AA4D" stroke-width="0.5"/>
<path d="M383.477 364.705C383.565 367.016 381.68 368.919 379.369 368.855L346.373 367.936C344.512 367.884 343.066 366.298 343.187 364.44C343.296 362.748 344.677 361.417 346.372 361.37L379.352 360.444C381.545 360.383 383.379 362.099 383.462 364.291L383.477 364.705Z" fill="#3F3F3F"/>
<path d="M580.663 356.674C574.049 356.897 571.745 354.727 568.663 349.174C567.593 343.846 567.339 340.788 567.663 335.174C564.137 331.9 561.85 330.581 557.163 329.174C554.644 327.48 553.76 326.143 553.663 322.674V308.174C554.719 300.797 557.157 299.538 564.163 301.674C572.033 303.879 576.106 305.907 582.663 311.174C587.244 316.207 587.247 319.271 582.663 325.174C580.49 327.105 580.038 328.526 580.663 331.674L593.663 347.174C596.889 353.062 596.487 355.217 591.163 356.674H580.663Z" fill="#232323"/>
<path d="M553.663 308.174C552.678 313.837 552.609 317.012 553.663 322.674C566.181 327.98 572.2 329.258 580.663 327.674L582.663 325.174C587.247 319.271 587.244 316.207 582.663 311.174C576.106 305.907 572.033 303.879 564.163 301.674C557.157 299.538 554.719 300.797 553.663 308.174Z" fill="#2C2C2C"/>
<path d="M693.663 360.174L669.163 336.174C693.97 334.717 736.325 344.635 789.663 367.674C787.798 372.414 787.805 376.653 789.663 381.674C761.022 378.745 744.816 376.427 715.663 371.174C705.547 368.476 700.823 365.969 693.663 360.174Z" fill="#F7C351" stroke="#AE904C"/>
<path d="M119.893 342.175C128.453 344.936 128.026 347.561 123.417 353.034L86.6686 398.101C80.8472 399.891 77.5918 400.882 81.1312 388.871C93.5341 350.835 102.227 342.104 119.893 342.175Z" fill="#232323"/>
<path d="M82.0232 399.174C100.687 368.577 112.218 350.762 110.493 343.174C96.8274 349.662 88.9175 361.39 80.0254 393.194C79.5333 397.939 79.7127 399.368 82.0232 399.174Z" fill="#FF6464"/>
<path d="M111.567 340.174C111.567 340.174 115.336 341.956 118.663 341.813C107.26 365.482 84.0816 398.887 84.1971 398.628C83.7142 399.005 83.0876 399.111 81.7428 399.171C81.7111 399.183 81.6844 399.184 81.6628 399.174C81.6898 399.173 81.7164 399.172 81.7428 399.171C84.0461 398.303 112.816 340.992 111.567 340.174Z" fill="#3E3E3E"/>
<path d="M202.671 233.986L288.163 229.174C252.283 237.896 236.257 243.129 215.17 256.174L199.172 240.853C192.687 236.534 192.65 234.863 202.671 233.986Z" fill="#F7C351" stroke="#AE904C"/>
<path d="M208.663 261.174C207.33 256.879 207.334 254.468 208.663 250.174L215.163 256.174L208.663 261.174Z" fill="white"/>
<ellipse cx="823.09" cy="435.18" rx="8.42015" ry="12.4882" transform="rotate(-29.07 823.09 435.18)" fill="#DBDBDB"/>
<ellipse cx="822.461" cy="433.638" rx="7.32693" ry="9.0429" transform="rotate(-29.07 822.461 433.638)" fill="#F0F0F0"/>
<ellipse cx="823.589" cy="435.108" rx="4.35041" ry="4.37084" transform="rotate(-29.07 823.589 435.108)" fill="white"/>
<path d="M790.769 380.674C788.225 375.731 788.105 372.76 789.769 367.174C816.359 381.942 824.019 391.769 828.163 411.174C825.266 418.198 822.266 417.201 817.269 413.674C808.645 407.489 803.503 401.248 790.769 380.674Z" fill="#DBDBDB"/>
<path d="M790.656 383.789C788.249 379.17 788.135 376.394 789.709 371.174C814.868 384.974 821.742 394.157 825.663 412.29C822.922 418.853 820.456 417.922 815.728 414.626C807.569 408.847 802.703 403.014 790.656 383.789Z" fill="#F0F0F0"/>
<ellipse cx="809.821" cy="395.335" rx="6.54718" ry="9.12947" transform="rotate(-29.07 809.821 395.335)" fill="#FCFCFC"/>
<ellipse cx="808.413" cy="396.59" rx="4.35041" ry="6.06628" transform="rotate(-29.07 808.413 396.59)" fill="white"/>
<ellipse cx="701.663" cy="399.174" rx="6" ry="5" fill="#E4E4E4"/>
<ellipse cx="701.163" cy="399.174" rx="4.5" ry="4" fill="#F1F1F1"/>
<circle cx="704.163" cy="399.674" r="2.5" fill="white"/>
<path d="M806.163 406.174C785.04 417.357 774.567 426.729 760.163 447.174" stroke="#AE904C" stroke-width="1.5"/>
<path d="M845.663 498.174C845.684 485.361 846.059 478.368 846.663 465.174L833.396 466.174C831.407 466.929 830.554 467.928 829.663 471.097V493.251C830.142 496.063 830.961 497.134 833.396 498.174H845.663Z" fill="#363636"/>
<path d="M777.163 459.674L772.663 462.674C776.068 469.509 777.811 473.866 780.663 482.174L785.663 479.674C786.699 478.585 787.246 477.953 787.163 476.174L780.663 460.674C779.219 459.618 778.446 459.383 777.163 459.674Z" fill="#FF6464" stroke="black" stroke-width="0.5"/>
<path d="M237.833 504.674C238.304 512.709 238.4 517.295 238.163 525.674L643.163 523.674C642.897 516.248 643.133 512.088 644.163 504.674H237.833Z" fill="#DAB157" fill-opacity="0.7"/>
<path d="M845.663 500.674L786.163 506.674C787.084 513.259 787.5 516.99 788.163 523.674C816.509 518.962 839.079 514.651 840.163 514.174C843.799 513.619 845.069 512.519 846.163 509.674C846.049 506.589 845.921 500.887 845.663 500.674Z" fill="#DAB157" fill-opacity="0.7"/>
<path d="M167.163 431.174C132.938 421.325 115.249 412.277 92.1628 391.174" stroke="#AE904C" stroke-width="1.5"/>
<path d="M166.163 431.674C128.292 420.886 111.739 412.112 92.1629 390.674C87.8247 397.496 85.4235 399.777 81.1629 398.674C70.7834 404.19 66.9004 409.289 63.6629 422.174L60.1629 464.174C59.6228 471.776 60.2568 473.937 64.6629 476.174L65.1629 490.674C64.6673 498.309 65.6753 501.251 70.6629 503.174L94.1629 511.674C110.671 448.649 128.081 435.635 166.163 431.674Z" fill="#F7C351"/>
<path d="M112.227 453.456L116.346 456.96C111.642 463.504 107.518 471.957 104.163 479.674L99.4885 476.608C98.5864 475.405 98.1167 474.714 98.4069 472.957L108.634 454.041C110.191 453.16 110.987 453.017 112.227 453.456Z" fill="#FF6464" stroke="black" stroke-width="0.5"/>
<path d="M98.6629 495.674L94.6629 512.174L69.1629 502.674C65.591 500.601 64.2072 498.639 64.6629 493.674L64.6629 484.174L98.6629 495.674Z" fill="#DAB157" fill-opacity="0.7"/>
<circle cx="193.163" cy="382.674" r="13" fill="#F7C351" stroke="#AE904C"/>
<path d="M319.663 360.174C322.23 347.149 323.539 339.329 327.163 326.174L147.663 316.674C136.354 326.511 130.011 332.048 118.663 342.174C197.255 354.62 241.25 357.784 319.663 360.174Z" fill="#F7C351"/>
</svg>
