<svg width="905" height="708" viewBox="0 0 905 708" fill="none" xmlns="http://www.w3.org/2000/svg">
<path d="M264 531.174L668.5 533.674C666.821 472.325 682.371 445.126 734 439.674C778.314 434.995 801.076 467.079 812.5 519.174L834.5 511.174C839.812 509.794 841.902 506.475 841 497.174L841.5 483.674C845.508 480.788 846.86 477.574 845.5 470.174L842.5 433.174C840.507 418.013 836.277 413.844 825.5 406.674C826.055 404.526 826.078 401.822 825.5 399.674L813 367.174C813 367.174 808.642 361.149 805 358.174C799.18 353.42 789 351.674 789 351.674L695 268.174C696.208 263.737 696.166 261.451 695 257.674L707.5 248.174C709.435 244.691 708.969 244.058 704 242.674C670.373 241.514 651.256 238.894 619 237.174C553.001 227.904 515.999 230.049 450 237.174C369.962 255.83 343.749 272.705 233 344.174C198.352 348.011 173.178 355.001 121.5 373.174C103.081 383.937 93.1514 390.549 81.5001 411.174C76.1599 428.67 70.373 437.463 61.5001 453.674C59.7986 464.409 60.0289 470.023 61.5001 479.674V511.174C60.2284 517.787 60.9536 520.221 65.5001 521.674L118 531.174C123.159 472.487 143.914 436.145 197 439.674C243.733 442.781 262.072 469.905 264 531.174Z" fill="#F5CA53" stroke="#DEB457"/>
<path d="M244.586 343.598C295.088 299.11 332.386 281.74 388.5 255.674C338.029 274.21 303.291 286.857 233.67 343.132C233.45 343.31 233.565 343.674 233.847 343.674H244.387C244.46 343.674 244.531 343.647 244.586 343.598Z" fill="#F0F0F0"/>
<path d="M247.469 332.698L233.849 343.4C233.65 343.557 233.365 343.54 233.186 343.361L230.656 340.83C230.556 340.731 230.501 340.594 230.517 340.454C230.643 339.34 231.334 338.855 232.952 338.194C232.983 338.181 233.014 338.165 233.042 338.146L243.373 331.259C243.456 331.204 243.556 331.174 243.655 331.175C248.51 331.205 249.581 331.499 247.535 332.654C247.513 332.667 247.49 332.682 247.469 332.698Z" fill="#363636"/>
<circle r="61" transform="matrix(-1 0 0 1 737 507.174)" fill="#E8E8E8" stroke="#262324" stroke-width="10"/>
<path d="M733.474 558.505C730.098 557.484 728.786 552.477 728.786 552.477C728.786 552.477 725.522 539.036 731.113 528.755C736.705 518.474 740.547 519.628 745.531 530.662C750.514 541.697 747.758 552.358 747.836 552.477C747.497 554.983 746.872 557.969 741.409 558.45L733.474 558.505Z" fill="#181818"/>
<path d="M700.05 544.518C697.985 541.482 700.096 536.52 700.096 536.52C700.096 536.52 705.969 523.367 716.954 518.573C727.938 513.78 730.294 517.228 727.322 529.526C724.349 541.823 715.401 548.776 715.389 548.924C713.533 550.759 711.144 552.803 706.455 549.64L700.05 544.518Z" fill="#181818"/>
<path d="M775.898 543.803C777.952 540.854 775.837 536.022 775.837 536.022C775.837 536.022 769.953 523.216 758.987 518.53C748.022 513.845 745.679 517.195 748.668 529.164C751.657 541.134 760.596 547.915 760.608 548.059C762.463 549.848 764.849 551.841 769.521 548.773L775.898 543.803Z" fill="#181818"/>
<path d="M777.905 471.542C780.032 474.597 777.841 479.602 777.841 479.602C777.841 479.602 771.746 492.868 760.387 497.722C749.028 502.575 746.601 499.105 749.697 486.706C752.793 474.307 762.053 467.282 762.066 467.133C763.987 465.28 766.459 463.216 771.298 466.393L777.905 471.542Z" fill="#181818"/>
<path d="M698.221 471.7C696.105 474.738 698.284 479.715 698.284 479.715C698.284 479.715 704.346 492.909 715.642 497.735C726.939 502.562 729.352 499.111 726.273 486.78C723.194 474.449 713.985 467.463 713.972 467.315C712.062 465.472 709.603 463.419 704.791 466.579L698.221 471.7Z" fill="#181818"/>
<path d="M686.511 504.849C687.454 501.26 692.669 499.688 692.669 499.688C692.669 499.688 706.677 495.738 717.703 501.222C728.729 506.706 727.664 510.791 716.252 516.456C704.841 522.12 693.524 519.633 693.402 519.72C690.754 519.46 687.59 518.918 686.873 513.191L686.511 504.849Z" fill="#181818"/>
<path d="M790.5 503.854C789.558 500.27 784.351 498.701 784.351 498.701C784.351 498.701 770.363 494.757 759.354 500.233C748.344 505.708 749.408 509.787 760.802 515.444C772.197 521.1 783.497 518.617 783.619 518.703C786.263 518.443 789.423 517.902 790.138 512.184L790.5 503.854Z" fill="#181818"/>
<path d="M732.694 453.808C729.143 454.882 727.763 460.148 727.763 460.148C727.763 460.148 724.33 474.286 730.211 485.1C736.093 495.914 740.134 494.7 745.376 483.094C750.617 471.487 747.719 460.273 747.801 460.148C747.444 457.513 746.787 454.371 741.04 453.865L732.694 453.808Z" fill="#181818"/>
<circle r="10" transform="matrix(-1 0 0 1 738.5 506.674)" stroke="#181818"/>
<path d="M748 507.174H729" stroke="#898989"/>
<circle r="2" transform="matrix(-1 0 0 1 747 501.174)" fill="#181818"/>
<circle r="2" transform="matrix(-1 0 0 1 747 512.174)" fill="#181818"/>
<circle r="2" transform="matrix(-1 0 0 1 738 517.174)" fill="#181818"/>
<circle r="2" transform="matrix(-1 0 0 1 730 512.174)" fill="#181818"/>
<circle r="2" transform="matrix(-1 0 0 1 738 496.174)" fill="#181818"/>
<circle r="2" transform="matrix(-1 0 0 1 730 501.174)" fill="#181818"/>
<circle r="61" transform="matrix(-1 0 0 1 193 507.174)" fill="#E8E8E8" stroke="#262324" stroke-width="10"/>
<path d="M189.474 558.505C186.098 557.484 184.786 552.477 184.786 552.477C184.786 552.477 181.522 539.036 187.113 528.755C192.705 518.474 196.547 519.628 201.531 530.662C206.514 541.697 203.758 552.358 203.836 552.477C203.497 554.983 202.872 557.969 197.409 558.45L189.474 558.505Z" fill="#181818"/>
<path d="M156.05 544.518C153.985 541.482 156.096 536.52 156.096 536.52C156.096 536.52 161.969 523.367 172.954 518.573C183.938 513.78 186.294 517.228 183.322 529.526C180.349 541.823 171.401 548.776 171.389 548.924C169.533 550.759 167.144 552.803 162.455 549.64L156.05 544.518Z" fill="#181818"/>
<path d="M231.898 543.803C233.952 540.854 231.837 536.022 231.837 536.022C231.837 536.022 225.953 523.216 214.987 518.53C204.022 513.845 201.679 517.195 204.668 529.164C207.657 541.134 216.596 547.915 216.609 548.059C218.463 549.848 220.849 551.841 225.521 548.773L231.898 543.803Z" fill="#181818"/>
<path d="M233.905 471.542C236.032 474.597 233.841 479.602 233.841 479.602C233.841 479.602 227.746 492.868 216.387 497.722C205.027 502.575 202.601 499.105 205.697 486.706C208.793 474.307 218.053 467.282 218.066 467.133C219.987 465.28 222.459 463.216 227.298 466.393L233.905 471.542Z" fill="#181818"/>
<path d="M154.221 471.7C152.105 474.738 154.284 479.715 154.284 479.715C154.284 479.715 160.346 492.909 171.642 497.735C182.939 502.562 185.352 499.111 182.273 486.78C179.194 474.449 169.985 467.463 169.972 467.315C168.062 465.472 165.603 463.419 160.791 466.579L154.221 471.7Z" fill="#181818"/>
<path d="M142.511 504.849C143.454 501.26 148.669 499.688 148.669 499.688C148.669 499.688 162.677 495.738 173.703 501.222C184.729 506.706 183.664 510.791 172.252 516.456C160.841 522.12 149.524 519.633 149.402 519.72C146.754 519.46 143.59 518.918 142.873 513.191L142.511 504.849Z" fill="#181818"/>
<path d="M246.5 503.854C245.558 500.27 240.351 498.701 240.351 498.701C240.351 498.701 226.363 494.757 215.354 500.233C204.344 505.708 205.408 509.787 216.802 515.444C228.197 521.1 239.497 518.617 239.619 518.703C242.263 518.443 245.423 517.902 246.138 512.184L246.5 503.854Z" fill="#181818"/>
<path d="M188.694 453.808C185.143 454.882 183.763 460.148 183.763 460.148C183.763 460.148 180.33 474.286 186.211 485.1C192.093 495.914 196.134 494.7 201.376 483.094C206.617 471.487 203.719 460.273 203.801 460.148C203.444 457.513 202.787 454.371 197.04 453.865L188.694 453.808Z" fill="#181818"/>
<circle r="10" transform="matrix(-1 0 0 1 194.5 506.674)" stroke="#181818"/>
<path d="M204 507.174H185" stroke="#898989"/>
<circle r="2" transform="matrix(-1 0 0 1 203 501.174)" fill="#181818"/>
<circle r="2" transform="matrix(-1 0 0 1 203 512.174)" fill="#181818"/>
<circle r="2" transform="matrix(-1 0 0 1 194 517.174)" fill="#181818"/>
<circle r="2" transform="matrix(-1 0 0 1 186 512.174)" fill="#181818"/>
<circle r="2" transform="matrix(-1 0 0 1 194 496.174)" fill="#181818"/>
<circle r="2" transform="matrix(-1 0 0 1 186 501.174)" fill="#181818"/>
<path d="M267 342.174L701 322.99C652.485 265.313 598.703 243.147 509.142 245.319C414.991 247.601 342.594 283.218 267 342.174Z" fill="#434343" stroke="#1E201F" stroke-width="4"/>
<path d="M704.687 324.688L261.287 344.162C261.126 344.169 261 344.301 261 344.461V347.361C261 347.532 261.142 347.668 261.313 347.661L704.713 328.686C704.873 328.68 705 328.547 705 328.387V324.988C705 324.817 704.858 324.68 704.687 324.688Z" fill="#AE904C"/>
<path d="M568 250.174H577.325L587.169 314.341C587.885 320.101 589.234 321.967 594.422 321.292L697 318.084V323.431L577.325 327.174L568 250.174Z" fill="#1E201F"/>
<path d="M573 328.174L563.5 248.472L539 245.174L543.5 328.174H573Z" fill="#1E201F"/>
<path d="M269 341.174L307 315.174L304.697 341.174H269Z" fill="#1E201F"/>
<path d="M535.701 252.489L537.281 274.61C537.401 276.291 536.115 277.74 534.432 277.821L376.471 285.364C373.119 285.524 372.116 280.971 375.234 279.729C428.3 258.588 465.528 250.588 532.653 249.707C534.238 249.686 535.588 250.907 535.701 252.489Z" fill="#5E5E5E"/>
<path d="M581.018 259.205L584.169 274.769C584.452 276.168 585.682 277.174 587.109 277.174H632.004C635.422 277.174 636.18 272.374 632.929 271.32L584.883 255.756C582.7 255.049 580.563 256.956 581.018 259.205Z" fill="#5E5E5E"/>
<path d="M302.323 346.422L578.942 334.174C593.071 387.501 593.574 417.786 572.327 475.345C562.345 494.575 548.791 500.526 513.143 504.174H304.996C286.112 441.418 284.887 406.272 302.323 346.422Z" fill="#F7C351" stroke="#AE904C"/>
<path d="M530.363 373.697C530.574 379.608 535.966 384.341 542.581 384.269C549.196 384.197 554.483 379.347 554.565 373.433L530.363 373.697Z" fill="#DEB457" stroke="#D5AA4D" stroke-width="0.5"/>
<path d="M523.186 372.705C523.098 375.016 524.983 376.919 527.294 376.855L560.29 375.936C562.151 375.884 563.597 374.298 563.476 372.44C563.366 370.748 561.986 369.417 560.291 369.37L527.311 368.444C525.118 368.383 523.284 370.099 523.201 372.291L523.186 372.705Z" fill="#3F3F3F"/>
<path d="M326 364.674C332.614 364.897 334.918 362.727 338 357.174C339.07 351.846 339.324 348.788 339 343.174C342.526 339.9 344.813 338.581 349.5 337.174C352.019 335.48 352.903 334.143 353 330.674V316.174C351.944 308.797 349.506 307.538 342.5 309.674C334.63 311.879 330.557 313.907 324 319.174C319.419 324.207 319.416 327.271 324 333.174C326.173 335.105 326.626 336.526 326 339.674L313 355.174C309.774 361.062 310.176 363.217 315.5 364.674H326Z" fill="#232323"/>
<path d="M353 316.174C353.985 321.837 354.054 325.012 353 330.674C340.482 335.98 334.463 337.258 326 335.674L324 333.174C319.416 327.271 319.419 324.207 324 319.174C330.557 313.907 334.63 311.879 342.5 309.674C349.506 307.538 351.944 308.797 353 316.174Z" fill="#2C2C2C"/>
<path d="M213 368.174L237.5 344.174C212.693 342.717 170.338 352.635 117 375.674C118.865 380.414 118.858 384.653 117 389.674C145.641 386.745 161.847 384.427 191 379.174C201.116 376.476 205.84 373.969 213 368.174Z" fill="#F7C351" stroke="#AE904C"/>
<path d="M786.77 350.175C778.21 352.936 778.636 355.561 783.246 361.034L819.994 406.101C825.816 407.891 829.071 408.882 825.532 396.871C813.129 358.835 804.436 350.104 786.77 350.175Z" fill="#232323"/>
<path d="M824.64 407.174C805.976 376.577 794.444 358.762 796.17 351.174C809.551 355.693 817.589 368.307 826.637 401.194C827.13 405.939 826.95 407.368 824.64 407.174Z" fill="#FF6464"/>
<path d="M795.096 348.174C795.096 348.174 791.327 349.956 788 349.813C799.403 373.482 822.581 406.887 822.466 406.628C822.949 407.005 823.575 407.111 824.92 407.171C824.952 407.183 824.978 407.184 825 407.174C824.973 407.173 824.946 407.172 824.92 407.171C822.617 406.303 793.847 348.992 795.096 348.174Z" fill="#3E3E3E"/>
<path d="M703.992 241.986L618.5 237.174C654.379 245.896 670.406 251.129 691.493 264.174L707.491 248.853C713.976 244.534 714.013 242.863 703.992 241.986Z" fill="#F7C351" stroke="#AE904C"/>
<path d="M698 269.174C699.333 264.879 699.329 262.468 698 258.174L691.5 264.174L698 269.174Z" fill="white"/>
<ellipse rx="8.42015" ry="12.4882" transform="matrix(-0.874027 -0.485877 -0.485877 0.874027 83.5728 443.18)" fill="#DBDBDB"/>
<ellipse rx="7.32693" ry="9.0429" transform="matrix(-0.874027 -0.485877 -0.485877 0.874027 84.2023 441.638)" fill="#F0F0F0"/>
<ellipse rx="4.35041" ry="4.37084" transform="matrix(-0.874027 -0.485877 -0.485877 0.874027 83.0739 443.108)" fill="white"/>
<path d="M115.894 388.674C118.438 383.731 118.558 380.76 116.894 375.174C90.3037 389.942 82.6442 399.769 78.5 419.174C81.3965 426.198 84.397 425.201 89.3939 421.674C98.0178 415.489 103.16 409.248 115.894 388.674Z" fill="#DBDBDB"/>
<path d="M116.007 391.789C118.414 387.17 118.528 384.394 116.953 379.174C91.7953 392.974 84.921 402.157 81 420.29C83.7405 426.853 86.2067 425.922 90.9345 422.626C99.094 416.847 103.959 411.014 116.007 391.789Z" fill="#F0F0F0"/>
<ellipse rx="6.54718" ry="9.12947" transform="matrix(-0.874027 -0.485877 -0.485877 0.874027 96.8418 403.335)" fill="#FCFCFC"/>
<ellipse rx="4.35041" ry="6.06628" transform="matrix(-0.874027 -0.485877 -0.485877 0.874027 98.2502 404.59)" fill="white"/>
<ellipse rx="6" ry="5" transform="matrix(-1 0 0 1 205 407.174)" fill="#E4E4E4"/>
<ellipse rx="4.5" ry="4" transform="matrix(-1 0 0 1 205.5 407.174)" fill="#F1F1F1"/>
<circle r="2.5" transform="matrix(-1 0 0 1 202.5 407.674)" fill="white"/>
<path d="M100.5 414.174C121.623 425.357 132.096 434.729 146.5 455.174" stroke="#AE904C" stroke-width="1.5"/>
<path d="M61 506.174C60.9785 493.361 60.6043 486.368 60 473.174L73.2667 474.174C75.256 474.929 76.1086 475.928 77 479.097V501.251C76.5208 504.063 75.7013 505.134 73.2667 506.174H61Z" fill="#363636"/>
<path d="M129.5 467.674L134 470.674C130.595 477.509 128.852 481.866 126 490.174L121 487.674C119.964 486.585 119.417 485.953 119.5 484.174L126 468.674C127.443 467.618 128.217 467.383 129.5 467.674Z" fill="#FF6464" stroke="black" stroke-width="0.5"/>
<path d="M668.83 512.674C668.359 520.709 668.263 525.295 668.5 533.674L263.5 531.674C263.766 524.248 263.529 520.088 262.5 512.674H668.83Z" fill="#DAB157" fill-opacity="0.7"/>
<path d="M61 508.674L120.5 514.674C119.579 521.259 119.163 524.99 118.5 531.674C90.1542 526.962 67.5842 522.651 66.5 522.174C62.8643 521.619 61.5943 520.519 60.5 517.674C60.6142 514.589 60.7422 508.887 61 508.674Z" fill="#DAB157" fill-opacity="0.7"/>
<path d="M739.5 439.174C773.725 429.325 791.414 420.277 814.5 399.174" stroke="#AE904C" stroke-width="1.5"/>
<path d="M740.5 439.674C778.371 428.886 794.924 420.112 814.5 398.674C818.838 405.496 821.239 407.777 825.5 406.674C835.879 412.19 839.762 417.289 843 430.174L846.5 472.174C847.04 479.776 846.406 481.937 842 484.174L841.5 498.674C841.996 506.309 840.988 509.251 836 511.174L812.5 519.674C795.991 456.649 778.582 443.635 740.5 439.674Z" fill="#F7C351"/>
<path d="M794.436 461.456L790.317 464.96C795.02 471.504 799.145 479.957 802.5 487.674L807.174 484.608C808.076 483.405 808.546 482.714 808.256 480.957L798.029 462.041C796.472 461.16 795.676 461.017 794.436 461.456Z" fill="#FF6464" stroke="black" stroke-width="0.5"/>
<path d="M808 503.674L812 520.174L837.5 510.674C841.072 508.601 842.456 506.639 842 501.674L842 492.174L808 503.674Z" fill="#DAB157" fill-opacity="0.7"/>
<circle r="13" transform="matrix(-1 0 0 1 713.5 390.674)" fill="#F7C351" stroke="#AE904C"/>
<path d="M587 368.174C584.433 355.149 583.124 347.329 579.5 334.174L759 324.674C770.309 334.511 776.652 340.048 788 350.174C709.408 362.62 665.412 365.784 587 368.174Z" fill="#F7C351"/>
</svg>
