<svg width="948" height="732" viewBox="0 0 948 732" fill="none" xmlns="http://www.w3.org/2000/svg">
<path d="M137.007 456C137.532 503.224 137.109 512.585 149.007 548C153.785 560.703 160.049 563.671 175.507 564C340.514 574.229 427.692 576.901 597.507 564.5C603.554 564.754 608.624 558.975 610.007 555.5C620.084 528.35 627.381 468.896 631.507 453C641.731 423.232 653.185 420.464 662.507 452C669.002 483.997 668.741 502.826 668.007 537.5C683.856 532.875 693.221 530.706 708.507 524C712.788 519.911 714.859 517.278 717.507 511.5C717.507 511.5 724.884 494.112 726.007 481.5C728.296 455.785 729.765 442.717 733.507 427.5C738.636 412.96 752.065 422.237 754.507 431.5C754.507 431.5 756.282 419.503 754.507 412.5C753.069 406.828 749.339 404.698 748.007 399C743.469 379.601 742.007 367.5 728.507 345C715.007 322.5 712.437 319.537 711.007 316.5L690.5 271C679.332 238.758 671.376 221.539 655.007 199.5C644.785 191.068 638.479 187.092 628.007 184.5C537.292 168.144 456.19 167.253 339.507 183C322.97 186.417 316.051 187.362 299.507 201C271.007 230 261.686 244.851 240.507 277C228.406 268.985 221.926 267.215 198.007 280.5C187.904 287.116 185.642 299.269 197.007 306.5L216.007 316C185.85 340.868 168.37 364.778 141.507 430.5C137.323 444.483 136.938 449.064 137.007 456Z" fill="url(#paint0_linear)" stroke="#DEB457" stroke-width="1.5"/>
<rect x="263" y="474" width="175" height="30" rx="2" fill="#EBC061"/>
<path d="M155.019 483H259C259.552 483 260 483.448 260 484V500.982C260 501.541 259.541 501.992 258.982 501.981L162.742 500.223C162.583 500.22 162.424 500.178 162.285 500.102C156.135 496.729 154.31 493.068 154.025 484.02C154.008 483.461 154.459 483 155.019 483Z" fill="url(#paint1_linear)" stroke="#DEB457"/>
<path d="M441 503V486C441 485.448 441.448 485 442 485H582.875C583.474 485 583.939 485.525 583.86 486.118C582.56 495.895 579.935 499.979 572.214 503.892C572.075 503.963 571.919 504 571.764 504H442C441.448 504 441 503.552 441 503Z" fill="url(#paint2_linear)" stroke="#DEB457"/>
<path d="M534.007 506L180.007 504C181.832 524.933 187.689 533.299 213.507 537.5L500.007 539.5C526.199 533.957 533.88 526.76 534.007 506Z" fill="#262324" stroke="black"/>
<path d="M187.228 508.85C187.292 507.947 188.05 507.25 188.96 507.25H217C217.966 507.25 218.75 508.034 218.75 509V528.353C218.75 529.191 218.157 529.911 217.336 530.065C208.52 531.718 201.356 532.312 194.152 526.801C190.715 524.172 188.856 521.649 187.917 518.819C186.974 515.979 186.947 512.805 187.228 508.85Z" fill="#262324" stroke="#433D3F" stroke-width="0.5"/>
<ellipse rx="7.8644" ry="7.79911" transform="matrix(0.863651 0.50409 -0.53059 0.847628 204.93 519.575)" fill="#CECEEA"/>
<ellipse rx="4.87439" ry="5.24713" transform="matrix(0.863651 0.50409 -0.53059 0.847628 206.06 518.535)" fill="#BAB9D9"/>
<path d="M205.657 523.692C203.941 524.684 201.732 524.168 200.723 522.54C199.714 520.912 200.287 518.788 202.003 517.796C203.72 516.804 205.929 517.32 206.938 518.948C207.947 520.576 207.374 522.7 205.657 523.692Z" fill="white" fill-opacity="0.8"/>
<path d="M187.268 507.453C187.15 507.253 187.294 507 187.526 507H218.474C218.706 507 218.85 507.253 218.732 507.453L217.902 508.853C217.848 508.944 217.75 509 217.644 509H188.356C188.25 509 188.152 508.944 188.098 508.853L187.268 507.453Z" fill="#554F51"/>
<path d="M521.788 509.863C521.711 508.952 520.95 508.25 520.038 508.25H494C493.034 508.25 492.25 509.034 492.25 510V529.21C492.25 530.102 492.921 530.852 493.807 530.951C502.245 531.892 509.112 532.495 515.857 527.795C519.377 525.342 521.012 522.841 521.699 519.985C522.391 517.108 522.126 513.853 521.788 509.863Z" fill="#262324" stroke="#433D3F" stroke-width="0.5"/>
<ellipse rx="7.8644" ry="7.79911" transform="matrix(-0.863651 0.50409 0.53059 0.847628 504.93 520.575)" fill="#CECEEA"/>
<ellipse rx="4.87439" ry="5.24713" transform="matrix(-0.863651 0.50409 0.53059 0.847628 505.994 519.905)" fill="#BAB9D9"/>
<path d="M502.108 524.692C503.824 525.684 506.033 525.168 507.042 523.54C508.051 521.912 507.478 519.788 505.761 518.796C504.045 517.804 501.836 518.32 500.827 519.948C499.818 521.576 500.391 523.7 502.108 524.692Z" fill="white" fill-opacity="0.8"/>
<path d="M521.752 508.446C521.864 508.246 521.719 508 521.49 508H492.51C492.281 508 492.137 508.246 492.248 508.446L493.025 509.846C493.078 509.941 493.179 510 493.288 510H520.712C520.821 510 520.922 509.941 520.975 509.846L521.752 508.446Z" fill="#554F51"/>
<path d="M179.975 501.172C179.99 501.073 180.074 501 180.174 501L533.34 502C533.434 502 533.514 502.065 533.535 502.156L534.446 506.255C534.473 506.381 534.378 506.499 534.249 506.499L179.729 504.501C179.608 504.501 179.515 504.393 179.532 504.273L179.975 501.172Z" fill="#3E393B"/>
<path d="M221.007 417C209.252 432.189 207.581 435.411 197.507 448C194.748 451.317 194.337 452.613 199.007 452.5H517.007C520.347 452.606 520.635 451.931 518.507 449.5C508.95 438.146 505.482 434.713 492.507 420.5C485.698 412.216 477.16 408.216 463.507 405C377.22 400.031 331.331 400.471 245.007 404C234.471 406.439 228.998 408.792 221.007 417Z" fill="#FCC959" stroke="#DEB457"/>
<path d="M277.397 450.062C277.578 449.769 277.898 449.59 278.243 449.589L424.245 449.002C424.589 449.001 424.91 449.177 425.094 449.469L432.033 460.466C432.453 461.132 431.974 462 431.187 462H271.796C271.012 462 270.533 461.139 270.946 460.473L277.397 450.062Z" fill="#D7AD51"/>
<path d="M313.776 450C313.776 449.724 313.552 449.5 313.276 449.5H279.531C279.37 449.5 279.219 449.578 279.125 449.709L275.541 454.709C275.304 455.04 275.54 455.5 275.947 455.5H313.276C313.552 455.5 313.776 455.276 313.776 455V450Z" fill="#363636" stroke="#161616"/>
<path d="M389.224 450C389.224 449.724 389.448 449.5 389.724 449.5H423.469C423.63 449.5 423.781 449.578 423.875 449.709L427.459 454.709C427.696 455.04 427.46 455.5 427.053 455.5H389.724C389.448 455.5 389.224 455.276 389.224 455V450Z" fill="#363636" stroke="#161616"/>
<rect x="318.437" y="449.5" width="31.9528" height="6" rx="0.5" fill="#363636" stroke="#161616"/>
<rect x="353.831" y="449.5" width="31.9528" height="6" rx="0.5" fill="#363636" stroke="#161616"/>
<circle cx="351.17" cy="429.17" r="12.0581" transform="rotate(0.534923 351.17 429.17)" fill="#E8E2E2"/>
<circle cx="351.097" cy="429.088" r="9.99498" transform="rotate(0.534923 351.097 429.088)" fill="url(#paint3_linear)"/>
<path d="M347.322 429.802H345.234V432H344.578V427.023H347.661V427.563H345.234V429.266H347.322V429.802ZM349.151 432H348.495V427.023H349.151V432ZM353.164 430.701H351.079L350.61 432H349.934L351.834 427.023H352.408L354.312 432H353.639L353.164 430.701ZM351.277 430.161H352.969L352.121 427.833L351.277 430.161ZM357.976 427.563H356.376V432H355.724V427.563H354.127V427.023H357.976V427.563Z" fill="white"/>
<path d="M365.144 429.83C365.169 427.139 367.385 424.982 370.076 425.031C395.81 425.5 411.976 426.23 438.22 428.447C439.729 428.574 440.885 429.845 440.871 431.36C440.856 432.907 439.628 434.17 438.082 434.228C411.816 435.212 395.643 435.338 369.896 434.853C367.24 434.803 365.118 432.62 365.142 429.964L365.144 429.83Z" fill="url(#paint4_linear)" stroke="#B7B7B7" stroke-width="0.3"/>
<path d="M337.747 429.354C337.771 426.866 335.757 424.833 333.268 424.83C308.089 424.804 292.346 425.186 266.653 426.765C265.277 426.849 264.2 427.984 264.187 429.363C264.174 430.77 265.27 431.937 266.674 432.013C292.336 433.387 308.07 433.787 333.262 433.795C335.72 433.795 337.724 431.813 337.747 429.354Z" fill="url(#paint5_linear)" stroke="#B7B7B7" stroke-width="0.3"/>
<path d="M569 413.5C595.298 434.011 608.986 447.273 626 478" stroke="#AE904C" stroke-width="1.5"/>
<path d="M170.5 413C155.704 422.843 149.1 430.131 138 447" stroke="#AE904C" stroke-width="1.5"/>
<path d="M612.5 197C619.115 191.15 621.963 188.349 631 185" stroke="#AE904C" stroke-width="1.5"/>
<path d="M155 453.5C157.664 461.751 160.084 465.112 168.5 465.5L560.5 470C576.581 467.981 580.976 462.973 584 450" stroke="#DEB457" stroke-width="2"/>
<path d="M313.5 197.5C318.472 191.256 325.805 188.25 332 185" stroke="#AE904C" stroke-width="1.5"/>
<path d="M631.507 209C629.201 230.829 630.35 260.982 633.507 314.5L661.007 307C654.559 280.294 659.83 272.361 681.007 270.5C672.569 241.062 665.072 224.507 647.007 203.5C638.935 196.783 633.804 195.334 631.507 209Z" fill="#434343" stroke="black" stroke-width="0.5"/>
<path d="M309.007 201C270.956 241.144 254.048 266.354 225.007 312H614.507C616.198 269.432 616.198 245.566 614.007 203C613.919 196.97 611.036 194.476 597.507 194C477.902 190.058 415.143 188.279 328.007 193.5C320.061 194.546 315.897 196.171 309.007 201Z" fill="#434343" stroke="black"/>
<path d="M655.862 226.098L636.25 231.445C635.144 231.747 634.022 231.06 633.841 229.928C633.201 225.923 632.154 216.829 634.215 209.053C636.949 198.74 639.837 198.805 646.756 206.559C651.866 212.285 655.56 219.891 657.143 223.478C657.622 224.562 657.006 225.786 655.862 226.098Z" fill="#5E5E5E"/>
<path d="M230.696 304L226 311.5L614.5 311L614.812 304H230.696Z" fill="#212121"/>
<path d="M633 307.5L633.5 314.5L661 307C660.314 304.724 659.993 303.406 659.5 301L633 307.5Z" fill="#212121"/>
<path d="M368.507 197.5H352.007L315.507 307.5H381.007L368.507 197.5Z" fill="#5E5E5E" fill-opacity="0.5"/>
<path d="M311.507 205.5C277.978 239.349 259.204 266.186 233.507 307.5H310.507L349.007 197L328.507 197.5C320.797 199.821 317.077 201.574 311.507 205.5Z" fill="#979797" fill-opacity="0.5"/>
<path d="M695.278 350.95C696.164 353.592 694.627 356.62 691.686 357.78C688.744 358.94 685.554 357.776 684.399 355.241L695.278 350.95Z" fill="#DEB457" stroke="#D5AA4D" stroke-width="0.5"/>
<path d="M698.41 347.923C698.904 349.017 698.37 350.3 697.247 350.721L682.077 356.409C681.215 356.732 680.258 356.275 679.968 355.403C679.703 354.608 680.086 353.742 680.853 353.404L695.682 346.878C696.724 346.42 697.941 346.886 698.41 347.923Z" fill="#3F3F3F"/>
<path d="M659.007 422.5C647.408 385.642 636.753 353.057 634.007 316.5L672.507 306C680.554 307.531 694.929 321.613 700.507 339.5C713.437 373.338 719.15 393.322 727.007 430.5C719.767 453.672 718.007 487 718.007 487C718.007 487 712.747 510.522 700.507 517.5C688.266 524.478 674.507 524 674.507 524C675.237 483.348 672.977 460.877 659.007 422.5Z" fill="url(#paint6_linear)" stroke="#AE904C"/>
<path d="M658.507 287.5C658.739 295.281 659.248 299.56 661.007 307C662.427 308.948 664.694 309.063 667.507 309.5L654.507 325.5C653.557 326.89 653.812 327.653 655.007 329L666.007 334C667.663 334.212 668.448 333.935 669.507 332.5L673.507 312C674.707 310.021 675.666 309.427 678.007 309.5C696.016 311.744 705.973 310.644 723.507 305C729.925 300.891 728.486 297.097 724.507 288.5C717.862 279.866 710.455 274.331 701.007 272.5C691.114 269.271 681.916 269.244 669.007 273C661.924 276.11 658.824 279.617 658.507 287.5Z" fill="#262324"/>
<path d="M215.81 316C225.083 300.16 230.636 291.457 241 276.166C237.862 273.742 235.668 272.659 231.233 271.059C225.066 269.641 221.919 269.653 216.838 271.059C208.028 273.978 203.107 275.95 194.219 282.295C185.765 291.794 185.514 297.187 195 306C202.874 310.358 207.627 312.766 215.81 316Z" fill="#262324" stroke="black" stroke-width="0.3"/>
<path d="M660 303C659.291 298.942 658.652 300.002 658.5 290.5C681.478 306.007 697.255 298.993 727 294.5C729.286 301.036 727.354 304.442 719.5 306.5C703.85 312.07 691.138 311.988 665.5 309.5C661.727 309.217 660.506 307.36 660 303Z" fill="#211F20"/>
<path d="M218.507 385.5L184.007 369.5C194.797 346.133 209.289 332.606 224.007 313L614.507 312C613.973 315.391 616.167 334.012 575.507 382.5L508.507 386.5C394.618 386.91 330.118 386.28 218.507 385.5Z" fill="url(#paint7_linear)" stroke="#AE904C"/>
<path d="M343.124 373.73C342.315 373.316 341.959 372.35 342.305 371.51C349.904 353.075 355.254 342.401 365.927 325.405C366.408 324.638 367.397 324.367 368.202 324.78L369.875 325.638C370.769 326.096 371.094 327.212 370.589 328.081C360.599 345.25 355.167 355.867 347.188 373.735C346.778 374.653 345.682 375.041 344.788 374.583L343.124 373.73Z" fill="#F0C25D" stroke="#D2AA51" stroke-width="0.5"/>
<path d="M388.229 373.578C387.358 373.16 386.991 372.114 387.409 371.243L408.594 327.134C409.012 326.262 410.058 325.895 410.929 326.314L412.957 327.288C413.828 327.706 414.195 328.752 413.777 329.623L392.592 373.732C392.174 374.603 391.128 374.97 390.257 374.552L388.229 373.578Z" fill="#F0C25D" stroke="#D2AA51" stroke-width="0.5"/>
<path d="M321 385.5L354.5 313.5M437 313L403 386" stroke="#F0C25D" stroke-opacity="0.8"/>
<path d="M322 385.5L355.5 313.5M435.5 313L401.5 386" stroke="white" stroke-opacity="0.15" stroke-width="2"/>
<path d="M177.95 450.347C177.406 458.124 171.935 463.74 165.927 463.15C159.918 462.56 155.301 455.953 155.845 448.177C156.389 440.4 161.86 434.785 167.869 435.375C173.878 435.964 178.494 442.571 177.95 450.347Z" fill="url(#paint8_linear)" stroke="#AE904C"/>
<ellipse rx="10.3855" ry="13.1382" transform="matrix(0.995214 0.0977168 -0.0697629 0.997564 166.972 448.987)" fill="url(#paint9_linear)"/>
<path d="M176.378 450.602C175.92 457.145 171.282 462.029 166.019 461.512C160.755 460.996 156.859 455.273 157.317 448.731C157.774 442.188 162.412 437.304 167.676 437.82C172.939 438.337 176.835 444.06 176.378 450.602Z" fill="#EFEFEF"/>
<path d="M176.378 450.602C175.92 457.145 171.282 462.029 166.019 461.512C160.755 460.996 156.859 455.273 157.317 448.731C157.774 442.188 162.412 437.304 167.676 437.82C172.939 438.337 176.835 444.06 176.378 450.602Z" stroke="white"/>
<path d="M176.144 450.852C175.704 457.149 171.208 461.848 166.102 461.347C160.997 460.845 157.215 455.334 157.655 449.036C158.096 442.739 162.591 438.04 167.697 438.541C172.803 439.042 176.585 444.554 176.144 450.852Z" fill="#BBBBD7"/>
<path d="M176.144 450.852C175.704 457.149 171.208 461.848 166.102 461.347C160.997 460.845 157.215 455.334 157.655 449.036C158.096 442.739 162.591 438.04 167.697 438.541C172.803 439.042 176.585 444.554 176.144 450.852Z" stroke="white"/>
<ellipse rx="7.79524" ry="9.09417" transform="matrix(0.995214 0.0977168 -0.0697629 0.997564 167.033 447.839)" fill="#ABABC1"/>
<ellipse rx="4.94473" ry="4.8436" transform="matrix(0.995214 0.0977168 -0.0697629 0.997564 168.259 445.107)" fill="#888799"/>
<ellipse rx="2.456" ry="2.59729" transform="matrix(0.995214 0.0977168 -0.0697629 0.997564 165.558 448.619)" fill="white" fill-opacity="0.9"/>
<path d="M215.982 408.723C206.908 424.135 189.726 430.305 177.664 422.82C165.602 415.335 162.937 396.848 172.011 381.436C181.085 366.024 198.268 359.853 210.329 367.338C222.391 374.823 225.056 393.311 215.982 408.723Z" fill="url(#paint10_linear)" stroke="#AE904C"/>
<ellipse rx="23.6017" ry="29.7829" transform="matrix(0.849687 0.527288 -0.507353 0.861738 194.426 394.595)" fill="url(#paint11_linear)"/>
<path d="M212.088 407.135C204.483 420.05 190.04 425.383 179.828 419.046C169.615 412.708 167.501 397.1 175.105 384.184C182.709 371.269 197.153 365.936 207.365 372.273C217.578 378.611 219.692 394.219 212.088 407.135Z" fill="#EFEFEF"/>
<path d="M212.088 407.135C204.483 420.05 190.04 425.383 179.828 419.046C169.615 412.708 167.501 397.1 175.105 384.184C182.709 371.269 197.153 365.936 207.365 372.273C217.578 378.611 219.692 394.219 212.088 407.135Z" stroke="white"/>
<path d="M211.281 405.387C204.555 416.809 191.593 421.349 182.345 415.61C173.097 409.871 170.987 395.978 177.712 384.555C184.437 373.132 197.399 368.593 206.647 374.332C215.895 380.071 218.006 393.964 211.281 405.387Z" fill="#BBBBD7" stroke="white" stroke-width="0.3"/>
<ellipse rx="17.7152" ry="20.6155" transform="matrix(0.849687 0.527288 -0.507353 0.861738 195.709 392.329)" fill="#ABABC1"/>
<ellipse rx="10.9799" ry="12.1611" transform="matrix(0.849687 0.527288 -0.507353 0.861738 199.501 387.69)" fill="#888799"/>
<path d="M194.015 399.425C190.988 401.285 187.243 400.578 185.65 397.845C184.057 395.112 185.219 391.388 188.246 389.528C191.273 387.668 195.018 388.375 196.612 391.108C198.205 393.841 197.042 397.565 194.015 399.425Z" fill="white" fill-opacity="0.9"/>
<path d="M577.508 386.301C581.452 401.972 568.971 418.796 549.355 423.734C529.74 428.671 510.781 419.761 506.836 404.09C502.892 388.419 515.373 371.595 534.988 366.657C554.604 361.72 573.563 370.63 577.508 386.301Z" fill="#E8E8E8" stroke="white"/>
<ellipse cx="547.211" cy="393.93" rx="31.0074" ry="25.1207" transform="rotate(-14.1287 547.211 393.93)" fill="#F2F2F2"/>
<ellipse cx="546.833" cy="394.668" rx="22.9825" ry="18.6213" transform="rotate(-14.1287 546.833 394.668)" fill="white"/>
<ellipse cx="548.916" cy="392.644" rx="18.1376" ry="13.6293" transform="rotate(-14.1287 548.916 392.644)" fill="#F2F2F2"/>
<path d="M550.616 394.27C551.209 396.629 549.331 399.135 546.42 399.867C543.509 400.6 540.669 399.282 540.075 396.924C539.481 394.565 541.36 392.059 544.27 391.327C547.181 390.594 550.022 391.912 550.616 394.27Z" fill="white"/>
<path d="M549.658 424.119C529.91 429.521 510.784 420.81 506.768 404.923C502.752 389.035 515.284 371.663 535.031 366.261C554.779 360.859 573.905 369.57 577.921 385.458C581.937 401.345 569.405 418.717 549.658 424.119Z" fill="url(#paint12_linear)" stroke="#AE904C"/>
<ellipse rx="26.3938" ry="33.2388" transform="matrix(0.245082 0.969502 -0.964558 0.26387 542.721 395.019)" fill="url(#paint13_linear)"/>
<path d="M547.192 418.819C531.058 423.233 515.308 416.248 512.014 403.217C508.72 390.186 519.129 376.044 535.263 371.63C551.398 367.216 567.148 374.202 570.442 387.233C573.736 400.264 563.327 414.405 547.192 418.819Z" fill="#E9E8E8"/>
<path d="M547.192 418.819C531.058 423.233 515.308 416.248 512.014 403.217C508.72 390.186 519.129 376.044 535.263 371.63C551.398 367.216 567.148 374.202 570.442 387.233C573.736 400.264 563.327 414.405 547.192 418.819Z" stroke="white"/>
<path d="M547.904 416.808C533.629 420.714 519.673 414.245 516.687 402.432C513.701 390.619 522.792 377.846 537.067 373.941C551.342 370.035 565.298 376.504 568.284 388.317C571.271 400.13 562.179 412.903 547.904 416.808Z" fill="#BBBBD7" stroke="white" stroke-width="0.3"/>
<ellipse rx="19.8109" ry="23.0076" transform="matrix(0.245082 0.969502 -0.964558 0.26387 545.51 394.205)" fill="#ABABC1"/>
<ellipse rx="13.0568" ry="12.9097" transform="matrix(0.245082 0.969502 -0.964558 0.26387 549.54 389.848)" fill="#888799"/>
<ellipse rx="6.45622" ry="6.7968" transform="matrix(0.245082 0.969502 -0.964558 0.26387 542.138 398.053)" fill="white" fill-opacity="0.9"/>
<path d="M566.715 468.23C555.585 471.356 545.07 466.574 543.041 457.833C541.012 449.092 548.155 439.35 559.285 436.224C570.415 433.098 580.93 437.881 582.959 446.622C584.988 455.363 577.845 465.104 566.715 468.23Z" fill="url(#paint14_linear)" stroke="#AE904C"/>
<ellipse rx="15.1485" ry="19.3419" transform="matrix(0.226129 0.974097 -0.96275 0.270392 563.417 452.193)" fill="url(#paint15_linear)"/>
<path d="M565.574 465.964C556.278 468.575 547.329 464.599 545.584 457.085C543.84 449.57 549.961 441.362 559.257 438.752C568.552 436.141 577.502 440.116 579.246 447.631C580.99 455.145 574.869 463.353 565.574 465.964Z" fill="#EFEFEF"/>
<path d="M565.574 465.964C556.278 468.575 547.329 464.599 545.584 457.085C543.84 449.57 549.961 441.362 559.257 438.752C568.552 436.141 577.502 440.116 579.246 447.631C580.99 455.145 574.869 463.353 565.574 465.964Z" stroke="white"/>
<path d="M565.118 465.766C556.171 468.279 547.546 464.407 545.853 457.118C544.161 449.829 550.043 441.882 558.991 439.369C567.938 436.856 576.564 440.728 578.256 448.017C579.948 455.307 574.066 463.253 565.118 465.766Z" fill="#BBBBD7"/>
<path d="M565.118 465.766C556.171 468.279 547.546 464.407 545.853 457.118C544.161 449.829 550.043 441.882 558.991 439.369C567.938 436.856 576.564 440.728 578.256 448.017C579.948 455.307 574.066 463.253 565.118 465.766Z" stroke="white"/>
<ellipse rx="11.3703" ry="13.3883" transform="matrix(0.226129 0.974097 -0.96275 0.270392 565.038 451.708)" fill="#ABABC1"/>
<ellipse rx="7.11877" ry="6.96915" transform="matrix(0.226129 0.974097 -0.96275 0.270392 568.9 449.819)" fill="#888799"/>
<path d="M564.845 458.201C563.018 458.714 561.211 457.726 560.809 455.994C560.407 454.262 561.562 452.442 563.389 451.929C565.216 451.416 567.023 452.404 567.425 454.136C567.827 455.868 566.672 457.688 564.845 458.201Z" fill="white" fill-opacity="0.9"/>
<path d="M628.028 394.855C628.977 396.543 628.185 398.933 626.037 400.141C623.888 401.348 621.435 400.782 620.486 399.094C619.538 397.407 620.329 395.017 622.478 393.809C624.626 392.601 627.08 393.168 628.028 394.855Z" fill="#EFEFEF" stroke="white"/>
<path d="M628.92 394.344C630.167 396.562 629.143 399.567 626.538 401.032C623.933 402.496 620.833 401.809 619.586 399.59C618.339 397.371 619.363 394.366 621.968 392.902C624.574 391.437 627.673 392.125 628.92 394.344Z" stroke="#DBB45A" stroke-width="0.5"/>
<ellipse cx="623.298" cy="398.2" rx="1.77968" ry="1.52363" transform="rotate(-29.3396 623.298 398.2)" fill="white"/>
<path d="M581.007 610C573.515 594.756 572.25 585.901 571.007 570L600.007 568.5C609.645 566.905 615.423 556.125 618.507 544C629.715 492.262 630.575 469.773 637.507 447C643.719 434.525 647.853 432.188 653.007 439.203C660.528 450.086 663.869 472.921 665.007 521C663.579 567.487 662.423 589.798 657.507 599.5C650.853 614.529 644.942 616.854 633.507 618.5C614.364 619.688 604.834 619.544 589.007 618.5C585.514 616.025 583.648 614.425 581.007 610Z" fill="#262324" stroke="black"/>
<path d="M691.507 564.5C685.862 555.152 684.316 548.844 682.507 537C704.093 532.899 712.084 528.484 718.507 516.5C727.315 498.864 729.028 487.523 731.007 467.5C731.947 452.597 732.769 444.475 735.507 431C740.186 422.065 743.134 421.699 749.007 429.5C752.839 440.326 753.809 446.945 755.007 459C757.77 497.324 756.92 517.481 751.007 551C746.448 563.34 741.978 567.609 729.507 569H699.507C695.283 568.735 693.474 567.827 691.507 564.5Z" fill="#262324" stroke="black"/>
<path d="M143.507 576.5C141.507 558.5 141.703 549.677 141.507 532.5L150.007 557C153.049 563.493 155.875 564.678 161.507 565.5L241.007 570.5C239.595 586.74 236.744 594.789 226.507 606.5C221.415 611.484 217.992 613.408 211.007 615.5C193.102 616.408 183.184 616.089 166.007 612C151.55 604.209 147.507 594.5 143.507 576.5Z" fill="#262324" stroke="black"/>
<path d="M613 546.5H148C152.217 558.435 156.855 563.184 173.5 564.5C337.92 575.338 429.992 576.009 594 565C605.087 564.986 609.672 560.867 613 546.5Z" fill="#DAB157"/>
<path d="M614 542H147C151.235 555.989 155.893 561.555 172.61 563.097C337.737 575.801 430.204 576.587 594.918 563.684C606.053 563.667 610.658 558.84 614 542Z" fill="#DAB157" fill-opacity="0.7"/>
<path d="M667.5 517.5V524C687.937 520.579 716.778 511.677 718 510.5C719.222 509.323 718.785 508.623 720.5 503.5L667.5 517.5Z" fill="#EBBF5F" fill-opacity="0.8"/>
<path d="M667.5 521L667 538.5C686.524 534.724 700.533 528.575 709 524.5C717.338 516.962 717.175 513.533 720.5 506L667.5 521Z" fill="#DAB157"/>
<defs>
<linearGradient id="paint0_linear" x1="156.5" y1="478" x2="729.5" y2="691" gradientUnits="userSpaceOnUse">
<stop stop-color="#F5CA53"/>
<stop offset="1" stop-color="#ECCE7C"/>
</linearGradient>
<linearGradient id="paint1_linear" x1="207" y1="483" x2="207" y2="502" gradientUnits="userSpaceOnUse">
<stop offset="0.348958" stop-color="#F8F8F8"/>
<stop offset="1" stop-color="#C6C6C6"/>
</linearGradient>
<linearGradient id="paint2_linear" x1="512.5" y1="485" x2="512.5" y2="504" gradientUnits="userSpaceOnUse">
<stop offset="0.348958" stop-color="#F8F8F8"/>
<stop offset="1" stop-color="#C6C6C6"/>
</linearGradient>
<linearGradient id="paint3_linear" x1="346.915" y1="420.039" x2="355.592" y2="438.958" gradientUnits="userSpaceOnUse">
<stop stop-color="#FF7E7E"/>
<stop offset="1" stop-color="#792E2E"/>
</linearGradient>
<linearGradient id="paint4_linear" x1="403.058" y1="425.149" x2="403.079" y2="437.731" gradientUnits="userSpaceOnUse">
<stop stop-color="white"/>
<stop offset="1" stop-color="#C5C5C5"/>
</linearGradient>
<linearGradient id="paint5_linear" x1="301.014" y1="424.345" x2="300.687" y2="436.721" gradientUnits="userSpaceOnUse">
<stop stop-color="white"/>
<stop offset="1" stop-color="#C5C5C5"/>
</linearGradient>
<linearGradient id="paint6_linear" x1="634" y1="276.5" x2="703" y2="567.5" gradientUnits="userSpaceOnUse">
<stop stop-color="#F7C351"/>
<stop offset="0.737957" stop-color="#F0C76E" stop-opacity="0.24"/>
</linearGradient>
<linearGradient id="paint7_linear" x1="639" y1="302.5" x2="83.5" y2="419" gradientUnits="userSpaceOnUse">
<stop offset="0.126763" stop-color="#F7C351"/>
<stop offset="0.822472" stop-color="#FFE6AF" stop-opacity="0"/>
</linearGradient>
<linearGradient id="paint8_linear" x1="177.547" y1="443.544" x2="156.36" y2="453.538" gradientUnits="userSpaceOnUse">
<stop stop-color="white"/>
<stop offset="1" stop-color="#EEEEEE"/>
</linearGradient>
<linearGradient id="paint9_linear" x1="8.8393" y1="29.685" x2="11.7576" y2="0.494317" gradientUnits="userSpaceOnUse">
<stop stop-color="#EFEFEF"/>
<stop offset="1" stop-color="#D5D5D5"/>
</linearGradient>
<linearGradient id="paint10_linear" x1="221.493" y1="394.181" x2="168.186" y2="393.152" gradientUnits="userSpaceOnUse">
<stop stop-color="white"/>
<stop offset="1" stop-color="#EEEEEE"/>
</linearGradient>
<linearGradient id="paint11_linear" x1="20.0879" y1="67.2929" x2="26.6872" y2="1.1173" gradientUnits="userSpaceOnUse">
<stop stop-color="#EFEFEF"/>
<stop offset="1" stop-color="#D5D5D5"/>
</linearGradient>
<linearGradient id="paint12_linear" x1="565.736" y1="416.507" x2="522.448" y2="373.041" gradientUnits="userSpaceOnUse">
<stop stop-color="white"/>
<stop offset="1" stop-color="#EEEEEE"/>
</linearGradient>
<linearGradient id="paint13_linear" x1="22.4643" y1="75.1012" x2="29.8148" y2="1.244" gradientUnits="userSpaceOnUse">
<stop stop-color="#EFEFEF"/>
<stop offset="1" stop-color="#D5D5D5"/>
</linearGradient>
<linearGradient id="paint14_linear" x1="575.919" y1="464.08" x2="552.118" y2="439.832" gradientUnits="userSpaceOnUse">
<stop stop-color="white"/>
<stop offset="1" stop-color="#EEEEEE"/>
</linearGradient>
<linearGradient id="paint15_linear" x1="12.8932" y1="43.7019" x2="17.2287" y2="0.735669" gradientUnits="userSpaceOnUse">
<stop stop-color="#EFEFEF"/>
<stop offset="1" stop-color="#D5D5D5"/>
</linearGradient>
</defs>
</svg>
