<svg width="708" height="558" viewBox="0 0 708 558" fill="none" xmlns="http://www.w3.org/2000/svg">
<path d="M1.00765 371.302C1.60598 425.088 1.12435 435.751 14.6752 476.087C20.1173 490.555 27.2525 493.935 44.8578 494.31C232.795 505.96 332.088 509.004 525.5 494.88C532.388 495.169 538.163 488.587 539.737 484.629C551.215 453.705 559.526 385.99 564.225 367.885C575.87 333.981 588.916 330.828 599.533 366.746C606.93 403.189 606.633 424.635 605.797 464.128C623.849 458.86 634.515 456.389 651.925 448.752C656.801 444.094 659.16 441.095 662.176 434.515C662.176 434.515 670.578 414.71 671.857 400.346C674.464 371.057 676.138 356.173 680.399 338.842C686.241 322.281 701.536 332.847 704.318 343.397C704.318 343.397 706.34 329.733 704.318 321.757C702.68 315.297 698.432 312.87 696.914 306.381C691.746 284.287 690.08 270.504 674.705 244.877C659.329 219.25 656.402 215.875 654.773 212.417L631.416 160.594C618.696 123.872 609.634 104.26 590.991 79.1579C579.349 69.5538 572.166 65.0254 560.239 62.0735C456.918 43.4446 364.546 42.4299 231.648 60.3651C212.813 64.2573 204.932 65.3332 186.089 80.8664C153.629 113.896 143.013 130.811 118.89 167.428C105.109 158.299 97.7281 156.282 70.4844 171.414C58.9782 178.949 56.4017 192.791 69.3455 201.027L90.9858 211.847C56.6379 240.171 36.7294 267.404 6.13301 342.258C1.36776 358.184 0.929621 363.402 1.00765 371.302Z" fill="url(#paint0_linear)" stroke="#DEB457" stroke-width="1.5"/>
<rect x="144.509" y="391.803" width="199.319" height="34.1689" rx="2" fill="#EBC061"/>
<path d="M21.3811 402.054H140.092C140.645 402.054 141.092 402.502 141.092 403.054V422.676C141.092 423.235 140.634 423.686 140.074 423.676L30.286 421.67C30.1267 421.667 29.9677 421.625 29.8279 421.549C22.7679 417.685 20.6972 413.498 20.3868 403.073C20.3702 402.514 20.8216 402.054 21.3811 402.054Z" fill="url(#paint1_linear)" stroke="#DEB457"/>
<path d="M347.245 424.972V405.332C347.245 404.78 347.693 404.332 348.245 404.332H508.992C509.59 404.332 510.056 404.855 509.978 405.448C508.503 416.71 505.521 421.382 496.663 425.865C496.524 425.935 496.368 425.972 496.213 425.972H348.245C347.693 425.972 347.245 425.525 347.245 424.972Z" fill="url(#paint2_linear)" stroke="#DEB457"/>
<path d="M453.176 428.25L49.983 425.972C52.0625 449.815 58.7332 459.343 88.1383 464.128L414.451 466.405C444.284 460.092 453.032 451.895 453.176 428.25Z" fill="#262324" stroke="black"/>
<path d="M59.9254 429.639H92.395C93.3615 429.639 94.145 430.423 94.145 431.389V453.938C94.145 454.776 93.5509 455.496 92.7297 455.651C82.5853 457.566 74.352 458.303 66.0728 451.97C62.1174 448.944 59.9919 446.038 58.9289 442.769C57.8626 439.49 57.856 435.819 58.1918 431.239C58.258 430.335 59.0158 429.639 59.9254 429.639Z" fill="#262324" stroke="#433D3F" stroke-width="0.5"/>
<ellipse rx="8.95726" ry="8.8829" transform="matrix(0.863651 0.50409 -0.53059 0.847628 78.37 443.712)" fill="#CECEEA"/>
<ellipse rx="5.55175" ry="5.97629" transform="matrix(0.863651 0.50409 -0.53059 0.847628 79.6564 442.527)" fill="#BAB9D9"/>
<path d="M79.1982 448.4C77.2435 449.53 74.7272 448.943 73.578 447.089C72.4288 445.235 73.0818 442.816 75.0365 441.686C76.9913 440.556 79.5075 441.143 80.6567 442.997C81.8059 444.851 81.1529 447.27 79.1982 448.4Z" fill="white" fill-opacity="0.8"/>
<path d="M58.2166 429.842C58.0981 429.642 58.2422 429.389 58.4746 429.389H93.8685C94.1009 429.389 94.2451 429.642 94.1266 429.842L93.1322 431.52C93.0782 431.611 92.9801 431.667 92.8742 431.667H59.469C59.363 431.667 59.2649 431.611 59.2109 431.52L58.2166 429.842Z" fill="#554F51"/>
<path d="M437.523 430.778H407.332C406.365 430.778 405.582 431.562 405.582 432.528V454.934C405.582 455.826 406.253 456.576 407.139 456.675C416.862 457.763 424.763 458.51 432.524 453.102C436.576 450.278 438.442 447.395 439.214 444.094C439.983 440.799 439.668 437.07 439.282 432.507C439.279 432.468 439.276 432.429 439.272 432.39C439.195 431.479 438.435 430.778 437.523 430.778Z" fill="#262324" stroke="#433D3F" stroke-width="0.5"/>
<ellipse rx="8.95726" ry="8.8829" transform="matrix(-0.863651 0.50409 0.53059 0.847628 420.059 444.851)" fill="#CECEEA"/>
<ellipse rx="5.55175" ry="5.97629" transform="matrix(-0.863651 0.50409 0.53059 0.847628 421.27 444.087)" fill="#BAB9D9"/>
<path d="M416.844 449.539C418.799 450.669 421.315 450.082 422.464 448.228C423.613 446.374 422.96 443.955 421.006 442.825C419.051 441.695 416.535 442.282 415.386 444.136C414.236 445.99 414.889 448.409 416.844 449.539Z" fill="white" fill-opacity="0.8"/>
<path d="M439.253 430.974C439.364 430.774 439.22 430.528 438.991 430.528H405.842C405.613 430.528 405.469 430.774 405.58 430.974L406.512 432.652C406.565 432.747 406.665 432.806 406.774 432.806H438.059C438.168 432.806 438.268 432.747 438.321 432.652L439.253 430.974Z" fill="#554F51"/>
<path d="M49.9508 422.728C49.9649 422.629 50.0496 422.556 50.1494 422.556L452.439 423.694C452.533 423.694 452.613 423.759 452.634 423.85L453.684 428.575C453.711 428.7 453.616 428.819 453.487 428.818L49.6352 426.543C49.514 426.542 49.4212 426.435 49.4384 426.315L49.9508 422.728Z" fill="#3E393B"/>
<path d="M96.6805 326.883C83.2919 344.182 81.3887 347.852 69.9148 362.19C66.7734 365.969 66.3051 367.445 71.6233 367.316H433.814C437.618 367.437 437.947 366.667 435.522 363.899C424.637 350.967 420.687 347.057 405.909 330.869C398.154 321.433 388.429 316.878 372.879 313.215C274.601 307.555 222.336 308.057 124.016 312.076C112.015 314.854 105.783 317.534 96.6805 326.883Z" fill="#FCC959" stroke="#DEB457"/>
<path d="M160.947 364.473C161.129 364.18 161.449 364.002 161.793 364L328.238 363.332C328.583 363.33 328.904 363.506 329.088 363.798L337.166 376.602C337.586 377.268 337.107 378.136 336.32 378.136H154.278C153.494 378.136 153.015 377.275 153.428 376.609L160.947 364.473Z" fill="#D7AD51"/>
<path d="M201.91 363.829H163.266C163.105 363.829 162.954 363.907 162.86 364.038L158.579 370.011C158.342 370.342 158.578 370.802 158.985 370.802H201.91C202.187 370.802 202.41 370.578 202.41 370.302V364.329C202.41 364.053 202.187 363.829 201.91 363.829Z" fill="#363636" stroke="#161616"/>
<path d="M288.705 363.829H327.349C327.51 363.829 327.661 363.907 327.755 364.038L332.037 370.011C332.274 370.342 332.037 370.802 331.63 370.802H288.705C288.429 370.802 288.205 370.578 288.205 370.302V364.329C288.205 364.053 288.429 363.829 288.705 363.829Z" fill="#363636" stroke="#161616"/>
<rect x="207.581" y="363.829" width="36.532" height="6.97274" rx="0.5" fill="#363636" stroke="#161616"/>
<rect x="247.893" y="363.829" width="36.532" height="6.97274" rx="0.5" fill="#363636" stroke="#161616"/>
<circle cx="244.932" cy="340.744" r="13.7337" transform="rotate(0.534923 244.932 340.744)" fill="#E8E2E2"/>
<circle cx="244.849" cy="340.65" r="11.3839" transform="rotate(0.534923 244.849 340.65)" fill="url(#paint3_linear)"/>
<path d="M240.088 340.935H237.999V343.133H237.343V338.157H240.426V338.697H237.999V340.399H240.088V340.935ZM241.916 343.133H241.26V338.157H241.916V343.133ZM245.929 341.834H243.844L243.376 343.133H242.699L244.599 338.157H245.174L247.077 343.133H246.404L245.929 341.834ZM244.042 341.294H245.734L244.886 338.967L244.042 341.294ZM250.741 338.697H249.142V343.133H248.489V338.697H246.893V338.157H250.741V338.697Z" fill="white"/>
<path d="M265.771 335.996C295.486 336.53 313.953 337.354 344.08 339.899C345.81 340.045 347.135 341.502 347.119 343.238C347.102 345.011 345.694 346.459 343.923 346.525C313.774 347.655 295.3 347.792 265.577 347.225C262.92 347.174 260.794 344.991 260.818 342.334L260.833 340.796C260.858 338.104 263.079 335.948 265.771 335.996Z" fill="url(#paint4_linear)" stroke="#B7B7B7" stroke-width="0.3"/>
<path d="M224.823 335.78C195.981 335.747 178.028 336.179 148.669 337.983C147.091 338.08 145.856 339.382 145.841 340.964C145.826 342.576 147.082 343.916 148.693 344.002C178.014 345.572 195.957 346.026 224.811 346.032C227.469 346.032 229.637 343.889 229.662 341.231L229.667 340.672C229.692 337.981 227.514 335.784 224.823 335.78Z" fill="url(#paint5_linear)" stroke="#B7B7B7" stroke-width="0.3"/>
<path d="M493.032 322.896C522.985 346.257 538.575 361.362 557.953 396.359" stroke="#AE904C" stroke-width="1.5"/>
<path d="M39.1553 322.327C22.3027 333.538 14.7818 341.838 2.13898 361.051" stroke="#AE904C" stroke-width="1.5"/>
<path d="M542.577 76.3105C550.111 69.6477 553.355 66.4574 563.648 62.6429" stroke="#AE904C" stroke-width="1.5"/>
<path d="M21.5013 368.455C24.5357 377.852 27.2915 381.68 36.8773 382.122L483.351 387.248C501.667 384.948 506.673 379.244 510.117 364.468" stroke="#DEB457" stroke-width="2"/>
<path d="M202.027 76.88C207.69 69.7685 216.041 66.3444 223.098 62.6429" stroke="#AE904C" stroke-width="1.5"/>
<path d="M564.225 89.9781C561.598 114.84 562.907 149.183 566.503 210.139L597.824 201.597C590.481 171.179 596.484 162.145 620.604 160.024C610.993 126.496 602.454 107.64 581.879 83.7138C572.686 76.0629 566.841 74.4135 564.225 89.9781Z" fill="#434343" stroke="black" stroke-width="0.5"/>
<path d="M196.909 80.8664C153.571 126.589 134.314 155.302 101.236 207.291H544.863C546.789 158.808 546.788 131.626 544.293 83.1443C544.193 76.2764 540.909 73.436 525.5 72.8937C389.275 68.404 317.795 66.3777 218.55 72.3242C209.499 73.5154 204.757 75.3663 196.909 80.8664Z" fill="#434343" stroke="black"/>
<path d="M592.262 109.371L569.345 115.62C568.239 115.921 567.117 115.238 566.931 114.107C566.209 109.709 564.91 99.09 567.31 90.0388C570.424 78.2919 573.712 78.3663 581.594 87.198C587.55 93.8727 591.818 102.79 593.547 106.748C594.022 107.834 593.406 109.059 592.262 109.371Z" fill="#5E5E5E"/>
<path d="M107.716 198.18L102.368 206.722L544.855 206.152L545.211 198.18H107.716Z" fill="#212121"/>
<path d="M565.926 202.166L566.495 210.139L597.817 201.596C597.036 199.005 596.67 197.503 596.108 194.763L565.926 202.166Z" fill="#212121"/>
<path d="M264.678 76.88H245.885L204.313 202.166H278.915L264.678 76.88Z" fill="#5E5E5E" fill-opacity="0.5"/>
<path d="M199.757 85.9917C161.569 124.545 140.186 155.111 110.918 202.166H198.618L242.468 76.3105L219.119 76.88C210.338 79.5236 206.101 81.5203 199.757 85.9917Z" fill="#979797" fill-opacity="0.5"/>
<path d="M636.879 251.609C637.921 254.646 636.157 258.133 632.779 259.465C629.401 260.797 625.732 259.453 624.42 256.522L636.879 251.609Z" fill="#DEB457" stroke="#D5AA4D" stroke-width="0.5"/>
<path d="M640.425 248.207C640.988 249.452 640.38 250.914 639.101 251.394L621.822 257.872C620.841 258.239 619.751 257.719 619.42 256.725V256.725C619.118 255.82 619.555 254.834 620.429 254.45L637.318 247.016C638.505 246.494 639.891 247.025 640.425 248.207V248.207Z" fill="#3F3F3F"/>
<path d="M595.546 333.147C582.336 291.166 570.2 254.054 567.072 212.417L610.922 200.458C620.088 202.201 636.46 218.24 642.813 238.613C657.541 277.153 664.047 299.914 672.996 342.259C664.75 368.65 662.745 406.61 662.745 406.61C662.745 406.61 656.755 433.4 642.813 441.348C628.872 449.296 613.2 448.752 613.2 448.752C614.032 402.451 611.458 376.857 595.546 333.147Z" fill="url(#paint6_linear)" stroke="#AE904C"/>
<path d="M594.977 179.387C595.242 188.25 595.822 193.122 597.824 201.597C599.443 203.816 602.024 203.946 605.228 204.444L590.421 222.667C589.339 224.25 589.63 225.12 590.991 226.654L603.519 232.349C605.406 232.59 606.3 232.275 607.506 230.64L612.062 207.291C613.429 205.037 614.521 204.36 617.187 204.444C637.699 207 649.039 205.747 669.01 199.319C676.32 194.638 674.681 190.317 670.149 180.526C662.58 170.692 654.144 164.388 643.383 162.302C632.116 158.625 621.64 158.594 606.936 162.872C598.869 166.414 595.338 170.409 594.977 179.387Z" fill="#262324"/>
<path d="M90.762 211.847C101.323 193.806 107.648 183.894 119.452 166.478C115.878 163.717 113.379 162.484 108.327 160.661C101.304 159.046 97.7198 159.06 91.933 160.661C81.8978 163.986 76.2936 166.232 66.1704 173.458C56.5415 184.278 56.2555 190.42 67.0599 200.458C76.0276 205.421 81.4413 208.163 90.762 211.847Z" fill="#262324" stroke="black" stroke-width="0.3"/>
<path d="M596.678 197.041C595.871 192.419 595.143 193.626 594.969 182.804C621.14 200.465 639.11 192.476 672.988 187.359C675.592 194.803 673.392 198.683 664.446 201.027C646.621 207.371 632.143 207.278 602.942 204.444C598.645 204.122 597.254 202.006 596.678 197.041Z" fill="#211F20"/>
<path d="M93.8332 291.005L54.5389 272.782C66.8287 246.168 83.335 230.761 100.097 208.43L544.863 207.292C544.255 211.154 546.754 232.362 500.443 287.588L424.133 292.144C294.418 292.612 220.954 291.893 93.8332 291.005Z" fill="url(#paint7_linear)" stroke="#AE904C"/>
<path d="M234.706 275.291C243.445 254.072 249.552 241.883 261.844 222.328C262.325 221.561 263.316 221.288 264.121 221.701L266.514 222.927C267.407 223.385 267.732 224.502 267.226 225.371C255.705 245.16 249.5 257.287 240.309 277.888C239.899 278.806 238.802 279.194 237.908 278.736L235.524 277.515C234.716 277.1 234.36 276.132 234.706 275.291Z" fill="#F0C25D" stroke="#D2AA51" stroke-width="0.5"/>
<path d="M286.055 275.002L310.424 224.263C310.843 223.391 311.888 223.024 312.76 223.443L315.57 224.792C316.441 225.211 316.808 226.256 316.39 227.128L292.021 277.867C291.603 278.739 290.557 279.106 289.686 278.687L286.875 277.337C286.004 276.919 285.637 275.874 286.055 275.002Z" fill="#F0C25D" stroke="#D2AA51" stroke-width="0.5"/>
<path d="M210.569 291.005L248.725 209M342.689 208.43L303.964 291.575" stroke="#F0C25D" stroke-opacity="0.8"/>
<path d="M211.708 291.005L249.863 209M340.981 208.43L302.256 291.575" stroke="white" stroke-opacity="0.15" stroke-width="2"/>
<path d="M47.7101 364.871C47.089 373.751 40.8366 380.192 33.9414 379.515C27.0463 378.838 21.7738 371.266 22.3948 362.385C23.0159 353.505 29.2683 347.064 36.1634 347.741C43.0586 348.418 48.3311 355.99 47.7101 364.871Z" fill="url(#paint8_linear)" stroke="#AE904C"/>
<ellipse rx="11.8287" ry="14.9639" transform="matrix(0.995214 0.0977168 -0.0697629 0.997564 35.1368 363.314)" fill="url(#paint9_linear)"/>
<path d="M45.8496 365.154C45.3284 372.606 40.0462 378.169 34.0513 377.581C28.0564 376.992 23.619 370.474 24.1402 363.023C24.6613 355.571 29.9435 350.008 35.9384 350.596C41.9333 351.185 46.3707 357.703 45.8496 365.154Z" fill="#EFEFEF"/>
<path d="M45.8496 365.154C45.3284 372.606 40.0462 378.169 34.0513 377.581C28.0564 376.992 23.619 370.474 24.1402 363.023C24.6613 355.571 29.9435 350.008 35.9384 350.596C41.9333 351.185 46.3707 357.703 45.8496 365.154Z" stroke="white"/>
<path d="M45.5839 365.438C45.0823 372.611 39.9615 377.963 34.1464 377.392C28.3313 376.821 24.0238 370.543 24.5254 363.371C25.027 356.198 30.1478 350.846 35.9629 351.417C41.778 351.988 46.0855 358.265 45.5839 365.438Z" fill="#BBBBD7"/>
<path d="M45.5839 365.438C45.0823 372.611 39.9615 377.963 34.1464 377.392C28.3313 376.821 24.0238 370.543 24.5254 363.371C25.027 356.198 30.1478 350.846 35.9629 351.417C41.778 351.988 46.0855 358.265 45.5839 365.438Z" stroke="white"/>
<ellipse rx="8.87849" ry="10.3579" transform="matrix(0.995214 0.0977168 -0.0697629 0.997564 35.2061 362.008)" fill="#ABABC1"/>
<ellipse rx="5.63186" ry="5.51668" transform="matrix(0.995214 0.0977168 -0.0697629 0.997564 36.6028 358.896)" fill="#888799"/>
<ellipse rx="2.7973" ry="2.95822" transform="matrix(0.995214 0.0977168 -0.0697629 0.997564 33.5261 362.895)" fill="white" fill-opacity="0.9"/>
<path d="M91.0167 317.492C80.6699 335.066 61.061 342.124 47.2795 333.571C33.498 325.019 30.4706 303.914 40.8175 286.339C51.1643 268.765 70.7732 261.707 84.5547 270.26C98.3362 278.812 101.364 299.917 91.0167 317.492Z" fill="url(#paint10_linear)" stroke="#AE904C"/>
<ellipse rx="26.8815" ry="33.9217" transform="matrix(0.849687 0.527288 -0.507353 0.861738 66.4061 301.364)" fill="url(#paint11_linear)"/>
<path d="M86.522 315.646C77.861 330.357 61.4106 336.431 49.779 329.213C38.1474 321.995 35.7393 304.218 44.4003 289.507C53.0613 274.796 69.5118 268.722 81.1433 275.94C92.7749 283.159 95.183 300.936 86.522 315.646Z" fill="#EFEFEF"/>
<path d="M86.522 315.646C77.861 330.357 61.4106 336.431 49.779 329.213C38.1474 321.995 35.7393 304.218 44.4003 289.507C53.0613 274.796 69.5118 268.722 81.1433 275.94C92.7749 283.159 95.183 300.936 86.522 315.646Z" stroke="white"/>
<path d="M85.6205 313.666C77.9569 326.683 63.1817 331.861 52.6358 325.317C42.0899 318.772 39.6882 302.935 47.3518 289.918C55.0153 276.901 69.7906 271.723 80.3364 278.267C90.8823 284.812 93.2841 300.65 85.6205 313.666Z" fill="#BBBBD7" stroke="white" stroke-width="0.3"/>
<ellipse rx="20.1769" ry="23.4803" transform="matrix(0.849687 0.527288 -0.507353 0.861738 67.8674 298.783)" fill="#ABABC1"/>
<ellipse rx="12.5057" ry="13.851" transform="matrix(0.849687 0.527288 -0.507353 0.861738 72.1858 293.5)" fill="#888799"/>
<path d="M65.9385 306.865C62.4909 308.984 58.225 308.178 56.4105 305.066C54.596 301.953 55.9198 297.712 59.3674 295.593C62.815 293.474 67.0809 294.28 68.8954 297.393C70.7099 300.505 69.3861 304.746 65.9385 306.865Z" fill="white" fill-opacity="0.9"/>
<path d="M502.789 291.9C507.295 309.799 493.039 328.99 470.675 334.619C448.31 340.249 426.668 330.094 422.163 312.195C417.657 294.297 431.913 275.106 454.277 269.477C476.642 263.847 498.284 274.002 502.789 291.9Z" fill="#E8E8E8" stroke="white"/>
<ellipse cx="468.215" cy="300.606" rx="35.3163" ry="28.6115" transform="rotate(-14.1287 468.215 300.606)" fill="#F2F2F2"/>
<ellipse cx="467.784" cy="301.447" rx="26.1762" ry="21.209" transform="rotate(-14.1287 467.784 301.447)" fill="white"/>
<ellipse cx="470.157" cy="299.142" rx="20.658" ry="15.5233" transform="rotate(-14.1287 470.157 299.142)" fill="#F2F2F2"/>
<path d="M472.093 300.994C472.769 303.68 470.63 306.534 467.315 307.369C463.999 308.203 460.764 306.702 460.087 304.016C459.411 301.33 461.551 298.476 464.866 297.641C468.181 296.807 471.417 298.308 472.093 300.994Z" fill="white"/>
<path d="M471.019 335.059C448.504 341.218 426.672 331.29 422.085 313.145C417.499 295.001 431.812 275.185 454.326 269.026C476.841 262.866 498.673 272.794 503.26 290.939C507.846 309.084 493.533 328.899 471.019 335.059Z" fill="url(#paint12_linear)" stroke="#AE904C"/>
<ellipse rx="30.0616" ry="37.8577" transform="matrix(0.245082 0.969502 -0.964558 0.26387 463.101 301.847)" fill="url(#paint13_linear)"/>
<path d="M468.194 328.955C449.817 333.982 431.879 326.026 428.127 311.184C424.375 296.342 436.231 280.235 454.607 275.208C472.984 270.18 490.923 278.137 494.674 292.979C498.426 307.82 486.571 323.927 468.194 328.955Z" fill="#E9E8E8"/>
<path d="M468.194 328.955C449.817 333.982 431.879 326.026 428.127 311.184C424.375 296.342 436.231 280.235 454.607 275.208C472.984 270.18 490.923 278.137 494.674 292.979C498.426 307.82 486.571 323.927 468.194 328.955Z" stroke="white"/>
<path d="M469.01 326.684C452.744 331.134 436.834 323.765 433.43 310.296C430.025 296.827 440.391 282.269 456.657 277.819C472.923 273.369 488.832 280.739 492.237 294.208C495.642 307.677 485.276 322.235 469.01 326.684Z" fill="#BBBBD7" stroke="white" stroke-width="0.3"/>
<ellipse rx="22.5639" ry="26.2049" transform="matrix(0.245082 0.969502 -0.964558 0.26387 466.278 300.919)" fill="#ABABC1"/>
<ellipse rx="14.8712" ry="14.7037" transform="matrix(0.245082 0.969502 -0.964558 0.26387 470.868 295.958)" fill="#888799"/>
<ellipse rx="7.3534" ry="7.7413" transform="matrix(0.245082 0.969502 -0.964558 0.26387 462.438 305.302)" fill="white" fill-opacity="0.9"/>
<path d="M490.445 385.299C477.746 388.866 465.722 383.415 463.399 373.408C461.076 363.402 469.252 352.277 481.951 348.711C494.651 345.144 506.675 350.595 508.998 360.602C511.321 370.608 503.144 381.733 490.445 385.299Z" fill="url(#paint14_linear)" stroke="#AE904C"/>
<ellipse rx="17.2536" ry="22.0297" transform="matrix(0.226129 0.974097 -0.96275 0.270392 486.673 366.966)" fill="url(#paint15_linear)"/>
<path d="M489.13 382.651C478.543 385.624 468.349 381.096 466.362 372.538C464.376 363.979 471.348 354.63 481.935 351.657C492.522 348.683 502.715 353.211 504.702 361.77C506.689 370.329 499.717 379.677 489.13 382.651Z" fill="#EFEFEF"/>
<path d="M489.13 382.651C478.543 385.624 468.349 381.096 466.362 372.538C464.376 363.979 471.348 354.63 481.935 351.657C492.522 348.683 502.715 353.211 504.702 361.77C506.689 370.329 499.717 379.677 489.13 382.651Z" stroke="white"/>
<path d="M488.611 382.425C478.42 385.287 468.596 380.877 466.669 372.575C464.742 364.273 471.441 355.223 481.632 352.36C491.823 349.498 501.647 353.908 503.574 362.21C505.501 370.512 498.802 379.563 488.611 382.425Z" fill="#BBBBD7"/>
<path d="M488.611 382.425C478.42 385.287 468.596 380.877 466.669 372.575C464.742 364.273 471.441 355.223 481.632 352.36C491.823 349.498 501.647 353.908 503.574 362.21C505.501 370.512 498.802 379.563 488.611 382.425Z" stroke="white"/>
<ellipse rx="12.9504" ry="15.2488" transform="matrix(0.226129 0.974097 -0.96275 0.270392 488.519 366.414)" fill="#ABABC1"/>
<ellipse rx="8.10802" ry="7.9376" transform="matrix(0.226129 0.974097 -0.96275 0.270392 492.918 364.262)" fill="#888799"/>
<path d="M488.3 373.809C486.219 374.393 484.16 373.268 483.703 371.295C483.245 369.323 484.56 367.25 486.641 366.666C488.722 366.081 490.78 367.206 491.238 369.179C491.696 371.152 490.381 373.225 488.3 373.809Z" fill="white" fill-opacity="0.9"/>
<path d="M560.324 301.626C561.427 303.59 560.5 306.352 558.029 307.741C555.557 309.13 552.716 308.487 551.612 306.523C550.509 304.559 551.436 301.798 553.907 300.408C556.379 299.019 559.22 299.663 560.324 301.626Z" fill="#EFEFEF" stroke="white"/>
<path d="M561.309 301.061C562.741 303.608 561.563 307.05 558.583 308.725C555.603 310.401 552.05 309.618 550.618 307.07C549.186 304.522 550.364 301.08 553.344 299.405C556.324 297.73 559.877 298.513 561.309 301.061Z" stroke="#DBB45A" stroke-width="0.5"/>
<ellipse cx="554.875" cy="305.47" rx="2.027" ry="1.73536" transform="rotate(-29.3396 554.875 305.47)" fill="white"/>
<path d="M506.707 546.702C498.174 529.34 496.734 519.254 495.318 501.144L528.348 499.435C539.325 497.619 545.906 485.34 549.418 471.531C562.185 412.603 563.164 386.989 571.059 361.051C578.134 346.842 582.843 344.181 588.713 352.171C597.279 364.566 601.084 390.575 602.38 445.335C600.754 498.282 599.437 523.693 593.838 534.743C586.26 551.861 579.528 554.508 566.503 556.384C544.7 557.736 533.846 557.573 515.819 556.384C511.84 553.565 509.716 551.742 506.707 546.702Z" fill="#262324" stroke="black"/>
<path d="M632.563 494.88C626.134 484.233 624.373 477.049 622.312 463.558C646.898 458.887 655.999 453.859 663.315 440.209C673.347 420.122 675.298 407.206 677.552 384.4C678.623 367.426 679.558 358.175 682.677 342.828C688.007 332.651 691.364 332.235 698.053 341.12C702.418 353.451 703.523 360.989 704.887 374.719C708.034 418.369 707.066 441.327 700.331 479.504C695.139 493.558 690.048 498.421 675.843 500.005H641.675C636.863 499.703 634.804 498.668 632.563 494.88Z" fill="#262324" stroke="black"/>
<path d="M8.41092 508.547C6.133 488.046 6.35601 477.997 6.133 458.433L15.8142 486.337C19.2793 493.732 22.4985 495.082 28.9123 496.019L119.46 501.713C117.852 520.211 114.605 529.378 102.945 542.716C97.1459 548.392 93.2469 550.584 85.2909 552.967C64.8981 554.001 53.602 553.637 34.0376 548.98C17.5715 540.106 12.9668 529.049 8.41092 508.547Z" fill="#262324" stroke="black"/>
<path d="M543.147 474.378H13.5286C18.3317 487.972 23.6142 493.381 42.5722 494.88C229.84 507.224 334.707 507.988 521.506 495.449C534.134 495.433 539.356 490.742 543.147 474.378Z" fill="#DAB157"/>
<path d="M544.285 469.253H12.3896C17.2134 485.186 22.5186 491.526 41.5581 493.282C229.632 507.751 334.949 508.646 522.552 493.95C535.235 493.931 540.479 488.433 544.285 469.253Z" fill="#DAB157" fill-opacity="0.7"/>
<path d="M605.22 441.348V448.752C628.497 444.855 661.346 434.716 662.738 433.376C664.13 432.035 663.632 431.237 665.585 425.403L605.22 441.348Z" fill="#EBBF5F" fill-opacity="0.8"/>
<path d="M605.22 445.335L604.651 465.266C626.888 460.965 642.844 453.962 652.487 449.321C661.983 440.736 661.798 436.83 665.585 428.25L605.22 445.335Z" fill="#DAB157"/>
<defs>
<linearGradient id="paint0_linear" x1="23.2098" y1="396.359" x2="675.836" y2="638.958" gradientUnits="userSpaceOnUse">
<stop stop-color="#F5CA53"/>
<stop offset="1" stop-color="#ECCE7C"/>
</linearGradient>
<linearGradient id="paint1_linear" x1="80.7274" y1="402.054" x2="80.7274" y2="423.694" gradientUnits="userSpaceOnUse">
<stop offset="0.348958" stop-color="#F8F8F8"/>
<stop offset="1" stop-color="#C6C6C6"/>
</linearGradient>
<linearGradient id="paint2_linear" x1="428.681" y1="404.332" x2="428.681" y2="425.972" gradientUnits="userSpaceOnUse">
<stop offset="0.348958" stop-color="#F8F8F8"/>
<stop offset="1" stop-color="#C6C6C6"/>
</linearGradient>
<linearGradient id="paint3_linear" x1="240.086" y1="330.343" x2="249.969" y2="351.892" gradientUnits="userSpaceOnUse">
<stop stop-color="#FF7E7E"/>
<stop offset="1" stop-color="#792E2E"/>
</linearGradient>
<linearGradient id="paint4_linear" x1="304.03" y1="336.164" x2="304.054" y2="350.495" gradientUnits="userSpaceOnUse">
<stop stop-color="white"/>
<stop offset="1" stop-color="#C5C5C5"/>
</linearGradient>
<linearGradient id="paint5_linear" x1="187.806" y1="335.248" x2="187.433" y2="349.344" gradientUnits="userSpaceOnUse">
<stop stop-color="white"/>
<stop offset="1" stop-color="#C5C5C5"/>
</linearGradient>
<linearGradient id="paint6_linear" x1="567.065" y1="166.858" x2="645.653" y2="498.296" gradientUnits="userSpaceOnUse">
<stop stop-color="#F7C351"/>
<stop offset="0.737957" stop-color="#F0C76E" stop-opacity="0.24"/>
</linearGradient>
<linearGradient id="paint7_linear" x1="572.76" y1="196.471" x2="-59.9345" y2="329.161" gradientUnits="userSpaceOnUse">
<stop offset="0.126763" stop-color="#F7C351"/>
<stop offset="0.822472" stop-color="#FFE6AF" stop-opacity="0"/>
</linearGradient>
<linearGradient id="paint8_linear" x1="47.1817" y1="357.115" x2="23.0505" y2="368.498" gradientUnits="userSpaceOnUse">
<stop stop-color="white"/>
<stop offset="1" stop-color="#EEEEEE"/>
</linearGradient>
<linearGradient id="paint9_linear" x1="10.0676" y1="33.8102" x2="13.3915" y2="0.563009" gradientUnits="userSpaceOnUse">
<stop stop-color="#EFEFEF"/>
<stop offset="1" stop-color="#D5D5D5"/>
</linearGradient>
<linearGradient id="paint10_linear" x1="97.2344" y1="300.892" x2="36.52" y2="299.721" gradientUnits="userSpaceOnUse">
<stop stop-color="white"/>
<stop offset="1" stop-color="#EEEEEE"/>
</linearGradient>
<linearGradient id="paint11_linear" x1="22.8793" y1="76.6441" x2="30.3958" y2="1.27257" gradientUnits="userSpaceOnUse">
<stop stop-color="#EFEFEF"/>
<stop offset="1" stop-color="#D5D5D5"/>
</linearGradient>
<linearGradient id="paint12_linear" x1="489.314" y1="326.322" x2="440.011" y2="276.815" gradientUnits="userSpaceOnUse">
<stop stop-color="white"/>
<stop offset="1" stop-color="#EEEEEE"/>
</linearGradient>
<linearGradient id="paint13_linear" x1="25.586" y1="85.5375" x2="33.958" y2="1.41687" gradientUnits="userSpaceOnUse">
<stop stop-color="#EFEFEF"/>
<stop offset="1" stop-color="#D5D5D5"/>
</linearGradient>
<linearGradient id="paint14_linear" x1="500.912" y1="380.504" x2="473.804" y2="352.888" gradientUnits="userSpaceOnUse">
<stop stop-color="white"/>
<stop offset="1" stop-color="#EEEEEE"/>
</linearGradient>
<linearGradient id="paint15_linear" x1="14.6849" y1="49.7748" x2="19.6228" y2="0.8379" gradientUnits="userSpaceOnUse">
<stop stop-color="#EFEFEF"/>
<stop offset="1" stop-color="#D5D5D5"/>
</linearGradient>
</defs>
</svg>
